%TF.GenerationSoftware,KiCad,Pcbnew,8.0.6*%
%TF.CreationDate,2025-04-24T20:36:05+02:00*%
%TF.ProjectId,Picroscope,50696372-6f73-4636-9f70-652e6b696361,rev?*%
%TF.SameCoordinates,Original*%
%TF.FileFunction,Paste,Top*%
%TF.FilePolarity,Positive*%
%FSLAX46Y46*%
G04 Gerber Fmt 4.6, Leading zero omitted, Abs format (unit mm)*
G04 Created by KiCad (PCBNEW 8.0.6) date 2025-04-24 20:36:05*
%MOMM*%
%LPD*%
G01*
G04 APERTURE LIST*
G04 Aperture macros list*
%AMRoundRect*
0 Rectangle with rounded corners*
0 $1 Rounding radius*
0 $2 $3 $4 $5 $6 $7 $8 $9 X,Y pos of 4 corners*
0 Add a 4 corners polygon primitive as box body*
4,1,4,$2,$3,$4,$5,$6,$7,$8,$9,$2,$3,0*
0 Add four circle primitives for the rounded corners*
1,1,$1+$1,$2,$3*
1,1,$1+$1,$4,$5*
1,1,$1+$1,$6,$7*
1,1,$1+$1,$8,$9*
0 Add four rect primitives between the rounded corners*
20,1,$1+$1,$2,$3,$4,$5,0*
20,1,$1+$1,$4,$5,$6,$7,0*
20,1,$1+$1,$6,$7,$8,$9,0*
20,1,$1+$1,$8,$9,$2,$3,0*%
%AMFreePoly0*
4,1,19,0.252748,0.308718,0.308718,0.252748,0.329204,0.176292,0.329204,-0.176292,0.308718,-0.252748,0.252748,-0.308718,0.176292,-0.329204,-0.176292,-0.329204,-0.252748,-0.308718,-0.308718,-0.252748,-0.329204,-0.176292,-0.329204,0.049616,-0.308718,0.126072,-0.284417,0.157741,-0.157741,0.284417,-0.089193,0.323994,-0.049616,0.329204,0.176292,0.329204,0.252748,0.308718,0.252748,0.308718,
$1*%
%AMFreePoly1*
4,1,19,0.252748,0.308718,0.308718,0.252748,0.329204,0.176292,0.329204,-0.176292,0.308718,-0.252748,0.252748,-0.308718,0.176292,-0.329204,-0.049616,-0.329204,-0.126072,-0.308718,-0.157741,-0.284417,-0.284417,-0.157741,-0.323994,-0.089193,-0.329204,-0.049616,-0.329204,0.176292,-0.308718,0.252748,-0.252748,0.308718,-0.176292,0.329204,0.176292,0.329204,0.252748,0.308718,0.252748,0.308718,
$1*%
%AMFreePoly2*
4,1,19,0.126072,0.308718,0.157741,0.284417,0.284417,0.157741,0.323994,0.089193,0.329204,0.049616,0.329204,-0.176292,0.308718,-0.252748,0.252748,-0.308718,0.176292,-0.329204,-0.176292,-0.329204,-0.252748,-0.308718,-0.308718,-0.252748,-0.329204,-0.176292,-0.329204,0.176292,-0.308718,0.252748,-0.252748,0.308718,-0.176292,0.329204,0.049616,0.329204,0.126072,0.308718,0.126072,0.308718,
$1*%
%AMFreePoly3*
4,1,19,0.252748,0.308718,0.308718,0.252748,0.329204,0.176292,0.329204,-0.049616,0.308718,-0.126072,0.284417,-0.157741,0.157741,-0.284417,0.089193,-0.323994,0.049616,-0.329204,-0.176292,-0.329204,-0.252748,-0.308718,-0.308718,-0.252748,-0.329204,-0.176292,-0.329204,0.176292,-0.308718,0.252748,-0.252748,0.308718,-0.176292,0.329204,0.176292,0.329204,0.252748,0.308718,0.252748,0.308718,
$1*%
G04 Aperture macros list end*
%ADD10RoundRect,0.250000X0.450000X-0.262500X0.450000X0.262500X-0.450000X0.262500X-0.450000X-0.262500X0*%
%ADD11RoundRect,0.140000X-0.140000X-0.170000X0.140000X-0.170000X0.140000X0.170000X-0.140000X0.170000X0*%
%ADD12RoundRect,0.140000X-0.170000X0.140000X-0.170000X-0.140000X0.170000X-0.140000X0.170000X0.140000X0*%
%ADD13RoundRect,0.135000X0.185000X-0.135000X0.185000X0.135000X-0.185000X0.135000X-0.185000X-0.135000X0*%
%ADD14FreePoly0,270.000000*%
%ADD15FreePoly1,270.000000*%
%ADD16FreePoly2,270.000000*%
%ADD17FreePoly3,270.000000*%
%ADD18RoundRect,0.050000X-0.050000X0.350000X-0.050000X-0.350000X0.050000X-0.350000X0.050000X0.350000X0*%
%ADD19RoundRect,0.050000X-0.350000X0.050000X-0.350000X-0.050000X0.350000X-0.050000X0.350000X0.050000X0*%
%ADD20RoundRect,0.135000X0.135000X0.185000X-0.135000X0.185000X-0.135000X-0.185000X0.135000X-0.185000X0*%
%ADD21RoundRect,0.375000X0.625000X0.375000X-0.625000X0.375000X-0.625000X-0.375000X0.625000X-0.375000X0*%
%ADD22RoundRect,0.500000X0.500000X1.400000X-0.500000X1.400000X-0.500000X-1.400000X0.500000X-1.400000X0*%
%ADD23RoundRect,0.140000X0.140000X0.170000X-0.140000X0.170000X-0.140000X-0.170000X0.140000X-0.170000X0*%
%ADD24RoundRect,0.150000X-0.150000X0.650000X-0.150000X-0.650000X0.150000X-0.650000X0.150000X0.650000X0*%
%ADD25RoundRect,0.135000X-0.135000X-0.185000X0.135000X-0.185000X0.135000X0.185000X-0.135000X0.185000X0*%
%ADD26RoundRect,0.135000X-0.185000X0.135000X-0.185000X-0.135000X0.185000X-0.135000X0.185000X0.135000X0*%
%ADD27RoundRect,0.140000X0.170000X-0.140000X0.170000X0.140000X-0.170000X0.140000X-0.170000X-0.140000X0*%
%ADD28R,0.300000X1.900000*%
%ADD29R,1.000000X1.550000*%
%ADD30RoundRect,0.150000X0.425000X-0.150000X0.425000X0.150000X-0.425000X0.150000X-0.425000X-0.150000X0*%
%ADD31RoundRect,0.075000X0.500000X-0.075000X0.500000X0.075000X-0.500000X0.075000X-0.500000X-0.075000X0*%
%ADD32O,2.100000X1.000000*%
%ADD33O,1.800000X1.000000*%
%ADD34RoundRect,0.090000X0.360000X-0.660000X0.360000X0.660000X-0.360000X0.660000X-0.360000X-0.660000X0*%
%ADD35RoundRect,0.250000X-0.550000X-0.250000X0.550000X-0.250000X0.550000X0.250000X-0.550000X0.250000X0*%
%ADD36RoundRect,0.218750X0.218750X0.256250X-0.218750X0.256250X-0.218750X-0.256250X0.218750X-0.256250X0*%
%ADD37R,1.200000X1.400000*%
G04 APERTURE END LIST*
D10*
%TO.C,R2*%
X152500000Y-85912500D03*
X152500000Y-84087500D03*
%TD*%
D11*
%TO.C,C24*%
X142000000Y-103250000D03*
X142960000Y-103250000D03*
%TD*%
D12*
%TO.C,C3*%
X144541118Y-99175483D03*
X144541118Y-100135483D03*
%TD*%
D13*
%TO.C,R15*%
X137250000Y-83009999D03*
X137250000Y-81990001D03*
%TD*%
%TO.C,R12*%
X134250000Y-83009999D03*
X134250000Y-81990001D03*
%TD*%
D14*
%TO.C,U1*%
X138087500Y-95550000D03*
D15*
X137362500Y-95550000D03*
D14*
X136637500Y-95550000D03*
D15*
X135912500Y-95550000D03*
D16*
X138087500Y-96275000D03*
D17*
X137362500Y-96275000D03*
D16*
X136637500Y-96275000D03*
D17*
X135912500Y-96275000D03*
D14*
X138087500Y-97000000D03*
D15*
X137362500Y-97000000D03*
D14*
X136637500Y-97000000D03*
D15*
X135912500Y-97000000D03*
D16*
X138087500Y-97725000D03*
D17*
X137362500Y-97725000D03*
D16*
X136637500Y-97725000D03*
D17*
X135912500Y-97725000D03*
D18*
X140800000Y-91687500D03*
X140400000Y-91687499D03*
X140000000Y-91687500D03*
X139600000Y-91687500D03*
X139199999Y-91687500D03*
X138800000Y-91687500D03*
X138400000Y-91687500D03*
X138000000Y-91687500D03*
X137600001Y-91687500D03*
X137200000Y-91687500D03*
X136800000Y-91687500D03*
X136399999Y-91687500D03*
X136000000Y-91687500D03*
X135600000Y-91687500D03*
X135200000Y-91687500D03*
X134800001Y-91687500D03*
X134400000Y-91687500D03*
X134000000Y-91687500D03*
X133600000Y-91687499D03*
X133200000Y-91687500D03*
D19*
X132050000Y-92837500D03*
X132049999Y-93237500D03*
X132050000Y-93637500D03*
X132050000Y-94037500D03*
X132050000Y-94437501D03*
X132050000Y-94837500D03*
X132050000Y-95237500D03*
X132050000Y-95637500D03*
X132050000Y-96037499D03*
X132050000Y-96437500D03*
X132050000Y-96837500D03*
X132050000Y-97237501D03*
X132050000Y-97637500D03*
X132050000Y-98037500D03*
X132050000Y-98437500D03*
X132050000Y-98837499D03*
X132050000Y-99237500D03*
X132050000Y-99637500D03*
X132049999Y-100037500D03*
X132050000Y-100437500D03*
D18*
X133200000Y-101587500D03*
X133600000Y-101587501D03*
X134000000Y-101587500D03*
X134400000Y-101587500D03*
X134800001Y-101587500D03*
X135200000Y-101587500D03*
X135600000Y-101587500D03*
X136000000Y-101587500D03*
X136399999Y-101587500D03*
X136800000Y-101587500D03*
X137200000Y-101587500D03*
X137600001Y-101587500D03*
X138000000Y-101587500D03*
X138400000Y-101587500D03*
X138800000Y-101587500D03*
X139199999Y-101587500D03*
X139600000Y-101587500D03*
X140000000Y-101587500D03*
X140400000Y-101587501D03*
X140800000Y-101587500D03*
D19*
X141950000Y-100437500D03*
X141950001Y-100037500D03*
X141950000Y-99637500D03*
X141950000Y-99237500D03*
X141950000Y-98837499D03*
X141950000Y-98437500D03*
X141950000Y-98037500D03*
X141950000Y-97637500D03*
X141950000Y-97237501D03*
X141950000Y-96837500D03*
X141950000Y-96437500D03*
X141950000Y-96037499D03*
X141950000Y-95637500D03*
X141950000Y-95237500D03*
X141950000Y-94837500D03*
X141950000Y-94437501D03*
X141950000Y-94037500D03*
X141950000Y-93637500D03*
X141950001Y-93237500D03*
X141950000Y-92837500D03*
%TD*%
D11*
%TO.C,C15*%
X146020000Y-93250000D03*
X146980000Y-93250000D03*
%TD*%
D13*
%TO.C,R19*%
X141250000Y-83009999D03*
X141250000Y-81990001D03*
%TD*%
D20*
%TO.C,R1*%
X146551117Y-102175483D03*
X145531119Y-102175483D03*
%TD*%
D21*
%TO.C,U3*%
X154650000Y-110300000D03*
X154649999Y-108000000D03*
D22*
X148350001Y-108000000D03*
D21*
X154650000Y-105700000D03*
%TD*%
D12*
%TO.C,C10*%
X156750000Y-108520000D03*
X156750000Y-109480000D03*
%TD*%
D23*
%TO.C,C1*%
X144521118Y-102175483D03*
X143561118Y-102175483D03*
%TD*%
D24*
%TO.C,U2*%
X150405000Y-81400000D03*
X149135000Y-81400000D03*
X147865000Y-81400000D03*
X146595000Y-81400000D03*
X146595000Y-88600000D03*
X147865000Y-88600000D03*
X149135000Y-88600000D03*
X150405000Y-88600000D03*
%TD*%
D25*
%TO.C,R7*%
X145990000Y-96500000D03*
X147010000Y-96500000D03*
%TD*%
D13*
%TO.C,R13*%
X135250000Y-83009999D03*
X135250000Y-81990001D03*
%TD*%
D23*
%TO.C,C22*%
X131480000Y-103000000D03*
X130520000Y-103000000D03*
%TD*%
%TO.C,C21*%
X130230000Y-94000000D03*
X129270000Y-94000000D03*
%TD*%
D11*
%TO.C,C25*%
X141250000Y-104250000D03*
X142210000Y-104250000D03*
%TD*%
D26*
%TO.C,R9*%
X149250000Y-93250000D03*
X149250000Y-94269998D03*
%TD*%
D23*
%TO.C,C20*%
X130230000Y-95500000D03*
X129270000Y-95500000D03*
%TD*%
D27*
%TO.C,C13*%
X138750000Y-89730000D03*
X138750000Y-88770000D03*
%TD*%
D12*
%TO.C,C17*%
X136250000Y-103520000D03*
X136250000Y-104480000D03*
%TD*%
%TO.C,C5*%
X127750000Y-94790000D03*
X127750000Y-95750000D03*
%TD*%
D13*
%TO.C,R18*%
X140250000Y-83009999D03*
X140250000Y-81990001D03*
%TD*%
D28*
%TO.C,J3*%
X135250000Y-78000000D03*
X135750000Y-78000000D03*
X136250000Y-77999999D03*
X136750000Y-78000000D03*
X137250000Y-78000000D03*
X137750000Y-78000000D03*
X138250000Y-78000000D03*
X138750000Y-77999999D03*
X139250000Y-78000000D03*
X139750000Y-78000000D03*
X140250000Y-78000000D03*
X140750000Y-78000000D03*
X141250000Y-77999999D03*
X141750000Y-78000000D03*
X142250000Y-78000000D03*
X142750000Y-78000000D03*
X143250000Y-78000000D03*
X143750000Y-77999999D03*
X144250000Y-78000000D03*
%TD*%
D13*
%TO.C,R16*%
X138250000Y-83009999D03*
X138250000Y-81990001D03*
%TD*%
D12*
%TO.C,C8*%
X156750000Y-105770000D03*
X156750000Y-106730000D03*
%TD*%
D13*
%TO.C,R4*%
X126000000Y-81509999D03*
X126000000Y-80490001D03*
%TD*%
D27*
%TO.C,C19*%
X139750000Y-89730000D03*
X139750000Y-88770000D03*
%TD*%
D11*
%TO.C,C14*%
X146020000Y-94250000D03*
X146980000Y-94250000D03*
%TD*%
D20*
%TO.C,R20*%
X143519998Y-86000000D03*
X142500000Y-86000000D03*
%TD*%
%TO.C,R23*%
X130519998Y-105250000D03*
X129500000Y-105250000D03*
%TD*%
D11*
%TO.C,C4*%
X152500000Y-88000000D03*
X153460000Y-88000000D03*
%TD*%
D20*
%TO.C,R22*%
X130519998Y-104250000D03*
X129500000Y-104250000D03*
%TD*%
D27*
%TO.C,C6*%
X127750000Y-97980000D03*
X127750000Y-97020000D03*
%TD*%
D25*
%TO.C,R6*%
X145990000Y-95500000D03*
X147010000Y-95500000D03*
%TD*%
D29*
%TO.C,SW2*%
X121650000Y-84625000D03*
X121650000Y-79375000D03*
X123350000Y-84625000D03*
X123350000Y-79375000D03*
%TD*%
D12*
%TO.C,C11*%
X137250000Y-103520000D03*
X137250000Y-104480000D03*
%TD*%
D20*
%TO.C,R10*%
X153509999Y-89500000D03*
X152490001Y-89500000D03*
%TD*%
D13*
%TO.C,R17*%
X139250000Y-83009999D03*
X139250000Y-81990001D03*
%TD*%
D29*
%TO.C,SW1*%
X157350000Y-79375000D03*
X157350000Y-84625000D03*
X155650000Y-79375000D03*
X155650000Y-84625000D03*
%TD*%
D13*
%TO.C,R8*%
X149250000Y-98259999D03*
X149250000Y-97240001D03*
%TD*%
D30*
%TO.C,J1*%
X151320000Y-99200000D03*
X151320000Y-98400000D03*
D31*
X151320001Y-97250000D03*
X151320000Y-96250000D03*
X151320000Y-95750000D03*
X151320001Y-94750000D03*
D30*
X151320000Y-93600000D03*
X151320000Y-92800000D03*
X151320000Y-92800000D03*
X151320000Y-93600000D03*
D31*
X151320000Y-94250000D03*
X151320000Y-95250000D03*
X151320000Y-96750000D03*
X151320000Y-97750000D03*
D30*
X151320000Y-98400000D03*
X151320000Y-99200000D03*
D32*
X151895000Y-100320000D03*
D33*
X156075000Y-100320000D03*
D32*
X151895000Y-91680000D03*
D33*
X156075000Y-91680000D03*
%TD*%
D13*
%TO.C,R14*%
X136250000Y-83009999D03*
X136250000Y-81990001D03*
%TD*%
D20*
%TO.C,R5*%
X130259999Y-97000000D03*
X129240001Y-97000000D03*
%TD*%
D27*
%TO.C,C16*%
X143250000Y-92480000D03*
X143250000Y-91520000D03*
%TD*%
D23*
%TO.C,C12*%
X130230000Y-98000000D03*
X129270000Y-98000000D03*
%TD*%
D13*
%TO.C,R11*%
X145500000Y-111259999D03*
X145500000Y-110240001D03*
%TD*%
D34*
%TO.C,D2*%
X126850000Y-88450000D03*
X130150000Y-88450000D03*
X130150000Y-83550000D03*
X126850000Y-83550000D03*
%TD*%
D12*
%TO.C,C2*%
X143541118Y-99175483D03*
X143541118Y-100135483D03*
%TD*%
D35*
%TO.C,L1*%
X146541118Y-98175483D03*
X146541118Y-100175483D03*
%TD*%
D27*
%TO.C,C23*%
X143750000Y-81230000D03*
X143750000Y-80270000D03*
%TD*%
D11*
%TO.C,C7*%
X152520000Y-102400000D03*
X153480000Y-102400000D03*
%TD*%
D36*
%TO.C,D1*%
X149387501Y-113250000D03*
X147812499Y-113250000D03*
%TD*%
D11*
%TO.C,C9*%
X151520000Y-103500000D03*
X152480000Y-103500000D03*
%TD*%
D37*
%TO.C,Y1*%
X125850000Y-97000000D03*
X125850000Y-94800000D03*
X124150000Y-94800000D03*
X124150000Y-97000000D03*
%TD*%
D13*
%TO.C,R3*%
X152500000Y-81759999D03*
X152500000Y-80740001D03*
%TD*%
D27*
%TO.C,C18*%
X135500000Y-89730000D03*
X135500000Y-88770000D03*
%TD*%
D20*
%TO.C,R21*%
X143519998Y-85000000D03*
X142500000Y-85000000D03*
%TD*%
M02*
