%TF.GenerationSoftware,KiCad,Pcbnew,8.0.6*%
%TF.CreationDate,2025-04-24T20:36:05+02:00*%
%TF.ProjectId,Picroscope,50696372-6f73-4636-9f70-652e6b696361,rev?*%
%TF.SameCoordinates,Original*%
%TF.FileFunction,Copper,L4,Bot*%
%TF.FilePolarity,Positive*%
%FSLAX46Y46*%
G04 Gerber Fmt 4.6, Leading zero omitted, Abs format (unit mm)*
G04 Created by KiCad (PCBNEW 8.0.6) date 2025-04-24 20:36:05*
%MOMM*%
%LPD*%
G01*
G04 APERTURE LIST*
%TA.AperFunction,HeatsinkPad*%
%ADD10C,0.500000*%
%TD*%
%TA.AperFunction,HeatsinkPad*%
%ADD11R,3.400000X3.400000*%
%TD*%
%TA.AperFunction,ComponentPad*%
%ADD12R,1.700000X1.700000*%
%TD*%
%TA.AperFunction,ComponentPad*%
%ADD13O,1.700000X1.700000*%
%TD*%
%TA.AperFunction,ComponentPad*%
%ADD14C,1.800000*%
%TD*%
%TA.AperFunction,ComponentPad*%
%ADD15O,2.100000X1.000000*%
%TD*%
%TA.AperFunction,ComponentPad*%
%ADD16O,1.800000X1.000000*%
%TD*%
%TA.AperFunction,SMDPad,CuDef*%
%ADD17C,1.000000*%
%TD*%
%TA.AperFunction,ViaPad*%
%ADD18C,0.600000*%
%TD*%
%TA.AperFunction,Conductor*%
%ADD19C,0.500000*%
%TD*%
%TA.AperFunction,Conductor*%
%ADD20C,0.150000*%
%TD*%
G04 APERTURE END LIST*
D10*
%TO.P,U1,81,GND*%
%TO.N,GND*%
X138450000Y-95187500D03*
X137000000Y-95187500D03*
X135550000Y-95187500D03*
X138450000Y-96637500D03*
X137000000Y-96637500D03*
D11*
X137000000Y-96637500D03*
D10*
X135550000Y-96637500D03*
X138450000Y-98087500D03*
X137000000Y-98087500D03*
X135550000Y-98087500D03*
%TD*%
D12*
%TO.P,J4,1,Pin_1*%
%TO.N,+3V3*%
X129300000Y-120625000D03*
D13*
%TO.P,J4,2,Pin_2*%
%TO.N,GND*%
X129300000Y-123165000D03*
%TO.P,J4,3,Pin_3*%
%TO.N,/I2C1_SCL*%
X131840000Y-120625000D03*
%TO.P,J4,4,Pin_4*%
%TO.N,/I2C1_SDA*%
X131840000Y-123165000D03*
%TO.P,J4,5,Pin_5*%
%TO.N,/CAM_VSYNC*%
X134379999Y-120625000D03*
%TO.P,J4,6,Pin_6*%
%TO.N,/CAM_HSYNC*%
X134380000Y-123165000D03*
%TO.P,J4,7,Pin_7*%
%TO.N,/CAM_PCLK*%
X136920000Y-120625000D03*
%TO.P,J4,8,Pin_8*%
%TO.N,/CLKOUT0*%
X136920000Y-123165000D03*
%TO.P,J4,9,Pin_9*%
%TO.N,/CAM_D9*%
X139460000Y-120625000D03*
%TO.P,J4,10,Pin_10*%
%TO.N,/CAM_D8*%
X139460000Y-123165000D03*
%TO.P,J4,11,Pin_11*%
%TO.N,/CAM_D7*%
X142000000Y-120625000D03*
%TO.P,J4,12,Pin_12*%
%TO.N,/CAM_D6*%
X142000000Y-123165000D03*
%TO.P,J4,13,Pin_13*%
%TO.N,/CAM_D5*%
X144540000Y-120625000D03*
%TO.P,J4,14,Pin_14*%
%TO.N,/CAM_D4*%
X144540000Y-123165000D03*
%TO.P,J4,15,Pin_15*%
%TO.N,/CAM_D3*%
X147080001Y-120625000D03*
%TO.P,J4,16,Pin_16*%
%TO.N,/CAM_D2*%
X147080000Y-123165000D03*
%TO.P,J4,17,Pin_17*%
%TO.N,/CAM_Reset*%
X149620000Y-120625000D03*
%TO.P,J4,18,Pin_18*%
%TO.N,/CAM_PWDN*%
X149620000Y-123165000D03*
%TD*%
D14*
%TO.P,J3,SH,SH*%
%TO.N,GND*%
X147850000Y-72100000D03*
X147250000Y-77000000D03*
X132750000Y-77000000D03*
X132150000Y-72100000D03*
%TD*%
D15*
%TO.P,J1,S1,SHIELD*%
%TO.N,/USB_SHIELD*%
X151895000Y-100320000D03*
D16*
X156075000Y-100320000D03*
D15*
X151895000Y-91680000D03*
D16*
X156075000Y-91680000D03*
%TD*%
D12*
%TO.P,J2,1,Pin_1*%
%TO.N,/MCU/SWDIO*%
X123975000Y-108540000D03*
D13*
%TO.P,J2,2,Pin_2*%
%TO.N,GND*%
X123975000Y-106000000D03*
%TO.P,J2,3,Pin_3*%
%TO.N,/MCU/SWDCLK*%
X123975000Y-103460001D03*
%TD*%
D17*
%TO.P,TP8,1,1*%
%TO.N,+3V3*%
X151750000Y-108000000D03*
%TD*%
%TO.P,TP2,1,1*%
%TO.N,/MCU/SPI_CS*%
X150750000Y-84000000D03*
%TD*%
%TO.P,TP3,1,1*%
%TO.N,/MCU/SPI_SCLK*%
X149135000Y-85750000D03*
%TD*%
%TO.P,TP4,1,1*%
%TO.N,/MCU/SPI_SD0*%
X147500000Y-87000000D03*
%TD*%
%TO.P,TP6,1,1*%
%TO.N,/MCU/SPI_SD2*%
X147500000Y-84000000D03*
%TD*%
%TO.P,TP7,1,1*%
%TO.N,/MCU/SPI_SD3*%
X150750000Y-87000000D03*
%TD*%
%TO.P,TP10,1,1*%
%TO.N,/USB_CC2*%
X154000000Y-93750000D03*
%TD*%
%TO.P,TP1,1,1*%
%TO.N,+1V1*%
X143250000Y-98000000D03*
%TD*%
%TO.P,TP9,1,1*%
%TO.N,/USB_CC1*%
X154000000Y-98000000D03*
%TD*%
%TO.P,TP5,1,1*%
%TO.N,/MCU/SPI_SD1*%
X149135000Y-82750000D03*
%TD*%
D18*
%TO.N,GND*%
X134000000Y-130001750D03*
X146000000Y-72001750D03*
X138000000Y-130001750D03*
X154000000Y-124001750D03*
X147750000Y-93250000D03*
X156000000Y-112001750D03*
X143000000Y-104250000D03*
X152000000Y-72001750D03*
X144000000Y-72001750D03*
X126000000Y-130001750D03*
X134000000Y-128001750D03*
X152000000Y-122001750D03*
X152000000Y-118001750D03*
X137250000Y-105250000D03*
X124000000Y-112001750D03*
X129270000Y-94750000D03*
X122250000Y-80750000D03*
X122000000Y-106001750D03*
X124000000Y-122001750D03*
X148750000Y-99250000D03*
X142000000Y-130001750D03*
X135500000Y-88000000D03*
X126000000Y-126001750D03*
X136250000Y-105250000D03*
X126000000Y-86001750D03*
X156000000Y-104001750D03*
X156000000Y-76001750D03*
X136000000Y-72001750D03*
X150000000Y-116001750D03*
X147750000Y-94250000D03*
X156000000Y-128001750D03*
X130520000Y-102150000D03*
X154000000Y-78001750D03*
X122000000Y-100001750D03*
X148000000Y-128001750D03*
X156000000Y-118001750D03*
X143750000Y-82000000D03*
X122000000Y-92001750D03*
X128000000Y-128001750D03*
X122000000Y-122001750D03*
X156000000Y-120001750D03*
X150000000Y-128001750D03*
X124000000Y-118001750D03*
X130000000Y-90001750D03*
X128000000Y-92001750D03*
X126000000Y-90001750D03*
X122000000Y-98001750D03*
X122000000Y-104001750D03*
X142000000Y-128001750D03*
X124000000Y-100001750D03*
X146000000Y-130001750D03*
X144000000Y-90750000D03*
X124150000Y-98250000D03*
X150000000Y-72001750D03*
X132000000Y-84001750D03*
X124000000Y-120001750D03*
X128000000Y-74001750D03*
X148000000Y-126001750D03*
X152000000Y-112001750D03*
X128000000Y-90001750D03*
X126000000Y-78001750D03*
X122000000Y-114001750D03*
X154000000Y-122001750D03*
X122000000Y-76001750D03*
X150000000Y-126001750D03*
X143250000Y-76500000D03*
X122000000Y-74001750D03*
X134000000Y-126001750D03*
X130000000Y-128001750D03*
X148750000Y-92250000D03*
X150000000Y-130001750D03*
X122000000Y-72001750D03*
X154000000Y-96001750D03*
X154250000Y-88000000D03*
X154250000Y-102400000D03*
X124000000Y-128001750D03*
X127750000Y-98750000D03*
X156000000Y-130001750D03*
X156750000Y-83250000D03*
X125850000Y-93500000D03*
X154000000Y-128001750D03*
X142000000Y-72001750D03*
X127000000Y-94800000D03*
X124000000Y-88001750D03*
X128000000Y-126001750D03*
X132000000Y-82001750D03*
X136000000Y-126001750D03*
X122000000Y-88001750D03*
X122000000Y-96001750D03*
X122000000Y-120001750D03*
X144636805Y-100917666D03*
X126000000Y-122001750D03*
X122000000Y-116001750D03*
X136000000Y-130001750D03*
X148000000Y-130001750D03*
X126000000Y-118001750D03*
X152000000Y-120001750D03*
X152000000Y-76001750D03*
X140250000Y-76500000D03*
X130000000Y-130001750D03*
X137250000Y-76500000D03*
X152000000Y-130001750D03*
X128500000Y-94000000D03*
X138000000Y-72001750D03*
X126000000Y-128001750D03*
X142000000Y-126001750D03*
X156000000Y-72001750D03*
X122000000Y-118001750D03*
X138000000Y-128001750D03*
X154000000Y-130001750D03*
X134000000Y-80001750D03*
X156000000Y-102001750D03*
X124000000Y-90001750D03*
X154250000Y-89500000D03*
X140000000Y-126001750D03*
X128000000Y-76001750D03*
X124000000Y-124001750D03*
X122250000Y-83250000D03*
X144036804Y-100917664D03*
X152000000Y-124001750D03*
X126000000Y-92001750D03*
X156750000Y-80750000D03*
X132000000Y-126001750D03*
X146595000Y-80000000D03*
X124000000Y-92001750D03*
X126000000Y-120001750D03*
X122000000Y-108001750D03*
X126000000Y-112001750D03*
X152000000Y-128001750D03*
X126000000Y-110001750D03*
X128000000Y-72001750D03*
X136000000Y-128001750D03*
X126000000Y-124001750D03*
X140000000Y-128001750D03*
X143750000Y-103250000D03*
X124000000Y-130001750D03*
X135750000Y-76500000D03*
X153300000Y-103500000D03*
X130000000Y-126001750D03*
X128000000Y-130001750D03*
X148750000Y-100500000D03*
X129250000Y-98750000D03*
X156300000Y-110300000D03*
X144000000Y-128001750D03*
X144000000Y-126001750D03*
X156000000Y-124001750D03*
X122000000Y-112001750D03*
X154000000Y-112001750D03*
X144000000Y-130001750D03*
X156750000Y-107500000D03*
X129250000Y-88500000D03*
X138750000Y-76500000D03*
X138000000Y-126001750D03*
X150000000Y-74001750D03*
X122000000Y-90001750D03*
X152000000Y-126001750D03*
X122000000Y-130001750D03*
X139250000Y-87500000D03*
X156000000Y-126001750D03*
X124000000Y-126001750D03*
X122000000Y-124001750D03*
X122000000Y-110001750D03*
X140000000Y-72001750D03*
X130000000Y-80001750D03*
X154000000Y-126001750D03*
X146000000Y-126001750D03*
X142750000Y-102175483D03*
X122000000Y-126001750D03*
X132000000Y-128001750D03*
X132000000Y-130001750D03*
X122000000Y-102001750D03*
X132000000Y-80001750D03*
X122000000Y-128001750D03*
X154000000Y-120001750D03*
X156000000Y-88001750D03*
X122000000Y-94001750D03*
X150500000Y-113250000D03*
X130000000Y-74001750D03*
X130000000Y-72001750D03*
X156000000Y-122001750D03*
X146000000Y-128001750D03*
X156000000Y-90001750D03*
X140000000Y-130001750D03*
X134000000Y-72001750D03*
X154000000Y-118001750D03*
%TO.N,+3V3*%
X139200000Y-92750000D03*
X133000000Y-96037499D03*
X140750000Y-99237500D03*
X132400000Y-102250000D03*
X133000000Y-94037500D03*
X151750000Y-108000000D03*
X140750000Y-103200000D03*
X136700000Y-102800000D03*
X143519998Y-84000000D03*
%TO.N,+1V1*%
X145171499Y-98251040D03*
X144571500Y-98251040D03*
X137200000Y-100500000D03*
X137200000Y-92750000D03*
X134250000Y-97250000D03*
%TO.N,VBUS*%
X151520000Y-102520000D03*
X150200000Y-98400000D03*
X145250000Y-75000000D03*
X150200000Y-93600000D03*
%TO.N,/USB_CC2*%
X154000000Y-93750000D03*
%TO.N,/USB_CC1*%
X154000000Y-98000000D03*
%TO.N,/CLKOUT0*%
X129750000Y-92837500D03*
%TO.N,/MCU/SPI_CS*%
X150750000Y-84000000D03*
X143000000Y-94500000D03*
%TO.N,/MCU/RUN*%
X126000000Y-79750000D03*
X133750000Y-99250000D03*
%TO.N,/MCU/SPI_SCLK*%
X149135000Y-85750000D03*
%TO.N,/MCU/SPI_SD0*%
X147500000Y-87000000D03*
%TO.N,/MCU/SPI_SD1*%
X149135000Y-82750000D03*
X140000000Y-95000000D03*
%TO.N,/MCU/SPI_SD2*%
X140000000Y-96000000D03*
X147500000Y-84000000D03*
%TO.N,/MCU/SPI_SD3*%
X150750000Y-87000000D03*
%TD*%
D19*
%TO.N,+3V3*%
X136750000Y-102750000D02*
X136700000Y-102800000D01*
X139200000Y-88569998D02*
X143519998Y-84250000D01*
X132400000Y-102250000D02*
X133000000Y-101650000D01*
X140750000Y-103200000D02*
X140300000Y-102750000D01*
X140300000Y-102750000D02*
X140300000Y-99687500D01*
X129800000Y-104850000D02*
X129800000Y-120625000D01*
X133000000Y-101650000D02*
X133000000Y-94037500D01*
X132950000Y-102800000D02*
X136700000Y-102800000D01*
X132400000Y-102250000D02*
X132950000Y-102800000D01*
X140300000Y-99687500D02*
X140750000Y-99237500D01*
X139200000Y-88569998D02*
X139200000Y-92750000D01*
X143519998Y-84250000D02*
X143519998Y-84000000D01*
X132400000Y-102250000D02*
X129800000Y-104850000D01*
X140300000Y-102750000D02*
X136750000Y-102750000D01*
%TO.N,+1V1*%
X134250000Y-97250000D02*
X134250000Y-95250000D01*
X136750000Y-92750000D02*
X137200000Y-92750000D01*
X138000000Y-100500000D02*
X137200000Y-100500000D01*
X140248960Y-98251040D02*
X138000000Y-100500000D01*
X136500000Y-100500000D02*
X137200000Y-100500000D01*
X134250000Y-95250000D02*
X136750000Y-92750000D01*
X134250000Y-98250000D02*
X136500000Y-100500000D01*
X145171499Y-98251040D02*
X140248960Y-98251040D01*
X134250000Y-97250000D02*
X134250000Y-98250000D01*
%TO.N,VBUS*%
X152500000Y-88500000D02*
X152500000Y-80482233D01*
X150200000Y-98400000D02*
X150200000Y-93600000D01*
X147017767Y-75000000D02*
X145250000Y-75000000D01*
X150200000Y-90800000D02*
X152500000Y-88500000D01*
X151520000Y-102520000D02*
X150200000Y-101200000D01*
X150200000Y-101200000D02*
X150200000Y-98400000D01*
X150200000Y-93600000D02*
X150200000Y-90800000D01*
X152500000Y-80482233D02*
X147017767Y-75000000D01*
D20*
%TO.N,/CLKOUT0*%
X129750000Y-124750000D02*
X128000000Y-123000000D01*
X128000000Y-99250000D02*
X129750000Y-97500000D01*
X135835000Y-124750000D02*
X129750000Y-124750000D01*
X129750000Y-97500000D02*
X129750000Y-92837500D01*
X128000000Y-123000000D02*
X128000000Y-99250000D01*
X137420000Y-123165000D02*
X135835000Y-124750000D01*
%TO.N,/MCU/SPI_CS*%
X149000000Y-84000000D02*
X143000000Y-90000000D01*
X143000000Y-90000000D02*
X143000000Y-94500000D01*
X150750000Y-84000000D02*
X149000000Y-84000000D01*
%TO.N,/MCU/RUN*%
X133750000Y-91000000D02*
X133750000Y-99250000D01*
X126000000Y-83250000D02*
X133750000Y-91000000D01*
X126000000Y-79750000D02*
X126000000Y-83250000D01*
%TO.N,/MCU/SPI_SD1*%
X140500000Y-89000000D02*
X146750000Y-82750000D01*
X146750000Y-82750000D02*
X149135000Y-82750000D01*
X140500000Y-94500000D02*
X140500000Y-89000000D01*
X140000000Y-95000000D02*
X140500000Y-94500000D01*
%TO.N,/MCU/SPI_SD2*%
X141750000Y-94750000D02*
X141750000Y-89750000D01*
X141750000Y-89750000D02*
X147500000Y-84000000D01*
X140500000Y-96000000D02*
X141750000Y-94750000D01*
X140000000Y-96000000D02*
X140500000Y-96000000D01*
%TD*%
M02*
