%TF.GenerationSoftware,KiCad,Pcbnew,8.0.6*%
%TF.CreationDate,2025-04-24T20:36:05+02:00*%
%TF.ProjectId,Picroscope,50696372-6f73-4636-9f70-652e6b696361,rev?*%
%TF.SameCoordinates,Original*%
%TF.FileFunction,Legend,Top*%
%TF.FilePolarity,Positive*%
%FSLAX46Y46*%
G04 Gerber Fmt 4.6, Leading zero omitted, Abs format (unit mm)*
G04 Created by KiCad (PCBNEW 8.0.6) date 2025-04-24 20:36:05*
%MOMM*%
%LPD*%
G01*
G04 APERTURE LIST*
%ADD10C,0.100000*%
%ADD11C,0.150000*%
%ADD12C,0.200000*%
%ADD13C,0.120000*%
%ADD14C,0.300000*%
G04 APERTURE END LIST*
D10*
X145000000Y-95250000D02*
X145500000Y-96500000D01*
X154500000Y-86750000D02*
X153500000Y-85000000D01*
X145500000Y-95500000D02*
X145000000Y-94000000D01*
D11*
X155333333Y-87204819D02*
X155000000Y-86728628D01*
X154761905Y-87204819D02*
X154761905Y-86204819D01*
X154761905Y-86204819D02*
X155142857Y-86204819D01*
X155142857Y-86204819D02*
X155238095Y-86252438D01*
X155238095Y-86252438D02*
X155285714Y-86300057D01*
X155285714Y-86300057D02*
X155333333Y-86395295D01*
X155333333Y-86395295D02*
X155333333Y-86538152D01*
X155333333Y-86538152D02*
X155285714Y-86633390D01*
X155285714Y-86633390D02*
X155238095Y-86681009D01*
X155238095Y-86681009D02*
X155142857Y-86728628D01*
X155142857Y-86728628D02*
X154761905Y-86728628D01*
X155714286Y-86300057D02*
X155761905Y-86252438D01*
X155761905Y-86252438D02*
X155857143Y-86204819D01*
X155857143Y-86204819D02*
X156095238Y-86204819D01*
X156095238Y-86204819D02*
X156190476Y-86252438D01*
X156190476Y-86252438D02*
X156238095Y-86300057D01*
X156238095Y-86300057D02*
X156285714Y-86395295D01*
X156285714Y-86395295D02*
X156285714Y-86490533D01*
X156285714Y-86490533D02*
X156238095Y-86633390D01*
X156238095Y-86633390D02*
X155666667Y-87204819D01*
X155666667Y-87204819D02*
X156285714Y-87204819D01*
X138607142Y-103359580D02*
X138559523Y-103407200D01*
X138559523Y-103407200D02*
X138416666Y-103454819D01*
X138416666Y-103454819D02*
X138321428Y-103454819D01*
X138321428Y-103454819D02*
X138178571Y-103407200D01*
X138178571Y-103407200D02*
X138083333Y-103311961D01*
X138083333Y-103311961D02*
X138035714Y-103216723D01*
X138035714Y-103216723D02*
X137988095Y-103026247D01*
X137988095Y-103026247D02*
X137988095Y-102883390D01*
X137988095Y-102883390D02*
X138035714Y-102692914D01*
X138035714Y-102692914D02*
X138083333Y-102597676D01*
X138083333Y-102597676D02*
X138178571Y-102502438D01*
X138178571Y-102502438D02*
X138321428Y-102454819D01*
X138321428Y-102454819D02*
X138416666Y-102454819D01*
X138416666Y-102454819D02*
X138559523Y-102502438D01*
X138559523Y-102502438D02*
X138607142Y-102550057D01*
X138988095Y-102550057D02*
X139035714Y-102502438D01*
X139035714Y-102502438D02*
X139130952Y-102454819D01*
X139130952Y-102454819D02*
X139369047Y-102454819D01*
X139369047Y-102454819D02*
X139464285Y-102502438D01*
X139464285Y-102502438D02*
X139511904Y-102550057D01*
X139511904Y-102550057D02*
X139559523Y-102645295D01*
X139559523Y-102645295D02*
X139559523Y-102740533D01*
X139559523Y-102740533D02*
X139511904Y-102883390D01*
X139511904Y-102883390D02*
X138940476Y-103454819D01*
X138940476Y-103454819D02*
X139559523Y-103454819D01*
X140416666Y-102788152D02*
X140416666Y-103454819D01*
X140178571Y-102407200D02*
X139940476Y-103121485D01*
X139940476Y-103121485D02*
X140559523Y-103121485D01*
X145109580Y-97416666D02*
X145157200Y-97464285D01*
X145157200Y-97464285D02*
X145204819Y-97607142D01*
X145204819Y-97607142D02*
X145204819Y-97702380D01*
X145204819Y-97702380D02*
X145157200Y-97845237D01*
X145157200Y-97845237D02*
X145061961Y-97940475D01*
X145061961Y-97940475D02*
X144966723Y-97988094D01*
X144966723Y-97988094D02*
X144776247Y-98035713D01*
X144776247Y-98035713D02*
X144633390Y-98035713D01*
X144633390Y-98035713D02*
X144442914Y-97988094D01*
X144442914Y-97988094D02*
X144347676Y-97940475D01*
X144347676Y-97940475D02*
X144252438Y-97845237D01*
X144252438Y-97845237D02*
X144204819Y-97702380D01*
X144204819Y-97702380D02*
X144204819Y-97607142D01*
X144204819Y-97607142D02*
X144252438Y-97464285D01*
X144252438Y-97464285D02*
X144300057Y-97416666D01*
X144204819Y-97083332D02*
X144204819Y-96464285D01*
X144204819Y-96464285D02*
X144585771Y-96797618D01*
X144585771Y-96797618D02*
X144585771Y-96654761D01*
X144585771Y-96654761D02*
X144633390Y-96559523D01*
X144633390Y-96559523D02*
X144681009Y-96511904D01*
X144681009Y-96511904D02*
X144776247Y-96464285D01*
X144776247Y-96464285D02*
X145014342Y-96464285D01*
X145014342Y-96464285D02*
X145109580Y-96511904D01*
X145109580Y-96511904D02*
X145157200Y-96559523D01*
X145157200Y-96559523D02*
X145204819Y-96654761D01*
X145204819Y-96654761D02*
X145204819Y-96940475D01*
X145204819Y-96940475D02*
X145157200Y-97035713D01*
X145157200Y-97035713D02*
X145109580Y-97083332D01*
X136954819Y-85642857D02*
X136478628Y-85976190D01*
X136954819Y-86214285D02*
X135954819Y-86214285D01*
X135954819Y-86214285D02*
X135954819Y-85833333D01*
X135954819Y-85833333D02*
X136002438Y-85738095D01*
X136002438Y-85738095D02*
X136050057Y-85690476D01*
X136050057Y-85690476D02*
X136145295Y-85642857D01*
X136145295Y-85642857D02*
X136288152Y-85642857D01*
X136288152Y-85642857D02*
X136383390Y-85690476D01*
X136383390Y-85690476D02*
X136431009Y-85738095D01*
X136431009Y-85738095D02*
X136478628Y-85833333D01*
X136478628Y-85833333D02*
X136478628Y-86214285D01*
X136954819Y-84690476D02*
X136954819Y-85261904D01*
X136954819Y-84976190D02*
X135954819Y-84976190D01*
X135954819Y-84976190D02*
X136097676Y-85071428D01*
X136097676Y-85071428D02*
X136192914Y-85166666D01*
X136192914Y-85166666D02*
X136240533Y-85261904D01*
X135954819Y-83785714D02*
X135954819Y-84261904D01*
X135954819Y-84261904D02*
X136431009Y-84309523D01*
X136431009Y-84309523D02*
X136383390Y-84261904D01*
X136383390Y-84261904D02*
X136335771Y-84166666D01*
X136335771Y-84166666D02*
X136335771Y-83928571D01*
X136335771Y-83928571D02*
X136383390Y-83833333D01*
X136383390Y-83833333D02*
X136431009Y-83785714D01*
X136431009Y-83785714D02*
X136526247Y-83738095D01*
X136526247Y-83738095D02*
X136764342Y-83738095D01*
X136764342Y-83738095D02*
X136859580Y-83785714D01*
X136859580Y-83785714D02*
X136907200Y-83833333D01*
X136907200Y-83833333D02*
X136954819Y-83928571D01*
X136954819Y-83928571D02*
X136954819Y-84166666D01*
X136954819Y-84166666D02*
X136907200Y-84261904D01*
X136907200Y-84261904D02*
X136859580Y-84309523D01*
X133204819Y-85642857D02*
X132728628Y-85976190D01*
X133204819Y-86214285D02*
X132204819Y-86214285D01*
X132204819Y-86214285D02*
X132204819Y-85833333D01*
X132204819Y-85833333D02*
X132252438Y-85738095D01*
X132252438Y-85738095D02*
X132300057Y-85690476D01*
X132300057Y-85690476D02*
X132395295Y-85642857D01*
X132395295Y-85642857D02*
X132538152Y-85642857D01*
X132538152Y-85642857D02*
X132633390Y-85690476D01*
X132633390Y-85690476D02*
X132681009Y-85738095D01*
X132681009Y-85738095D02*
X132728628Y-85833333D01*
X132728628Y-85833333D02*
X132728628Y-86214285D01*
X133204819Y-84690476D02*
X133204819Y-85261904D01*
X133204819Y-84976190D02*
X132204819Y-84976190D01*
X132204819Y-84976190D02*
X132347676Y-85071428D01*
X132347676Y-85071428D02*
X132442914Y-85166666D01*
X132442914Y-85166666D02*
X132490533Y-85261904D01*
X132300057Y-84309523D02*
X132252438Y-84261904D01*
X132252438Y-84261904D02*
X132204819Y-84166666D01*
X132204819Y-84166666D02*
X132204819Y-83928571D01*
X132204819Y-83928571D02*
X132252438Y-83833333D01*
X132252438Y-83833333D02*
X132300057Y-83785714D01*
X132300057Y-83785714D02*
X132395295Y-83738095D01*
X132395295Y-83738095D02*
X132490533Y-83738095D01*
X132490533Y-83738095D02*
X132633390Y-83785714D01*
X132633390Y-83785714D02*
X133204819Y-84357142D01*
X133204819Y-84357142D02*
X133204819Y-83738095D01*
X131738095Y-89704819D02*
X131738095Y-90514342D01*
X131738095Y-90514342D02*
X131785714Y-90609580D01*
X131785714Y-90609580D02*
X131833333Y-90657200D01*
X131833333Y-90657200D02*
X131928571Y-90704819D01*
X131928571Y-90704819D02*
X132119047Y-90704819D01*
X132119047Y-90704819D02*
X132214285Y-90657200D01*
X132214285Y-90657200D02*
X132261904Y-90609580D01*
X132261904Y-90609580D02*
X132309523Y-90514342D01*
X132309523Y-90514342D02*
X132309523Y-89704819D01*
X133309523Y-90704819D02*
X132738095Y-90704819D01*
X133023809Y-90704819D02*
X133023809Y-89704819D01*
X133023809Y-89704819D02*
X132928571Y-89847676D01*
X132928571Y-89847676D02*
X132833333Y-89942914D01*
X132833333Y-89942914D02*
X132738095Y-89990533D01*
X145857142Y-91109580D02*
X145809523Y-91157200D01*
X145809523Y-91157200D02*
X145666666Y-91204819D01*
X145666666Y-91204819D02*
X145571428Y-91204819D01*
X145571428Y-91204819D02*
X145428571Y-91157200D01*
X145428571Y-91157200D02*
X145333333Y-91061961D01*
X145333333Y-91061961D02*
X145285714Y-90966723D01*
X145285714Y-90966723D02*
X145238095Y-90776247D01*
X145238095Y-90776247D02*
X145238095Y-90633390D01*
X145238095Y-90633390D02*
X145285714Y-90442914D01*
X145285714Y-90442914D02*
X145333333Y-90347676D01*
X145333333Y-90347676D02*
X145428571Y-90252438D01*
X145428571Y-90252438D02*
X145571428Y-90204819D01*
X145571428Y-90204819D02*
X145666666Y-90204819D01*
X145666666Y-90204819D02*
X145809523Y-90252438D01*
X145809523Y-90252438D02*
X145857142Y-90300057D01*
X146809523Y-91204819D02*
X146238095Y-91204819D01*
X146523809Y-91204819D02*
X146523809Y-90204819D01*
X146523809Y-90204819D02*
X146428571Y-90347676D01*
X146428571Y-90347676D02*
X146333333Y-90442914D01*
X146333333Y-90442914D02*
X146238095Y-90490533D01*
X147714285Y-90204819D02*
X147238095Y-90204819D01*
X147238095Y-90204819D02*
X147190476Y-90681009D01*
X147190476Y-90681009D02*
X147238095Y-90633390D01*
X147238095Y-90633390D02*
X147333333Y-90585771D01*
X147333333Y-90585771D02*
X147571428Y-90585771D01*
X147571428Y-90585771D02*
X147666666Y-90633390D01*
X147666666Y-90633390D02*
X147714285Y-90681009D01*
X147714285Y-90681009D02*
X147761904Y-90776247D01*
X147761904Y-90776247D02*
X147761904Y-91014342D01*
X147761904Y-91014342D02*
X147714285Y-91109580D01*
X147714285Y-91109580D02*
X147666666Y-91157200D01*
X147666666Y-91157200D02*
X147571428Y-91204819D01*
X147571428Y-91204819D02*
X147333333Y-91204819D01*
X147333333Y-91204819D02*
X147238095Y-91157200D01*
X147238095Y-91157200D02*
X147190476Y-91109580D01*
X141954819Y-85642857D02*
X141478628Y-85976190D01*
X141954819Y-86214285D02*
X140954819Y-86214285D01*
X140954819Y-86214285D02*
X140954819Y-85833333D01*
X140954819Y-85833333D02*
X141002438Y-85738095D01*
X141002438Y-85738095D02*
X141050057Y-85690476D01*
X141050057Y-85690476D02*
X141145295Y-85642857D01*
X141145295Y-85642857D02*
X141288152Y-85642857D01*
X141288152Y-85642857D02*
X141383390Y-85690476D01*
X141383390Y-85690476D02*
X141431009Y-85738095D01*
X141431009Y-85738095D02*
X141478628Y-85833333D01*
X141478628Y-85833333D02*
X141478628Y-86214285D01*
X141954819Y-84690476D02*
X141954819Y-85261904D01*
X141954819Y-84976190D02*
X140954819Y-84976190D01*
X140954819Y-84976190D02*
X141097676Y-85071428D01*
X141097676Y-85071428D02*
X141192914Y-85166666D01*
X141192914Y-85166666D02*
X141240533Y-85261904D01*
X141954819Y-84214285D02*
X141954819Y-84023809D01*
X141954819Y-84023809D02*
X141907200Y-83928571D01*
X141907200Y-83928571D02*
X141859580Y-83880952D01*
X141859580Y-83880952D02*
X141716723Y-83785714D01*
X141716723Y-83785714D02*
X141526247Y-83738095D01*
X141526247Y-83738095D02*
X141145295Y-83738095D01*
X141145295Y-83738095D02*
X141050057Y-83785714D01*
X141050057Y-83785714D02*
X141002438Y-83833333D01*
X141002438Y-83833333D02*
X140954819Y-83928571D01*
X140954819Y-83928571D02*
X140954819Y-84119047D01*
X140954819Y-84119047D02*
X141002438Y-84214285D01*
X141002438Y-84214285D02*
X141050057Y-84261904D01*
X141050057Y-84261904D02*
X141145295Y-84309523D01*
X141145295Y-84309523D02*
X141383390Y-84309523D01*
X141383390Y-84309523D02*
X141478628Y-84261904D01*
X141478628Y-84261904D02*
X141526247Y-84214285D01*
X141526247Y-84214285D02*
X141573866Y-84119047D01*
X141573866Y-84119047D02*
X141573866Y-83928571D01*
X141573866Y-83928571D02*
X141526247Y-83833333D01*
X141526247Y-83833333D02*
X141478628Y-83785714D01*
X141478628Y-83785714D02*
X141383390Y-83738095D01*
X146833333Y-103954819D02*
X146500000Y-103478628D01*
X146261905Y-103954819D02*
X146261905Y-102954819D01*
X146261905Y-102954819D02*
X146642857Y-102954819D01*
X146642857Y-102954819D02*
X146738095Y-103002438D01*
X146738095Y-103002438D02*
X146785714Y-103050057D01*
X146785714Y-103050057D02*
X146833333Y-103145295D01*
X146833333Y-103145295D02*
X146833333Y-103288152D01*
X146833333Y-103288152D02*
X146785714Y-103383390D01*
X146785714Y-103383390D02*
X146738095Y-103431009D01*
X146738095Y-103431009D02*
X146642857Y-103478628D01*
X146642857Y-103478628D02*
X146261905Y-103478628D01*
X147785714Y-103954819D02*
X147214286Y-103954819D01*
X147500000Y-103954819D02*
X147500000Y-102954819D01*
X147500000Y-102954819D02*
X147404762Y-103097676D01*
X147404762Y-103097676D02*
X147309524Y-103192914D01*
X147309524Y-103192914D02*
X147214286Y-103240533D01*
X145704819Y-108761904D02*
X146514342Y-108761904D01*
X146514342Y-108761904D02*
X146609580Y-108714285D01*
X146609580Y-108714285D02*
X146657200Y-108666666D01*
X146657200Y-108666666D02*
X146704819Y-108571428D01*
X146704819Y-108571428D02*
X146704819Y-108380952D01*
X146704819Y-108380952D02*
X146657200Y-108285714D01*
X146657200Y-108285714D02*
X146609580Y-108238095D01*
X146609580Y-108238095D02*
X146514342Y-108190476D01*
X146514342Y-108190476D02*
X145704819Y-108190476D01*
X145704819Y-107809523D02*
X145704819Y-107190476D01*
X145704819Y-107190476D02*
X146085771Y-107523809D01*
X146085771Y-107523809D02*
X146085771Y-107380952D01*
X146085771Y-107380952D02*
X146133390Y-107285714D01*
X146133390Y-107285714D02*
X146181009Y-107238095D01*
X146181009Y-107238095D02*
X146276247Y-107190476D01*
X146276247Y-107190476D02*
X146514342Y-107190476D01*
X146514342Y-107190476D02*
X146609580Y-107238095D01*
X146609580Y-107238095D02*
X146657200Y-107285714D01*
X146657200Y-107285714D02*
X146704819Y-107380952D01*
X146704819Y-107380952D02*
X146704819Y-107666666D01*
X146704819Y-107666666D02*
X146657200Y-107761904D01*
X146657200Y-107761904D02*
X146609580Y-107809523D01*
X158269580Y-109642857D02*
X158317200Y-109690476D01*
X158317200Y-109690476D02*
X158364819Y-109833333D01*
X158364819Y-109833333D02*
X158364819Y-109928571D01*
X158364819Y-109928571D02*
X158317200Y-110071428D01*
X158317200Y-110071428D02*
X158221961Y-110166666D01*
X158221961Y-110166666D02*
X158126723Y-110214285D01*
X158126723Y-110214285D02*
X157936247Y-110261904D01*
X157936247Y-110261904D02*
X157793390Y-110261904D01*
X157793390Y-110261904D02*
X157602914Y-110214285D01*
X157602914Y-110214285D02*
X157507676Y-110166666D01*
X157507676Y-110166666D02*
X157412438Y-110071428D01*
X157412438Y-110071428D02*
X157364819Y-109928571D01*
X157364819Y-109928571D02*
X157364819Y-109833333D01*
X157364819Y-109833333D02*
X157412438Y-109690476D01*
X157412438Y-109690476D02*
X157460057Y-109642857D01*
X158364819Y-108690476D02*
X158364819Y-109261904D01*
X158364819Y-108976190D02*
X157364819Y-108976190D01*
X157364819Y-108976190D02*
X157507676Y-109071428D01*
X157507676Y-109071428D02*
X157602914Y-109166666D01*
X157602914Y-109166666D02*
X157650533Y-109261904D01*
X157364819Y-108071428D02*
X157364819Y-107976190D01*
X157364819Y-107976190D02*
X157412438Y-107880952D01*
X157412438Y-107880952D02*
X157460057Y-107833333D01*
X157460057Y-107833333D02*
X157555295Y-107785714D01*
X157555295Y-107785714D02*
X157745771Y-107738095D01*
X157745771Y-107738095D02*
X157983866Y-107738095D01*
X157983866Y-107738095D02*
X158174342Y-107785714D01*
X158174342Y-107785714D02*
X158269580Y-107833333D01*
X158269580Y-107833333D02*
X158317200Y-107880952D01*
X158317200Y-107880952D02*
X158364819Y-107976190D01*
X158364819Y-107976190D02*
X158364819Y-108071428D01*
X158364819Y-108071428D02*
X158317200Y-108166666D01*
X158317200Y-108166666D02*
X158269580Y-108214285D01*
X158269580Y-108214285D02*
X158174342Y-108261904D01*
X158174342Y-108261904D02*
X157983866Y-108309523D01*
X157983866Y-108309523D02*
X157745771Y-108309523D01*
X157745771Y-108309523D02*
X157555295Y-108261904D01*
X157555295Y-108261904D02*
X157460057Y-108214285D01*
X157460057Y-108214285D02*
X157412438Y-108166666D01*
X157412438Y-108166666D02*
X157364819Y-108071428D01*
X144833333Y-103859580D02*
X144785714Y-103907200D01*
X144785714Y-103907200D02*
X144642857Y-103954819D01*
X144642857Y-103954819D02*
X144547619Y-103954819D01*
X144547619Y-103954819D02*
X144404762Y-103907200D01*
X144404762Y-103907200D02*
X144309524Y-103811961D01*
X144309524Y-103811961D02*
X144261905Y-103716723D01*
X144261905Y-103716723D02*
X144214286Y-103526247D01*
X144214286Y-103526247D02*
X144214286Y-103383390D01*
X144214286Y-103383390D02*
X144261905Y-103192914D01*
X144261905Y-103192914D02*
X144309524Y-103097676D01*
X144309524Y-103097676D02*
X144404762Y-103002438D01*
X144404762Y-103002438D02*
X144547619Y-102954819D01*
X144547619Y-102954819D02*
X144642857Y-102954819D01*
X144642857Y-102954819D02*
X144785714Y-103002438D01*
X144785714Y-103002438D02*
X144833333Y-103050057D01*
X145785714Y-103954819D02*
X145214286Y-103954819D01*
X145500000Y-103954819D02*
X145500000Y-102954819D01*
X145500000Y-102954819D02*
X145404762Y-103097676D01*
X145404762Y-103097676D02*
X145309524Y-103192914D01*
X145309524Y-103192914D02*
X145214286Y-103240533D01*
X144204819Y-89511904D02*
X145014342Y-89511904D01*
X145014342Y-89511904D02*
X145109580Y-89464285D01*
X145109580Y-89464285D02*
X145157200Y-89416666D01*
X145157200Y-89416666D02*
X145204819Y-89321428D01*
X145204819Y-89321428D02*
X145204819Y-89130952D01*
X145204819Y-89130952D02*
X145157200Y-89035714D01*
X145157200Y-89035714D02*
X145109580Y-88988095D01*
X145109580Y-88988095D02*
X145014342Y-88940476D01*
X145014342Y-88940476D02*
X144204819Y-88940476D01*
X144300057Y-88511904D02*
X144252438Y-88464285D01*
X144252438Y-88464285D02*
X144204819Y-88369047D01*
X144204819Y-88369047D02*
X144204819Y-88130952D01*
X144204819Y-88130952D02*
X144252438Y-88035714D01*
X144252438Y-88035714D02*
X144300057Y-87988095D01*
X144300057Y-87988095D02*
X144395295Y-87940476D01*
X144395295Y-87940476D02*
X144490533Y-87940476D01*
X144490533Y-87940476D02*
X144633390Y-87988095D01*
X144633390Y-87988095D02*
X145204819Y-88559523D01*
X145204819Y-88559523D02*
X145204819Y-87940476D01*
X143833333Y-95704819D02*
X143500000Y-95228628D01*
X143261905Y-95704819D02*
X143261905Y-94704819D01*
X143261905Y-94704819D02*
X143642857Y-94704819D01*
X143642857Y-94704819D02*
X143738095Y-94752438D01*
X143738095Y-94752438D02*
X143785714Y-94800057D01*
X143785714Y-94800057D02*
X143833333Y-94895295D01*
X143833333Y-94895295D02*
X143833333Y-95038152D01*
X143833333Y-95038152D02*
X143785714Y-95133390D01*
X143785714Y-95133390D02*
X143738095Y-95181009D01*
X143738095Y-95181009D02*
X143642857Y-95228628D01*
X143642857Y-95228628D02*
X143261905Y-95228628D01*
X144166667Y-94704819D02*
X144833333Y-94704819D01*
X144833333Y-94704819D02*
X144404762Y-95704819D01*
X134454819Y-85642857D02*
X133978628Y-85976190D01*
X134454819Y-86214285D02*
X133454819Y-86214285D01*
X133454819Y-86214285D02*
X133454819Y-85833333D01*
X133454819Y-85833333D02*
X133502438Y-85738095D01*
X133502438Y-85738095D02*
X133550057Y-85690476D01*
X133550057Y-85690476D02*
X133645295Y-85642857D01*
X133645295Y-85642857D02*
X133788152Y-85642857D01*
X133788152Y-85642857D02*
X133883390Y-85690476D01*
X133883390Y-85690476D02*
X133931009Y-85738095D01*
X133931009Y-85738095D02*
X133978628Y-85833333D01*
X133978628Y-85833333D02*
X133978628Y-86214285D01*
X134454819Y-84690476D02*
X134454819Y-85261904D01*
X134454819Y-84976190D02*
X133454819Y-84976190D01*
X133454819Y-84976190D02*
X133597676Y-85071428D01*
X133597676Y-85071428D02*
X133692914Y-85166666D01*
X133692914Y-85166666D02*
X133740533Y-85261904D01*
X133454819Y-84357142D02*
X133454819Y-83738095D01*
X133454819Y-83738095D02*
X133835771Y-84071428D01*
X133835771Y-84071428D02*
X133835771Y-83928571D01*
X133835771Y-83928571D02*
X133883390Y-83833333D01*
X133883390Y-83833333D02*
X133931009Y-83785714D01*
X133931009Y-83785714D02*
X134026247Y-83738095D01*
X134026247Y-83738095D02*
X134264342Y-83738095D01*
X134264342Y-83738095D02*
X134359580Y-83785714D01*
X134359580Y-83785714D02*
X134407200Y-83833333D01*
X134407200Y-83833333D02*
X134454819Y-83928571D01*
X134454819Y-83928571D02*
X134454819Y-84214285D01*
X134454819Y-84214285D02*
X134407200Y-84309523D01*
X134407200Y-84309523D02*
X134359580Y-84357142D01*
X127857142Y-103109580D02*
X127809523Y-103157200D01*
X127809523Y-103157200D02*
X127666666Y-103204819D01*
X127666666Y-103204819D02*
X127571428Y-103204819D01*
X127571428Y-103204819D02*
X127428571Y-103157200D01*
X127428571Y-103157200D02*
X127333333Y-103061961D01*
X127333333Y-103061961D02*
X127285714Y-102966723D01*
X127285714Y-102966723D02*
X127238095Y-102776247D01*
X127238095Y-102776247D02*
X127238095Y-102633390D01*
X127238095Y-102633390D02*
X127285714Y-102442914D01*
X127285714Y-102442914D02*
X127333333Y-102347676D01*
X127333333Y-102347676D02*
X127428571Y-102252438D01*
X127428571Y-102252438D02*
X127571428Y-102204819D01*
X127571428Y-102204819D02*
X127666666Y-102204819D01*
X127666666Y-102204819D02*
X127809523Y-102252438D01*
X127809523Y-102252438D02*
X127857142Y-102300057D01*
X128238095Y-102300057D02*
X128285714Y-102252438D01*
X128285714Y-102252438D02*
X128380952Y-102204819D01*
X128380952Y-102204819D02*
X128619047Y-102204819D01*
X128619047Y-102204819D02*
X128714285Y-102252438D01*
X128714285Y-102252438D02*
X128761904Y-102300057D01*
X128761904Y-102300057D02*
X128809523Y-102395295D01*
X128809523Y-102395295D02*
X128809523Y-102490533D01*
X128809523Y-102490533D02*
X128761904Y-102633390D01*
X128761904Y-102633390D02*
X128190476Y-103204819D01*
X128190476Y-103204819D02*
X128809523Y-103204819D01*
X129190476Y-102300057D02*
X129238095Y-102252438D01*
X129238095Y-102252438D02*
X129333333Y-102204819D01*
X129333333Y-102204819D02*
X129571428Y-102204819D01*
X129571428Y-102204819D02*
X129666666Y-102252438D01*
X129666666Y-102252438D02*
X129714285Y-102300057D01*
X129714285Y-102300057D02*
X129761904Y-102395295D01*
X129761904Y-102395295D02*
X129761904Y-102490533D01*
X129761904Y-102490533D02*
X129714285Y-102633390D01*
X129714285Y-102633390D02*
X129142857Y-103204819D01*
X129142857Y-103204819D02*
X129761904Y-103204819D01*
X129107142Y-90859580D02*
X129059523Y-90907200D01*
X129059523Y-90907200D02*
X128916666Y-90954819D01*
X128916666Y-90954819D02*
X128821428Y-90954819D01*
X128821428Y-90954819D02*
X128678571Y-90907200D01*
X128678571Y-90907200D02*
X128583333Y-90811961D01*
X128583333Y-90811961D02*
X128535714Y-90716723D01*
X128535714Y-90716723D02*
X128488095Y-90526247D01*
X128488095Y-90526247D02*
X128488095Y-90383390D01*
X128488095Y-90383390D02*
X128535714Y-90192914D01*
X128535714Y-90192914D02*
X128583333Y-90097676D01*
X128583333Y-90097676D02*
X128678571Y-90002438D01*
X128678571Y-90002438D02*
X128821428Y-89954819D01*
X128821428Y-89954819D02*
X128916666Y-89954819D01*
X128916666Y-89954819D02*
X129059523Y-90002438D01*
X129059523Y-90002438D02*
X129107142Y-90050057D01*
X129488095Y-90050057D02*
X129535714Y-90002438D01*
X129535714Y-90002438D02*
X129630952Y-89954819D01*
X129630952Y-89954819D02*
X129869047Y-89954819D01*
X129869047Y-89954819D02*
X129964285Y-90002438D01*
X129964285Y-90002438D02*
X130011904Y-90050057D01*
X130011904Y-90050057D02*
X130059523Y-90145295D01*
X130059523Y-90145295D02*
X130059523Y-90240533D01*
X130059523Y-90240533D02*
X130011904Y-90383390D01*
X130011904Y-90383390D02*
X129440476Y-90954819D01*
X129440476Y-90954819D02*
X130059523Y-90954819D01*
X131011904Y-90954819D02*
X130440476Y-90954819D01*
X130726190Y-90954819D02*
X130726190Y-89954819D01*
X130726190Y-89954819D02*
X130630952Y-90097676D01*
X130630952Y-90097676D02*
X130535714Y-90192914D01*
X130535714Y-90192914D02*
X130440476Y-90240533D01*
X138607142Y-104609580D02*
X138559523Y-104657200D01*
X138559523Y-104657200D02*
X138416666Y-104704819D01*
X138416666Y-104704819D02*
X138321428Y-104704819D01*
X138321428Y-104704819D02*
X138178571Y-104657200D01*
X138178571Y-104657200D02*
X138083333Y-104561961D01*
X138083333Y-104561961D02*
X138035714Y-104466723D01*
X138035714Y-104466723D02*
X137988095Y-104276247D01*
X137988095Y-104276247D02*
X137988095Y-104133390D01*
X137988095Y-104133390D02*
X138035714Y-103942914D01*
X138035714Y-103942914D02*
X138083333Y-103847676D01*
X138083333Y-103847676D02*
X138178571Y-103752438D01*
X138178571Y-103752438D02*
X138321428Y-103704819D01*
X138321428Y-103704819D02*
X138416666Y-103704819D01*
X138416666Y-103704819D02*
X138559523Y-103752438D01*
X138559523Y-103752438D02*
X138607142Y-103800057D01*
X138988095Y-103800057D02*
X139035714Y-103752438D01*
X139035714Y-103752438D02*
X139130952Y-103704819D01*
X139130952Y-103704819D02*
X139369047Y-103704819D01*
X139369047Y-103704819D02*
X139464285Y-103752438D01*
X139464285Y-103752438D02*
X139511904Y-103800057D01*
X139511904Y-103800057D02*
X139559523Y-103895295D01*
X139559523Y-103895295D02*
X139559523Y-103990533D01*
X139559523Y-103990533D02*
X139511904Y-104133390D01*
X139511904Y-104133390D02*
X138940476Y-104704819D01*
X138940476Y-104704819D02*
X139559523Y-104704819D01*
X140464285Y-103704819D02*
X139988095Y-103704819D01*
X139988095Y-103704819D02*
X139940476Y-104181009D01*
X139940476Y-104181009D02*
X139988095Y-104133390D01*
X139988095Y-104133390D02*
X140083333Y-104085771D01*
X140083333Y-104085771D02*
X140321428Y-104085771D01*
X140321428Y-104085771D02*
X140416666Y-104133390D01*
X140416666Y-104133390D02*
X140464285Y-104181009D01*
X140464285Y-104181009D02*
X140511904Y-104276247D01*
X140511904Y-104276247D02*
X140511904Y-104514342D01*
X140511904Y-104514342D02*
X140464285Y-104609580D01*
X140464285Y-104609580D02*
X140416666Y-104657200D01*
X140416666Y-104657200D02*
X140321428Y-104704819D01*
X140321428Y-104704819D02*
X140083333Y-104704819D01*
X140083333Y-104704819D02*
X139988095Y-104657200D01*
X139988095Y-104657200D02*
X139940476Y-104609580D01*
X149704819Y-91416666D02*
X149228628Y-91749999D01*
X149704819Y-91988094D02*
X148704819Y-91988094D01*
X148704819Y-91988094D02*
X148704819Y-91607142D01*
X148704819Y-91607142D02*
X148752438Y-91511904D01*
X148752438Y-91511904D02*
X148800057Y-91464285D01*
X148800057Y-91464285D02*
X148895295Y-91416666D01*
X148895295Y-91416666D02*
X149038152Y-91416666D01*
X149038152Y-91416666D02*
X149133390Y-91464285D01*
X149133390Y-91464285D02*
X149181009Y-91511904D01*
X149181009Y-91511904D02*
X149228628Y-91607142D01*
X149228628Y-91607142D02*
X149228628Y-91988094D01*
X149704819Y-90940475D02*
X149704819Y-90749999D01*
X149704819Y-90749999D02*
X149657200Y-90654761D01*
X149657200Y-90654761D02*
X149609580Y-90607142D01*
X149609580Y-90607142D02*
X149466723Y-90511904D01*
X149466723Y-90511904D02*
X149276247Y-90464285D01*
X149276247Y-90464285D02*
X148895295Y-90464285D01*
X148895295Y-90464285D02*
X148800057Y-90511904D01*
X148800057Y-90511904D02*
X148752438Y-90559523D01*
X148752438Y-90559523D02*
X148704819Y-90654761D01*
X148704819Y-90654761D02*
X148704819Y-90845237D01*
X148704819Y-90845237D02*
X148752438Y-90940475D01*
X148752438Y-90940475D02*
X148800057Y-90988094D01*
X148800057Y-90988094D02*
X148895295Y-91035713D01*
X148895295Y-91035713D02*
X149133390Y-91035713D01*
X149133390Y-91035713D02*
X149228628Y-90988094D01*
X149228628Y-90988094D02*
X149276247Y-90940475D01*
X149276247Y-90940475D02*
X149323866Y-90845237D01*
X149323866Y-90845237D02*
X149323866Y-90654761D01*
X149323866Y-90654761D02*
X149276247Y-90559523D01*
X149276247Y-90559523D02*
X149228628Y-90511904D01*
X149228628Y-90511904D02*
X149133390Y-90464285D01*
X125984819Y-126608333D02*
X126699104Y-126608333D01*
X126699104Y-126608333D02*
X126841961Y-126655952D01*
X126841961Y-126655952D02*
X126937200Y-126751190D01*
X126937200Y-126751190D02*
X126984819Y-126894047D01*
X126984819Y-126894047D02*
X126984819Y-126989285D01*
X126318152Y-125703571D02*
X126984819Y-125703571D01*
X125937200Y-125941666D02*
X126651485Y-126179761D01*
X126651485Y-126179761D02*
X126651485Y-125560714D01*
X129107142Y-92109580D02*
X129059523Y-92157200D01*
X129059523Y-92157200D02*
X128916666Y-92204819D01*
X128916666Y-92204819D02*
X128821428Y-92204819D01*
X128821428Y-92204819D02*
X128678571Y-92157200D01*
X128678571Y-92157200D02*
X128583333Y-92061961D01*
X128583333Y-92061961D02*
X128535714Y-91966723D01*
X128535714Y-91966723D02*
X128488095Y-91776247D01*
X128488095Y-91776247D02*
X128488095Y-91633390D01*
X128488095Y-91633390D02*
X128535714Y-91442914D01*
X128535714Y-91442914D02*
X128583333Y-91347676D01*
X128583333Y-91347676D02*
X128678571Y-91252438D01*
X128678571Y-91252438D02*
X128821428Y-91204819D01*
X128821428Y-91204819D02*
X128916666Y-91204819D01*
X128916666Y-91204819D02*
X129059523Y-91252438D01*
X129059523Y-91252438D02*
X129107142Y-91300057D01*
X129488095Y-91300057D02*
X129535714Y-91252438D01*
X129535714Y-91252438D02*
X129630952Y-91204819D01*
X129630952Y-91204819D02*
X129869047Y-91204819D01*
X129869047Y-91204819D02*
X129964285Y-91252438D01*
X129964285Y-91252438D02*
X130011904Y-91300057D01*
X130011904Y-91300057D02*
X130059523Y-91395295D01*
X130059523Y-91395295D02*
X130059523Y-91490533D01*
X130059523Y-91490533D02*
X130011904Y-91633390D01*
X130011904Y-91633390D02*
X129440476Y-92204819D01*
X129440476Y-92204819D02*
X130059523Y-92204819D01*
X130678571Y-91204819D02*
X130773809Y-91204819D01*
X130773809Y-91204819D02*
X130869047Y-91252438D01*
X130869047Y-91252438D02*
X130916666Y-91300057D01*
X130916666Y-91300057D02*
X130964285Y-91395295D01*
X130964285Y-91395295D02*
X131011904Y-91585771D01*
X131011904Y-91585771D02*
X131011904Y-91823866D01*
X131011904Y-91823866D02*
X130964285Y-92014342D01*
X130964285Y-92014342D02*
X130916666Y-92109580D01*
X130916666Y-92109580D02*
X130869047Y-92157200D01*
X130869047Y-92157200D02*
X130773809Y-92204819D01*
X130773809Y-92204819D02*
X130678571Y-92204819D01*
X130678571Y-92204819D02*
X130583333Y-92157200D01*
X130583333Y-92157200D02*
X130535714Y-92109580D01*
X130535714Y-92109580D02*
X130488095Y-92014342D01*
X130488095Y-92014342D02*
X130440476Y-91823866D01*
X130440476Y-91823866D02*
X130440476Y-91585771D01*
X130440476Y-91585771D02*
X130488095Y-91395295D01*
X130488095Y-91395295D02*
X130535714Y-91300057D01*
X130535714Y-91300057D02*
X130583333Y-91252438D01*
X130583333Y-91252438D02*
X130678571Y-91204819D01*
X137949580Y-89892857D02*
X137997200Y-89940476D01*
X137997200Y-89940476D02*
X138044819Y-90083333D01*
X138044819Y-90083333D02*
X138044819Y-90178571D01*
X138044819Y-90178571D02*
X137997200Y-90321428D01*
X137997200Y-90321428D02*
X137901961Y-90416666D01*
X137901961Y-90416666D02*
X137806723Y-90464285D01*
X137806723Y-90464285D02*
X137616247Y-90511904D01*
X137616247Y-90511904D02*
X137473390Y-90511904D01*
X137473390Y-90511904D02*
X137282914Y-90464285D01*
X137282914Y-90464285D02*
X137187676Y-90416666D01*
X137187676Y-90416666D02*
X137092438Y-90321428D01*
X137092438Y-90321428D02*
X137044819Y-90178571D01*
X137044819Y-90178571D02*
X137044819Y-90083333D01*
X137044819Y-90083333D02*
X137092438Y-89940476D01*
X137092438Y-89940476D02*
X137140057Y-89892857D01*
X138044819Y-88940476D02*
X138044819Y-89511904D01*
X138044819Y-89226190D02*
X137044819Y-89226190D01*
X137044819Y-89226190D02*
X137187676Y-89321428D01*
X137187676Y-89321428D02*
X137282914Y-89416666D01*
X137282914Y-89416666D02*
X137330533Y-89511904D01*
X137044819Y-88607142D02*
X137044819Y-87988095D01*
X137044819Y-87988095D02*
X137425771Y-88321428D01*
X137425771Y-88321428D02*
X137425771Y-88178571D01*
X137425771Y-88178571D02*
X137473390Y-88083333D01*
X137473390Y-88083333D02*
X137521009Y-88035714D01*
X137521009Y-88035714D02*
X137616247Y-87988095D01*
X137616247Y-87988095D02*
X137854342Y-87988095D01*
X137854342Y-87988095D02*
X137949580Y-88035714D01*
X137949580Y-88035714D02*
X137997200Y-88083333D01*
X137997200Y-88083333D02*
X138044819Y-88178571D01*
X138044819Y-88178571D02*
X138044819Y-88464285D01*
X138044819Y-88464285D02*
X137997200Y-88559523D01*
X137997200Y-88559523D02*
X137949580Y-88607142D01*
X133859580Y-104642857D02*
X133907200Y-104690476D01*
X133907200Y-104690476D02*
X133954819Y-104833333D01*
X133954819Y-104833333D02*
X133954819Y-104928571D01*
X133954819Y-104928571D02*
X133907200Y-105071428D01*
X133907200Y-105071428D02*
X133811961Y-105166666D01*
X133811961Y-105166666D02*
X133716723Y-105214285D01*
X133716723Y-105214285D02*
X133526247Y-105261904D01*
X133526247Y-105261904D02*
X133383390Y-105261904D01*
X133383390Y-105261904D02*
X133192914Y-105214285D01*
X133192914Y-105214285D02*
X133097676Y-105166666D01*
X133097676Y-105166666D02*
X133002438Y-105071428D01*
X133002438Y-105071428D02*
X132954819Y-104928571D01*
X132954819Y-104928571D02*
X132954819Y-104833333D01*
X132954819Y-104833333D02*
X133002438Y-104690476D01*
X133002438Y-104690476D02*
X133050057Y-104642857D01*
X133954819Y-103690476D02*
X133954819Y-104261904D01*
X133954819Y-103976190D02*
X132954819Y-103976190D01*
X132954819Y-103976190D02*
X133097676Y-104071428D01*
X133097676Y-104071428D02*
X133192914Y-104166666D01*
X133192914Y-104166666D02*
X133240533Y-104261904D01*
X132954819Y-103357142D02*
X132954819Y-102690476D01*
X132954819Y-102690476D02*
X133954819Y-103119047D01*
X128109580Y-93166666D02*
X128157200Y-93214285D01*
X128157200Y-93214285D02*
X128204819Y-93357142D01*
X128204819Y-93357142D02*
X128204819Y-93452380D01*
X128204819Y-93452380D02*
X128157200Y-93595237D01*
X128157200Y-93595237D02*
X128061961Y-93690475D01*
X128061961Y-93690475D02*
X127966723Y-93738094D01*
X127966723Y-93738094D02*
X127776247Y-93785713D01*
X127776247Y-93785713D02*
X127633390Y-93785713D01*
X127633390Y-93785713D02*
X127442914Y-93738094D01*
X127442914Y-93738094D02*
X127347676Y-93690475D01*
X127347676Y-93690475D02*
X127252438Y-93595237D01*
X127252438Y-93595237D02*
X127204819Y-93452380D01*
X127204819Y-93452380D02*
X127204819Y-93357142D01*
X127204819Y-93357142D02*
X127252438Y-93214285D01*
X127252438Y-93214285D02*
X127300057Y-93166666D01*
X127204819Y-92261904D02*
X127204819Y-92738094D01*
X127204819Y-92738094D02*
X127681009Y-92785713D01*
X127681009Y-92785713D02*
X127633390Y-92738094D01*
X127633390Y-92738094D02*
X127585771Y-92642856D01*
X127585771Y-92642856D02*
X127585771Y-92404761D01*
X127585771Y-92404761D02*
X127633390Y-92309523D01*
X127633390Y-92309523D02*
X127681009Y-92261904D01*
X127681009Y-92261904D02*
X127776247Y-92214285D01*
X127776247Y-92214285D02*
X128014342Y-92214285D01*
X128014342Y-92214285D02*
X128109580Y-92261904D01*
X128109580Y-92261904D02*
X128157200Y-92309523D01*
X128157200Y-92309523D02*
X128204819Y-92404761D01*
X128204819Y-92404761D02*
X128204819Y-92642856D01*
X128204819Y-92642856D02*
X128157200Y-92738094D01*
X128157200Y-92738094D02*
X128109580Y-92785713D01*
X140704819Y-85642857D02*
X140228628Y-85976190D01*
X140704819Y-86214285D02*
X139704819Y-86214285D01*
X139704819Y-86214285D02*
X139704819Y-85833333D01*
X139704819Y-85833333D02*
X139752438Y-85738095D01*
X139752438Y-85738095D02*
X139800057Y-85690476D01*
X139800057Y-85690476D02*
X139895295Y-85642857D01*
X139895295Y-85642857D02*
X140038152Y-85642857D01*
X140038152Y-85642857D02*
X140133390Y-85690476D01*
X140133390Y-85690476D02*
X140181009Y-85738095D01*
X140181009Y-85738095D02*
X140228628Y-85833333D01*
X140228628Y-85833333D02*
X140228628Y-86214285D01*
X140704819Y-84690476D02*
X140704819Y-85261904D01*
X140704819Y-84976190D02*
X139704819Y-84976190D01*
X139704819Y-84976190D02*
X139847676Y-85071428D01*
X139847676Y-85071428D02*
X139942914Y-85166666D01*
X139942914Y-85166666D02*
X139990533Y-85261904D01*
X140133390Y-84119047D02*
X140085771Y-84214285D01*
X140085771Y-84214285D02*
X140038152Y-84261904D01*
X140038152Y-84261904D02*
X139942914Y-84309523D01*
X139942914Y-84309523D02*
X139895295Y-84309523D01*
X139895295Y-84309523D02*
X139800057Y-84261904D01*
X139800057Y-84261904D02*
X139752438Y-84214285D01*
X139752438Y-84214285D02*
X139704819Y-84119047D01*
X139704819Y-84119047D02*
X139704819Y-83928571D01*
X139704819Y-83928571D02*
X139752438Y-83833333D01*
X139752438Y-83833333D02*
X139800057Y-83785714D01*
X139800057Y-83785714D02*
X139895295Y-83738095D01*
X139895295Y-83738095D02*
X139942914Y-83738095D01*
X139942914Y-83738095D02*
X140038152Y-83785714D01*
X140038152Y-83785714D02*
X140085771Y-83833333D01*
X140085771Y-83833333D02*
X140133390Y-83928571D01*
X140133390Y-83928571D02*
X140133390Y-84119047D01*
X140133390Y-84119047D02*
X140181009Y-84214285D01*
X140181009Y-84214285D02*
X140228628Y-84261904D01*
X140228628Y-84261904D02*
X140323866Y-84309523D01*
X140323866Y-84309523D02*
X140514342Y-84309523D01*
X140514342Y-84309523D02*
X140609580Y-84261904D01*
X140609580Y-84261904D02*
X140657200Y-84214285D01*
X140657200Y-84214285D02*
X140704819Y-84119047D01*
X140704819Y-84119047D02*
X140704819Y-83928571D01*
X140704819Y-83928571D02*
X140657200Y-83833333D01*
X140657200Y-83833333D02*
X140609580Y-83785714D01*
X140609580Y-83785714D02*
X140514342Y-83738095D01*
X140514342Y-83738095D02*
X140323866Y-83738095D01*
X140323866Y-83738095D02*
X140228628Y-83785714D01*
X140228628Y-83785714D02*
X140181009Y-83833333D01*
X140181009Y-83833333D02*
X140133390Y-83928571D01*
X133083333Y-79545180D02*
X133083333Y-78830895D01*
X133083333Y-78830895D02*
X133130952Y-78688038D01*
X133130952Y-78688038D02*
X133226190Y-78592800D01*
X133226190Y-78592800D02*
X133369047Y-78545180D01*
X133369047Y-78545180D02*
X133464285Y-78545180D01*
X132702380Y-79545180D02*
X132083333Y-79545180D01*
X132083333Y-79545180D02*
X132416666Y-79164228D01*
X132416666Y-79164228D02*
X132273809Y-79164228D01*
X132273809Y-79164228D02*
X132178571Y-79116609D01*
X132178571Y-79116609D02*
X132130952Y-79068990D01*
X132130952Y-79068990D02*
X132083333Y-78973752D01*
X132083333Y-78973752D02*
X132083333Y-78735657D01*
X132083333Y-78735657D02*
X132130952Y-78640419D01*
X132130952Y-78640419D02*
X132178571Y-78592800D01*
X132178571Y-78592800D02*
X132273809Y-78545180D01*
X132273809Y-78545180D02*
X132559523Y-78545180D01*
X132559523Y-78545180D02*
X132654761Y-78592800D01*
X132654761Y-78592800D02*
X132702380Y-78640419D01*
X138204819Y-85642857D02*
X137728628Y-85976190D01*
X138204819Y-86214285D02*
X137204819Y-86214285D01*
X137204819Y-86214285D02*
X137204819Y-85833333D01*
X137204819Y-85833333D02*
X137252438Y-85738095D01*
X137252438Y-85738095D02*
X137300057Y-85690476D01*
X137300057Y-85690476D02*
X137395295Y-85642857D01*
X137395295Y-85642857D02*
X137538152Y-85642857D01*
X137538152Y-85642857D02*
X137633390Y-85690476D01*
X137633390Y-85690476D02*
X137681009Y-85738095D01*
X137681009Y-85738095D02*
X137728628Y-85833333D01*
X137728628Y-85833333D02*
X137728628Y-86214285D01*
X138204819Y-84690476D02*
X138204819Y-85261904D01*
X138204819Y-84976190D02*
X137204819Y-84976190D01*
X137204819Y-84976190D02*
X137347676Y-85071428D01*
X137347676Y-85071428D02*
X137442914Y-85166666D01*
X137442914Y-85166666D02*
X137490533Y-85261904D01*
X137204819Y-83833333D02*
X137204819Y-84023809D01*
X137204819Y-84023809D02*
X137252438Y-84119047D01*
X137252438Y-84119047D02*
X137300057Y-84166666D01*
X137300057Y-84166666D02*
X137442914Y-84261904D01*
X137442914Y-84261904D02*
X137633390Y-84309523D01*
X137633390Y-84309523D02*
X138014342Y-84309523D01*
X138014342Y-84309523D02*
X138109580Y-84261904D01*
X138109580Y-84261904D02*
X138157200Y-84214285D01*
X138157200Y-84214285D02*
X138204819Y-84119047D01*
X138204819Y-84119047D02*
X138204819Y-83928571D01*
X138204819Y-83928571D02*
X138157200Y-83833333D01*
X138157200Y-83833333D02*
X138109580Y-83785714D01*
X138109580Y-83785714D02*
X138014342Y-83738095D01*
X138014342Y-83738095D02*
X137776247Y-83738095D01*
X137776247Y-83738095D02*
X137681009Y-83785714D01*
X137681009Y-83785714D02*
X137633390Y-83833333D01*
X137633390Y-83833333D02*
X137585771Y-83928571D01*
X137585771Y-83928571D02*
X137585771Y-84119047D01*
X137585771Y-84119047D02*
X137633390Y-84214285D01*
X137633390Y-84214285D02*
X137681009Y-84261904D01*
X137681009Y-84261904D02*
X137776247Y-84309523D01*
X158269580Y-106416666D02*
X158317200Y-106464285D01*
X158317200Y-106464285D02*
X158364819Y-106607142D01*
X158364819Y-106607142D02*
X158364819Y-106702380D01*
X158364819Y-106702380D02*
X158317200Y-106845237D01*
X158317200Y-106845237D02*
X158221961Y-106940475D01*
X158221961Y-106940475D02*
X158126723Y-106988094D01*
X158126723Y-106988094D02*
X157936247Y-107035713D01*
X157936247Y-107035713D02*
X157793390Y-107035713D01*
X157793390Y-107035713D02*
X157602914Y-106988094D01*
X157602914Y-106988094D02*
X157507676Y-106940475D01*
X157507676Y-106940475D02*
X157412438Y-106845237D01*
X157412438Y-106845237D02*
X157364819Y-106702380D01*
X157364819Y-106702380D02*
X157364819Y-106607142D01*
X157364819Y-106607142D02*
X157412438Y-106464285D01*
X157412438Y-106464285D02*
X157460057Y-106416666D01*
X157793390Y-105845237D02*
X157745771Y-105940475D01*
X157745771Y-105940475D02*
X157698152Y-105988094D01*
X157698152Y-105988094D02*
X157602914Y-106035713D01*
X157602914Y-106035713D02*
X157555295Y-106035713D01*
X157555295Y-106035713D02*
X157460057Y-105988094D01*
X157460057Y-105988094D02*
X157412438Y-105940475D01*
X157412438Y-105940475D02*
X157364819Y-105845237D01*
X157364819Y-105845237D02*
X157364819Y-105654761D01*
X157364819Y-105654761D02*
X157412438Y-105559523D01*
X157412438Y-105559523D02*
X157460057Y-105511904D01*
X157460057Y-105511904D02*
X157555295Y-105464285D01*
X157555295Y-105464285D02*
X157602914Y-105464285D01*
X157602914Y-105464285D02*
X157698152Y-105511904D01*
X157698152Y-105511904D02*
X157745771Y-105559523D01*
X157745771Y-105559523D02*
X157793390Y-105654761D01*
X157793390Y-105654761D02*
X157793390Y-105845237D01*
X157793390Y-105845237D02*
X157841009Y-105940475D01*
X157841009Y-105940475D02*
X157888628Y-105988094D01*
X157888628Y-105988094D02*
X157983866Y-106035713D01*
X157983866Y-106035713D02*
X158174342Y-106035713D01*
X158174342Y-106035713D02*
X158269580Y-105988094D01*
X158269580Y-105988094D02*
X158317200Y-105940475D01*
X158317200Y-105940475D02*
X158364819Y-105845237D01*
X158364819Y-105845237D02*
X158364819Y-105654761D01*
X158364819Y-105654761D02*
X158317200Y-105559523D01*
X158317200Y-105559523D02*
X158269580Y-105511904D01*
X158269580Y-105511904D02*
X158174342Y-105464285D01*
X158174342Y-105464285D02*
X157983866Y-105464285D01*
X157983866Y-105464285D02*
X157888628Y-105511904D01*
X157888628Y-105511904D02*
X157841009Y-105559523D01*
X157841009Y-105559523D02*
X157793390Y-105654761D01*
X127704819Y-81166666D02*
X127228628Y-81499999D01*
X127704819Y-81738094D02*
X126704819Y-81738094D01*
X126704819Y-81738094D02*
X126704819Y-81357142D01*
X126704819Y-81357142D02*
X126752438Y-81261904D01*
X126752438Y-81261904D02*
X126800057Y-81214285D01*
X126800057Y-81214285D02*
X126895295Y-81166666D01*
X126895295Y-81166666D02*
X127038152Y-81166666D01*
X127038152Y-81166666D02*
X127133390Y-81214285D01*
X127133390Y-81214285D02*
X127181009Y-81261904D01*
X127181009Y-81261904D02*
X127228628Y-81357142D01*
X127228628Y-81357142D02*
X127228628Y-81738094D01*
X127038152Y-80309523D02*
X127704819Y-80309523D01*
X126657200Y-80547618D02*
X127371485Y-80785713D01*
X127371485Y-80785713D02*
X127371485Y-80166666D01*
X141359580Y-89892857D02*
X141407200Y-89940476D01*
X141407200Y-89940476D02*
X141454819Y-90083333D01*
X141454819Y-90083333D02*
X141454819Y-90178571D01*
X141454819Y-90178571D02*
X141407200Y-90321428D01*
X141407200Y-90321428D02*
X141311961Y-90416666D01*
X141311961Y-90416666D02*
X141216723Y-90464285D01*
X141216723Y-90464285D02*
X141026247Y-90511904D01*
X141026247Y-90511904D02*
X140883390Y-90511904D01*
X140883390Y-90511904D02*
X140692914Y-90464285D01*
X140692914Y-90464285D02*
X140597676Y-90416666D01*
X140597676Y-90416666D02*
X140502438Y-90321428D01*
X140502438Y-90321428D02*
X140454819Y-90178571D01*
X140454819Y-90178571D02*
X140454819Y-90083333D01*
X140454819Y-90083333D02*
X140502438Y-89940476D01*
X140502438Y-89940476D02*
X140550057Y-89892857D01*
X141454819Y-88940476D02*
X141454819Y-89511904D01*
X141454819Y-89226190D02*
X140454819Y-89226190D01*
X140454819Y-89226190D02*
X140597676Y-89321428D01*
X140597676Y-89321428D02*
X140692914Y-89416666D01*
X140692914Y-89416666D02*
X140740533Y-89511904D01*
X141454819Y-88464285D02*
X141454819Y-88273809D01*
X141454819Y-88273809D02*
X141407200Y-88178571D01*
X141407200Y-88178571D02*
X141359580Y-88130952D01*
X141359580Y-88130952D02*
X141216723Y-88035714D01*
X141216723Y-88035714D02*
X141026247Y-87988095D01*
X141026247Y-87988095D02*
X140645295Y-87988095D01*
X140645295Y-87988095D02*
X140550057Y-88035714D01*
X140550057Y-88035714D02*
X140502438Y-88083333D01*
X140502438Y-88083333D02*
X140454819Y-88178571D01*
X140454819Y-88178571D02*
X140454819Y-88369047D01*
X140454819Y-88369047D02*
X140502438Y-88464285D01*
X140502438Y-88464285D02*
X140550057Y-88511904D01*
X140550057Y-88511904D02*
X140645295Y-88559523D01*
X140645295Y-88559523D02*
X140883390Y-88559523D01*
X140883390Y-88559523D02*
X140978628Y-88511904D01*
X140978628Y-88511904D02*
X141026247Y-88464285D01*
X141026247Y-88464285D02*
X141073866Y-88369047D01*
X141073866Y-88369047D02*
X141073866Y-88178571D01*
X141073866Y-88178571D02*
X141026247Y-88083333D01*
X141026247Y-88083333D02*
X140978628Y-88035714D01*
X140978628Y-88035714D02*
X140883390Y-87988095D01*
X145857142Y-92359580D02*
X145809523Y-92407200D01*
X145809523Y-92407200D02*
X145666666Y-92454819D01*
X145666666Y-92454819D02*
X145571428Y-92454819D01*
X145571428Y-92454819D02*
X145428571Y-92407200D01*
X145428571Y-92407200D02*
X145333333Y-92311961D01*
X145333333Y-92311961D02*
X145285714Y-92216723D01*
X145285714Y-92216723D02*
X145238095Y-92026247D01*
X145238095Y-92026247D02*
X145238095Y-91883390D01*
X145238095Y-91883390D02*
X145285714Y-91692914D01*
X145285714Y-91692914D02*
X145333333Y-91597676D01*
X145333333Y-91597676D02*
X145428571Y-91502438D01*
X145428571Y-91502438D02*
X145571428Y-91454819D01*
X145571428Y-91454819D02*
X145666666Y-91454819D01*
X145666666Y-91454819D02*
X145809523Y-91502438D01*
X145809523Y-91502438D02*
X145857142Y-91550057D01*
X146809523Y-92454819D02*
X146238095Y-92454819D01*
X146523809Y-92454819D02*
X146523809Y-91454819D01*
X146523809Y-91454819D02*
X146428571Y-91597676D01*
X146428571Y-91597676D02*
X146333333Y-91692914D01*
X146333333Y-91692914D02*
X146238095Y-91740533D01*
X147666666Y-91788152D02*
X147666666Y-92454819D01*
X147428571Y-91407200D02*
X147190476Y-92121485D01*
X147190476Y-92121485D02*
X147809523Y-92121485D01*
X142607142Y-87704819D02*
X142273809Y-87228628D01*
X142035714Y-87704819D02*
X142035714Y-86704819D01*
X142035714Y-86704819D02*
X142416666Y-86704819D01*
X142416666Y-86704819D02*
X142511904Y-86752438D01*
X142511904Y-86752438D02*
X142559523Y-86800057D01*
X142559523Y-86800057D02*
X142607142Y-86895295D01*
X142607142Y-86895295D02*
X142607142Y-87038152D01*
X142607142Y-87038152D02*
X142559523Y-87133390D01*
X142559523Y-87133390D02*
X142511904Y-87181009D01*
X142511904Y-87181009D02*
X142416666Y-87228628D01*
X142416666Y-87228628D02*
X142035714Y-87228628D01*
X142988095Y-86800057D02*
X143035714Y-86752438D01*
X143035714Y-86752438D02*
X143130952Y-86704819D01*
X143130952Y-86704819D02*
X143369047Y-86704819D01*
X143369047Y-86704819D02*
X143464285Y-86752438D01*
X143464285Y-86752438D02*
X143511904Y-86800057D01*
X143511904Y-86800057D02*
X143559523Y-86895295D01*
X143559523Y-86895295D02*
X143559523Y-86990533D01*
X143559523Y-86990533D02*
X143511904Y-87133390D01*
X143511904Y-87133390D02*
X142940476Y-87704819D01*
X142940476Y-87704819D02*
X143559523Y-87704819D01*
X144178571Y-86704819D02*
X144273809Y-86704819D01*
X144273809Y-86704819D02*
X144369047Y-86752438D01*
X144369047Y-86752438D02*
X144416666Y-86800057D01*
X144416666Y-86800057D02*
X144464285Y-86895295D01*
X144464285Y-86895295D02*
X144511904Y-87085771D01*
X144511904Y-87085771D02*
X144511904Y-87323866D01*
X144511904Y-87323866D02*
X144464285Y-87514342D01*
X144464285Y-87514342D02*
X144416666Y-87609580D01*
X144416666Y-87609580D02*
X144369047Y-87657200D01*
X144369047Y-87657200D02*
X144273809Y-87704819D01*
X144273809Y-87704819D02*
X144178571Y-87704819D01*
X144178571Y-87704819D02*
X144083333Y-87657200D01*
X144083333Y-87657200D02*
X144035714Y-87609580D01*
X144035714Y-87609580D02*
X143988095Y-87514342D01*
X143988095Y-87514342D02*
X143940476Y-87323866D01*
X143940476Y-87323866D02*
X143940476Y-87085771D01*
X143940476Y-87085771D02*
X143988095Y-86895295D01*
X143988095Y-86895295D02*
X144035714Y-86800057D01*
X144035714Y-86800057D02*
X144083333Y-86752438D01*
X144083333Y-86752438D02*
X144178571Y-86704819D01*
X126857142Y-105704819D02*
X126523809Y-105228628D01*
X126285714Y-105704819D02*
X126285714Y-104704819D01*
X126285714Y-104704819D02*
X126666666Y-104704819D01*
X126666666Y-104704819D02*
X126761904Y-104752438D01*
X126761904Y-104752438D02*
X126809523Y-104800057D01*
X126809523Y-104800057D02*
X126857142Y-104895295D01*
X126857142Y-104895295D02*
X126857142Y-105038152D01*
X126857142Y-105038152D02*
X126809523Y-105133390D01*
X126809523Y-105133390D02*
X126761904Y-105181009D01*
X126761904Y-105181009D02*
X126666666Y-105228628D01*
X126666666Y-105228628D02*
X126285714Y-105228628D01*
X127238095Y-104800057D02*
X127285714Y-104752438D01*
X127285714Y-104752438D02*
X127380952Y-104704819D01*
X127380952Y-104704819D02*
X127619047Y-104704819D01*
X127619047Y-104704819D02*
X127714285Y-104752438D01*
X127714285Y-104752438D02*
X127761904Y-104800057D01*
X127761904Y-104800057D02*
X127809523Y-104895295D01*
X127809523Y-104895295D02*
X127809523Y-104990533D01*
X127809523Y-104990533D02*
X127761904Y-105133390D01*
X127761904Y-105133390D02*
X127190476Y-105704819D01*
X127190476Y-105704819D02*
X127809523Y-105704819D01*
X128142857Y-104704819D02*
X128761904Y-104704819D01*
X128761904Y-104704819D02*
X128428571Y-105085771D01*
X128428571Y-105085771D02*
X128571428Y-105085771D01*
X128571428Y-105085771D02*
X128666666Y-105133390D01*
X128666666Y-105133390D02*
X128714285Y-105181009D01*
X128714285Y-105181009D02*
X128761904Y-105276247D01*
X128761904Y-105276247D02*
X128761904Y-105514342D01*
X128761904Y-105514342D02*
X128714285Y-105609580D01*
X128714285Y-105609580D02*
X128666666Y-105657200D01*
X128666666Y-105657200D02*
X128571428Y-105704819D01*
X128571428Y-105704819D02*
X128285714Y-105704819D01*
X128285714Y-105704819D02*
X128190476Y-105657200D01*
X128190476Y-105657200D02*
X128142857Y-105609580D01*
X155333333Y-88609580D02*
X155285714Y-88657200D01*
X155285714Y-88657200D02*
X155142857Y-88704819D01*
X155142857Y-88704819D02*
X155047619Y-88704819D01*
X155047619Y-88704819D02*
X154904762Y-88657200D01*
X154904762Y-88657200D02*
X154809524Y-88561961D01*
X154809524Y-88561961D02*
X154761905Y-88466723D01*
X154761905Y-88466723D02*
X154714286Y-88276247D01*
X154714286Y-88276247D02*
X154714286Y-88133390D01*
X154714286Y-88133390D02*
X154761905Y-87942914D01*
X154761905Y-87942914D02*
X154809524Y-87847676D01*
X154809524Y-87847676D02*
X154904762Y-87752438D01*
X154904762Y-87752438D02*
X155047619Y-87704819D01*
X155047619Y-87704819D02*
X155142857Y-87704819D01*
X155142857Y-87704819D02*
X155285714Y-87752438D01*
X155285714Y-87752438D02*
X155333333Y-87800057D01*
X156190476Y-88038152D02*
X156190476Y-88704819D01*
X155952381Y-87657200D02*
X155714286Y-88371485D01*
X155714286Y-88371485D02*
X156333333Y-88371485D01*
X126857142Y-104454819D02*
X126523809Y-103978628D01*
X126285714Y-104454819D02*
X126285714Y-103454819D01*
X126285714Y-103454819D02*
X126666666Y-103454819D01*
X126666666Y-103454819D02*
X126761904Y-103502438D01*
X126761904Y-103502438D02*
X126809523Y-103550057D01*
X126809523Y-103550057D02*
X126857142Y-103645295D01*
X126857142Y-103645295D02*
X126857142Y-103788152D01*
X126857142Y-103788152D02*
X126809523Y-103883390D01*
X126809523Y-103883390D02*
X126761904Y-103931009D01*
X126761904Y-103931009D02*
X126666666Y-103978628D01*
X126666666Y-103978628D02*
X126285714Y-103978628D01*
X127238095Y-103550057D02*
X127285714Y-103502438D01*
X127285714Y-103502438D02*
X127380952Y-103454819D01*
X127380952Y-103454819D02*
X127619047Y-103454819D01*
X127619047Y-103454819D02*
X127714285Y-103502438D01*
X127714285Y-103502438D02*
X127761904Y-103550057D01*
X127761904Y-103550057D02*
X127809523Y-103645295D01*
X127809523Y-103645295D02*
X127809523Y-103740533D01*
X127809523Y-103740533D02*
X127761904Y-103883390D01*
X127761904Y-103883390D02*
X127190476Y-104454819D01*
X127190476Y-104454819D02*
X127809523Y-104454819D01*
X128190476Y-103550057D02*
X128238095Y-103502438D01*
X128238095Y-103502438D02*
X128333333Y-103454819D01*
X128333333Y-103454819D02*
X128571428Y-103454819D01*
X128571428Y-103454819D02*
X128666666Y-103502438D01*
X128666666Y-103502438D02*
X128714285Y-103550057D01*
X128714285Y-103550057D02*
X128761904Y-103645295D01*
X128761904Y-103645295D02*
X128761904Y-103740533D01*
X128761904Y-103740533D02*
X128714285Y-103883390D01*
X128714285Y-103883390D02*
X128142857Y-104454819D01*
X128142857Y-104454819D02*
X128761904Y-104454819D01*
X128109580Y-100166666D02*
X128157200Y-100214285D01*
X128157200Y-100214285D02*
X128204819Y-100357142D01*
X128204819Y-100357142D02*
X128204819Y-100452380D01*
X128204819Y-100452380D02*
X128157200Y-100595237D01*
X128157200Y-100595237D02*
X128061961Y-100690475D01*
X128061961Y-100690475D02*
X127966723Y-100738094D01*
X127966723Y-100738094D02*
X127776247Y-100785713D01*
X127776247Y-100785713D02*
X127633390Y-100785713D01*
X127633390Y-100785713D02*
X127442914Y-100738094D01*
X127442914Y-100738094D02*
X127347676Y-100690475D01*
X127347676Y-100690475D02*
X127252438Y-100595237D01*
X127252438Y-100595237D02*
X127204819Y-100452380D01*
X127204819Y-100452380D02*
X127204819Y-100357142D01*
X127204819Y-100357142D02*
X127252438Y-100214285D01*
X127252438Y-100214285D02*
X127300057Y-100166666D01*
X127204819Y-99309523D02*
X127204819Y-99499999D01*
X127204819Y-99499999D02*
X127252438Y-99595237D01*
X127252438Y-99595237D02*
X127300057Y-99642856D01*
X127300057Y-99642856D02*
X127442914Y-99738094D01*
X127442914Y-99738094D02*
X127633390Y-99785713D01*
X127633390Y-99785713D02*
X128014342Y-99785713D01*
X128014342Y-99785713D02*
X128109580Y-99738094D01*
X128109580Y-99738094D02*
X128157200Y-99690475D01*
X128157200Y-99690475D02*
X128204819Y-99595237D01*
X128204819Y-99595237D02*
X128204819Y-99404761D01*
X128204819Y-99404761D02*
X128157200Y-99309523D01*
X128157200Y-99309523D02*
X128109580Y-99261904D01*
X128109580Y-99261904D02*
X128014342Y-99214285D01*
X128014342Y-99214285D02*
X127776247Y-99214285D01*
X127776247Y-99214285D02*
X127681009Y-99261904D01*
X127681009Y-99261904D02*
X127633390Y-99309523D01*
X127633390Y-99309523D02*
X127585771Y-99404761D01*
X127585771Y-99404761D02*
X127585771Y-99595237D01*
X127585771Y-99595237D02*
X127633390Y-99690475D01*
X127633390Y-99690475D02*
X127681009Y-99738094D01*
X127681009Y-99738094D02*
X127776247Y-99785713D01*
X143833333Y-94454819D02*
X143500000Y-93978628D01*
X143261905Y-94454819D02*
X143261905Y-93454819D01*
X143261905Y-93454819D02*
X143642857Y-93454819D01*
X143642857Y-93454819D02*
X143738095Y-93502438D01*
X143738095Y-93502438D02*
X143785714Y-93550057D01*
X143785714Y-93550057D02*
X143833333Y-93645295D01*
X143833333Y-93645295D02*
X143833333Y-93788152D01*
X143833333Y-93788152D02*
X143785714Y-93883390D01*
X143785714Y-93883390D02*
X143738095Y-93931009D01*
X143738095Y-93931009D02*
X143642857Y-93978628D01*
X143642857Y-93978628D02*
X143261905Y-93978628D01*
X144690476Y-93454819D02*
X144500000Y-93454819D01*
X144500000Y-93454819D02*
X144404762Y-93502438D01*
X144404762Y-93502438D02*
X144357143Y-93550057D01*
X144357143Y-93550057D02*
X144261905Y-93692914D01*
X144261905Y-93692914D02*
X144214286Y-93883390D01*
X144214286Y-93883390D02*
X144214286Y-94264342D01*
X144214286Y-94264342D02*
X144261905Y-94359580D01*
X144261905Y-94359580D02*
X144309524Y-94407200D01*
X144309524Y-94407200D02*
X144404762Y-94454819D01*
X144404762Y-94454819D02*
X144595238Y-94454819D01*
X144595238Y-94454819D02*
X144690476Y-94407200D01*
X144690476Y-94407200D02*
X144738095Y-94359580D01*
X144738095Y-94359580D02*
X144785714Y-94264342D01*
X144785714Y-94264342D02*
X144785714Y-94026247D01*
X144785714Y-94026247D02*
X144738095Y-93931009D01*
X144738095Y-93931009D02*
X144690476Y-93883390D01*
X144690476Y-93883390D02*
X144595238Y-93835771D01*
X144595238Y-93835771D02*
X144404762Y-93835771D01*
X144404762Y-93835771D02*
X144309524Y-93883390D01*
X144309524Y-93883390D02*
X144261905Y-93931009D01*
X144261905Y-93931009D02*
X144214286Y-94026247D01*
X121166667Y-77907200D02*
X121309524Y-77954819D01*
X121309524Y-77954819D02*
X121547619Y-77954819D01*
X121547619Y-77954819D02*
X121642857Y-77907200D01*
X121642857Y-77907200D02*
X121690476Y-77859580D01*
X121690476Y-77859580D02*
X121738095Y-77764342D01*
X121738095Y-77764342D02*
X121738095Y-77669104D01*
X121738095Y-77669104D02*
X121690476Y-77573866D01*
X121690476Y-77573866D02*
X121642857Y-77526247D01*
X121642857Y-77526247D02*
X121547619Y-77478628D01*
X121547619Y-77478628D02*
X121357143Y-77431009D01*
X121357143Y-77431009D02*
X121261905Y-77383390D01*
X121261905Y-77383390D02*
X121214286Y-77335771D01*
X121214286Y-77335771D02*
X121166667Y-77240533D01*
X121166667Y-77240533D02*
X121166667Y-77145295D01*
X121166667Y-77145295D02*
X121214286Y-77050057D01*
X121214286Y-77050057D02*
X121261905Y-77002438D01*
X121261905Y-77002438D02*
X121357143Y-76954819D01*
X121357143Y-76954819D02*
X121595238Y-76954819D01*
X121595238Y-76954819D02*
X121738095Y-77002438D01*
X122071429Y-76954819D02*
X122309524Y-77954819D01*
X122309524Y-77954819D02*
X122500000Y-77240533D01*
X122500000Y-77240533D02*
X122690476Y-77954819D01*
X122690476Y-77954819D02*
X122928572Y-76954819D01*
X123261905Y-77050057D02*
X123309524Y-77002438D01*
X123309524Y-77002438D02*
X123404762Y-76954819D01*
X123404762Y-76954819D02*
X123642857Y-76954819D01*
X123642857Y-76954819D02*
X123738095Y-77002438D01*
X123738095Y-77002438D02*
X123785714Y-77050057D01*
X123785714Y-77050057D02*
X123833333Y-77145295D01*
X123833333Y-77145295D02*
X123833333Y-77240533D01*
X123833333Y-77240533D02*
X123785714Y-77383390D01*
X123785714Y-77383390D02*
X123214286Y-77954819D01*
X123214286Y-77954819D02*
X123833333Y-77954819D01*
X135359580Y-104642857D02*
X135407200Y-104690476D01*
X135407200Y-104690476D02*
X135454819Y-104833333D01*
X135454819Y-104833333D02*
X135454819Y-104928571D01*
X135454819Y-104928571D02*
X135407200Y-105071428D01*
X135407200Y-105071428D02*
X135311961Y-105166666D01*
X135311961Y-105166666D02*
X135216723Y-105214285D01*
X135216723Y-105214285D02*
X135026247Y-105261904D01*
X135026247Y-105261904D02*
X134883390Y-105261904D01*
X134883390Y-105261904D02*
X134692914Y-105214285D01*
X134692914Y-105214285D02*
X134597676Y-105166666D01*
X134597676Y-105166666D02*
X134502438Y-105071428D01*
X134502438Y-105071428D02*
X134454819Y-104928571D01*
X134454819Y-104928571D02*
X134454819Y-104833333D01*
X134454819Y-104833333D02*
X134502438Y-104690476D01*
X134502438Y-104690476D02*
X134550057Y-104642857D01*
X135454819Y-103690476D02*
X135454819Y-104261904D01*
X135454819Y-103976190D02*
X134454819Y-103976190D01*
X134454819Y-103976190D02*
X134597676Y-104071428D01*
X134597676Y-104071428D02*
X134692914Y-104166666D01*
X134692914Y-104166666D02*
X134740533Y-104261904D01*
X135454819Y-102738095D02*
X135454819Y-103309523D01*
X135454819Y-103023809D02*
X134454819Y-103023809D01*
X134454819Y-103023809D02*
X134597676Y-103119047D01*
X134597676Y-103119047D02*
X134692914Y-103214285D01*
X134692914Y-103214285D02*
X134740533Y-103309523D01*
X155357142Y-90204819D02*
X155023809Y-89728628D01*
X154785714Y-90204819D02*
X154785714Y-89204819D01*
X154785714Y-89204819D02*
X155166666Y-89204819D01*
X155166666Y-89204819D02*
X155261904Y-89252438D01*
X155261904Y-89252438D02*
X155309523Y-89300057D01*
X155309523Y-89300057D02*
X155357142Y-89395295D01*
X155357142Y-89395295D02*
X155357142Y-89538152D01*
X155357142Y-89538152D02*
X155309523Y-89633390D01*
X155309523Y-89633390D02*
X155261904Y-89681009D01*
X155261904Y-89681009D02*
X155166666Y-89728628D01*
X155166666Y-89728628D02*
X154785714Y-89728628D01*
X156309523Y-90204819D02*
X155738095Y-90204819D01*
X156023809Y-90204819D02*
X156023809Y-89204819D01*
X156023809Y-89204819D02*
X155928571Y-89347676D01*
X155928571Y-89347676D02*
X155833333Y-89442914D01*
X155833333Y-89442914D02*
X155738095Y-89490533D01*
X156928571Y-89204819D02*
X157023809Y-89204819D01*
X157023809Y-89204819D02*
X157119047Y-89252438D01*
X157119047Y-89252438D02*
X157166666Y-89300057D01*
X157166666Y-89300057D02*
X157214285Y-89395295D01*
X157214285Y-89395295D02*
X157261904Y-89585771D01*
X157261904Y-89585771D02*
X157261904Y-89823866D01*
X157261904Y-89823866D02*
X157214285Y-90014342D01*
X157214285Y-90014342D02*
X157166666Y-90109580D01*
X157166666Y-90109580D02*
X157119047Y-90157200D01*
X157119047Y-90157200D02*
X157023809Y-90204819D01*
X157023809Y-90204819D02*
X156928571Y-90204819D01*
X156928571Y-90204819D02*
X156833333Y-90157200D01*
X156833333Y-90157200D02*
X156785714Y-90109580D01*
X156785714Y-90109580D02*
X156738095Y-90014342D01*
X156738095Y-90014342D02*
X156690476Y-89823866D01*
X156690476Y-89823866D02*
X156690476Y-89585771D01*
X156690476Y-89585771D02*
X156738095Y-89395295D01*
X156738095Y-89395295D02*
X156785714Y-89300057D01*
X156785714Y-89300057D02*
X156833333Y-89252438D01*
X156833333Y-89252438D02*
X156928571Y-89204819D01*
X139454819Y-85642857D02*
X138978628Y-85976190D01*
X139454819Y-86214285D02*
X138454819Y-86214285D01*
X138454819Y-86214285D02*
X138454819Y-85833333D01*
X138454819Y-85833333D02*
X138502438Y-85738095D01*
X138502438Y-85738095D02*
X138550057Y-85690476D01*
X138550057Y-85690476D02*
X138645295Y-85642857D01*
X138645295Y-85642857D02*
X138788152Y-85642857D01*
X138788152Y-85642857D02*
X138883390Y-85690476D01*
X138883390Y-85690476D02*
X138931009Y-85738095D01*
X138931009Y-85738095D02*
X138978628Y-85833333D01*
X138978628Y-85833333D02*
X138978628Y-86214285D01*
X139454819Y-84690476D02*
X139454819Y-85261904D01*
X139454819Y-84976190D02*
X138454819Y-84976190D01*
X138454819Y-84976190D02*
X138597676Y-85071428D01*
X138597676Y-85071428D02*
X138692914Y-85166666D01*
X138692914Y-85166666D02*
X138740533Y-85261904D01*
X138454819Y-84357142D02*
X138454819Y-83690476D01*
X138454819Y-83690476D02*
X139454819Y-84119047D01*
X155166667Y-77907200D02*
X155309524Y-77954819D01*
X155309524Y-77954819D02*
X155547619Y-77954819D01*
X155547619Y-77954819D02*
X155642857Y-77907200D01*
X155642857Y-77907200D02*
X155690476Y-77859580D01*
X155690476Y-77859580D02*
X155738095Y-77764342D01*
X155738095Y-77764342D02*
X155738095Y-77669104D01*
X155738095Y-77669104D02*
X155690476Y-77573866D01*
X155690476Y-77573866D02*
X155642857Y-77526247D01*
X155642857Y-77526247D02*
X155547619Y-77478628D01*
X155547619Y-77478628D02*
X155357143Y-77431009D01*
X155357143Y-77431009D02*
X155261905Y-77383390D01*
X155261905Y-77383390D02*
X155214286Y-77335771D01*
X155214286Y-77335771D02*
X155166667Y-77240533D01*
X155166667Y-77240533D02*
X155166667Y-77145295D01*
X155166667Y-77145295D02*
X155214286Y-77050057D01*
X155214286Y-77050057D02*
X155261905Y-77002438D01*
X155261905Y-77002438D02*
X155357143Y-76954819D01*
X155357143Y-76954819D02*
X155595238Y-76954819D01*
X155595238Y-76954819D02*
X155738095Y-77002438D01*
X156071429Y-76954819D02*
X156309524Y-77954819D01*
X156309524Y-77954819D02*
X156500000Y-77240533D01*
X156500000Y-77240533D02*
X156690476Y-77954819D01*
X156690476Y-77954819D02*
X156928572Y-76954819D01*
X157833333Y-77954819D02*
X157261905Y-77954819D01*
X157547619Y-77954819D02*
X157547619Y-76954819D01*
X157547619Y-76954819D02*
X157452381Y-77097676D01*
X157452381Y-77097676D02*
X157357143Y-77192914D01*
X157357143Y-77192914D02*
X157261905Y-77240533D01*
X149704819Y-95916666D02*
X149228628Y-96249999D01*
X149704819Y-96488094D02*
X148704819Y-96488094D01*
X148704819Y-96488094D02*
X148704819Y-96107142D01*
X148704819Y-96107142D02*
X148752438Y-96011904D01*
X148752438Y-96011904D02*
X148800057Y-95964285D01*
X148800057Y-95964285D02*
X148895295Y-95916666D01*
X148895295Y-95916666D02*
X149038152Y-95916666D01*
X149038152Y-95916666D02*
X149133390Y-95964285D01*
X149133390Y-95964285D02*
X149181009Y-96011904D01*
X149181009Y-96011904D02*
X149228628Y-96107142D01*
X149228628Y-96107142D02*
X149228628Y-96488094D01*
X149133390Y-95345237D02*
X149085771Y-95440475D01*
X149085771Y-95440475D02*
X149038152Y-95488094D01*
X149038152Y-95488094D02*
X148942914Y-95535713D01*
X148942914Y-95535713D02*
X148895295Y-95535713D01*
X148895295Y-95535713D02*
X148800057Y-95488094D01*
X148800057Y-95488094D02*
X148752438Y-95440475D01*
X148752438Y-95440475D02*
X148704819Y-95345237D01*
X148704819Y-95345237D02*
X148704819Y-95154761D01*
X148704819Y-95154761D02*
X148752438Y-95059523D01*
X148752438Y-95059523D02*
X148800057Y-95011904D01*
X148800057Y-95011904D02*
X148895295Y-94964285D01*
X148895295Y-94964285D02*
X148942914Y-94964285D01*
X148942914Y-94964285D02*
X149038152Y-95011904D01*
X149038152Y-95011904D02*
X149085771Y-95059523D01*
X149085771Y-95059523D02*
X149133390Y-95154761D01*
X149133390Y-95154761D02*
X149133390Y-95345237D01*
X149133390Y-95345237D02*
X149181009Y-95440475D01*
X149181009Y-95440475D02*
X149228628Y-95488094D01*
X149228628Y-95488094D02*
X149323866Y-95535713D01*
X149323866Y-95535713D02*
X149514342Y-95535713D01*
X149514342Y-95535713D02*
X149609580Y-95488094D01*
X149609580Y-95488094D02*
X149657200Y-95440475D01*
X149657200Y-95440475D02*
X149704819Y-95345237D01*
X149704819Y-95345237D02*
X149704819Y-95154761D01*
X149704819Y-95154761D02*
X149657200Y-95059523D01*
X149657200Y-95059523D02*
X149609580Y-95011904D01*
X149609580Y-95011904D02*
X149514342Y-94964285D01*
X149514342Y-94964285D02*
X149323866Y-94964285D01*
X149323866Y-94964285D02*
X149228628Y-95011904D01*
X149228628Y-95011904D02*
X149181009Y-95059523D01*
X149181009Y-95059523D02*
X149133390Y-95154761D01*
X154454819Y-96333333D02*
X155169104Y-96333333D01*
X155169104Y-96333333D02*
X155311961Y-96380952D01*
X155311961Y-96380952D02*
X155407200Y-96476190D01*
X155407200Y-96476190D02*
X155454819Y-96619047D01*
X155454819Y-96619047D02*
X155454819Y-96714285D01*
X155454819Y-95333333D02*
X155454819Y-95904761D01*
X155454819Y-95619047D02*
X154454819Y-95619047D01*
X154454819Y-95619047D02*
X154597676Y-95714285D01*
X154597676Y-95714285D02*
X154692914Y-95809523D01*
X154692914Y-95809523D02*
X154740533Y-95904761D01*
X135704819Y-85642857D02*
X135228628Y-85976190D01*
X135704819Y-86214285D02*
X134704819Y-86214285D01*
X134704819Y-86214285D02*
X134704819Y-85833333D01*
X134704819Y-85833333D02*
X134752438Y-85738095D01*
X134752438Y-85738095D02*
X134800057Y-85690476D01*
X134800057Y-85690476D02*
X134895295Y-85642857D01*
X134895295Y-85642857D02*
X135038152Y-85642857D01*
X135038152Y-85642857D02*
X135133390Y-85690476D01*
X135133390Y-85690476D02*
X135181009Y-85738095D01*
X135181009Y-85738095D02*
X135228628Y-85833333D01*
X135228628Y-85833333D02*
X135228628Y-86214285D01*
X135704819Y-84690476D02*
X135704819Y-85261904D01*
X135704819Y-84976190D02*
X134704819Y-84976190D01*
X134704819Y-84976190D02*
X134847676Y-85071428D01*
X134847676Y-85071428D02*
X134942914Y-85166666D01*
X134942914Y-85166666D02*
X134990533Y-85261904D01*
X135038152Y-83833333D02*
X135704819Y-83833333D01*
X134657200Y-84071428D02*
X135371485Y-84309523D01*
X135371485Y-84309523D02*
X135371485Y-83690476D01*
X129583333Y-100204819D02*
X129250000Y-99728628D01*
X129011905Y-100204819D02*
X129011905Y-99204819D01*
X129011905Y-99204819D02*
X129392857Y-99204819D01*
X129392857Y-99204819D02*
X129488095Y-99252438D01*
X129488095Y-99252438D02*
X129535714Y-99300057D01*
X129535714Y-99300057D02*
X129583333Y-99395295D01*
X129583333Y-99395295D02*
X129583333Y-99538152D01*
X129583333Y-99538152D02*
X129535714Y-99633390D01*
X129535714Y-99633390D02*
X129488095Y-99681009D01*
X129488095Y-99681009D02*
X129392857Y-99728628D01*
X129392857Y-99728628D02*
X129011905Y-99728628D01*
X130488095Y-99204819D02*
X130011905Y-99204819D01*
X130011905Y-99204819D02*
X129964286Y-99681009D01*
X129964286Y-99681009D02*
X130011905Y-99633390D01*
X130011905Y-99633390D02*
X130107143Y-99585771D01*
X130107143Y-99585771D02*
X130345238Y-99585771D01*
X130345238Y-99585771D02*
X130440476Y-99633390D01*
X130440476Y-99633390D02*
X130488095Y-99681009D01*
X130488095Y-99681009D02*
X130535714Y-99776247D01*
X130535714Y-99776247D02*
X130535714Y-100014342D01*
X130535714Y-100014342D02*
X130488095Y-100109580D01*
X130488095Y-100109580D02*
X130440476Y-100157200D01*
X130440476Y-100157200D02*
X130345238Y-100204819D01*
X130345238Y-100204819D02*
X130107143Y-100204819D01*
X130107143Y-100204819D02*
X130011905Y-100157200D01*
X130011905Y-100157200D02*
X129964286Y-100109580D01*
X143609580Y-89892857D02*
X143657200Y-89940476D01*
X143657200Y-89940476D02*
X143704819Y-90083333D01*
X143704819Y-90083333D02*
X143704819Y-90178571D01*
X143704819Y-90178571D02*
X143657200Y-90321428D01*
X143657200Y-90321428D02*
X143561961Y-90416666D01*
X143561961Y-90416666D02*
X143466723Y-90464285D01*
X143466723Y-90464285D02*
X143276247Y-90511904D01*
X143276247Y-90511904D02*
X143133390Y-90511904D01*
X143133390Y-90511904D02*
X142942914Y-90464285D01*
X142942914Y-90464285D02*
X142847676Y-90416666D01*
X142847676Y-90416666D02*
X142752438Y-90321428D01*
X142752438Y-90321428D02*
X142704819Y-90178571D01*
X142704819Y-90178571D02*
X142704819Y-90083333D01*
X142704819Y-90083333D02*
X142752438Y-89940476D01*
X142752438Y-89940476D02*
X142800057Y-89892857D01*
X143704819Y-88940476D02*
X143704819Y-89511904D01*
X143704819Y-89226190D02*
X142704819Y-89226190D01*
X142704819Y-89226190D02*
X142847676Y-89321428D01*
X142847676Y-89321428D02*
X142942914Y-89416666D01*
X142942914Y-89416666D02*
X142990533Y-89511904D01*
X142704819Y-88083333D02*
X142704819Y-88273809D01*
X142704819Y-88273809D02*
X142752438Y-88369047D01*
X142752438Y-88369047D02*
X142800057Y-88416666D01*
X142800057Y-88416666D02*
X142942914Y-88511904D01*
X142942914Y-88511904D02*
X143133390Y-88559523D01*
X143133390Y-88559523D02*
X143514342Y-88559523D01*
X143514342Y-88559523D02*
X143609580Y-88511904D01*
X143609580Y-88511904D02*
X143657200Y-88464285D01*
X143657200Y-88464285D02*
X143704819Y-88369047D01*
X143704819Y-88369047D02*
X143704819Y-88178571D01*
X143704819Y-88178571D02*
X143657200Y-88083333D01*
X143657200Y-88083333D02*
X143609580Y-88035714D01*
X143609580Y-88035714D02*
X143514342Y-87988095D01*
X143514342Y-87988095D02*
X143276247Y-87988095D01*
X143276247Y-87988095D02*
X143181009Y-88035714D01*
X143181009Y-88035714D02*
X143133390Y-88083333D01*
X143133390Y-88083333D02*
X143085771Y-88178571D01*
X143085771Y-88178571D02*
X143085771Y-88369047D01*
X143085771Y-88369047D02*
X143133390Y-88464285D01*
X143133390Y-88464285D02*
X143181009Y-88511904D01*
X143181009Y-88511904D02*
X143276247Y-88559523D01*
X129107142Y-101359580D02*
X129059523Y-101407200D01*
X129059523Y-101407200D02*
X128916666Y-101454819D01*
X128916666Y-101454819D02*
X128821428Y-101454819D01*
X128821428Y-101454819D02*
X128678571Y-101407200D01*
X128678571Y-101407200D02*
X128583333Y-101311961D01*
X128583333Y-101311961D02*
X128535714Y-101216723D01*
X128535714Y-101216723D02*
X128488095Y-101026247D01*
X128488095Y-101026247D02*
X128488095Y-100883390D01*
X128488095Y-100883390D02*
X128535714Y-100692914D01*
X128535714Y-100692914D02*
X128583333Y-100597676D01*
X128583333Y-100597676D02*
X128678571Y-100502438D01*
X128678571Y-100502438D02*
X128821428Y-100454819D01*
X128821428Y-100454819D02*
X128916666Y-100454819D01*
X128916666Y-100454819D02*
X129059523Y-100502438D01*
X129059523Y-100502438D02*
X129107142Y-100550057D01*
X130059523Y-101454819D02*
X129488095Y-101454819D01*
X129773809Y-101454819D02*
X129773809Y-100454819D01*
X129773809Y-100454819D02*
X129678571Y-100597676D01*
X129678571Y-100597676D02*
X129583333Y-100692914D01*
X129583333Y-100692914D02*
X129488095Y-100740533D01*
X130440476Y-100550057D02*
X130488095Y-100502438D01*
X130488095Y-100502438D02*
X130583333Y-100454819D01*
X130583333Y-100454819D02*
X130821428Y-100454819D01*
X130821428Y-100454819D02*
X130916666Y-100502438D01*
X130916666Y-100502438D02*
X130964285Y-100550057D01*
X130964285Y-100550057D02*
X131011904Y-100645295D01*
X131011904Y-100645295D02*
X131011904Y-100740533D01*
X131011904Y-100740533D02*
X130964285Y-100883390D01*
X130964285Y-100883390D02*
X130392857Y-101454819D01*
X130392857Y-101454819D02*
X131011904Y-101454819D01*
X144784819Y-111392857D02*
X144308628Y-111726190D01*
X144784819Y-111964285D02*
X143784819Y-111964285D01*
X143784819Y-111964285D02*
X143784819Y-111583333D01*
X143784819Y-111583333D02*
X143832438Y-111488095D01*
X143832438Y-111488095D02*
X143880057Y-111440476D01*
X143880057Y-111440476D02*
X143975295Y-111392857D01*
X143975295Y-111392857D02*
X144118152Y-111392857D01*
X144118152Y-111392857D02*
X144213390Y-111440476D01*
X144213390Y-111440476D02*
X144261009Y-111488095D01*
X144261009Y-111488095D02*
X144308628Y-111583333D01*
X144308628Y-111583333D02*
X144308628Y-111964285D01*
X144784819Y-110440476D02*
X144784819Y-111011904D01*
X144784819Y-110726190D02*
X143784819Y-110726190D01*
X143784819Y-110726190D02*
X143927676Y-110821428D01*
X143927676Y-110821428D02*
X144022914Y-110916666D01*
X144022914Y-110916666D02*
X144070533Y-111011904D01*
X144784819Y-109488095D02*
X144784819Y-110059523D01*
X144784819Y-109773809D02*
X143784819Y-109773809D01*
X143784819Y-109773809D02*
X143927676Y-109869047D01*
X143927676Y-109869047D02*
X144022914Y-109964285D01*
X144022914Y-109964285D02*
X144070533Y-110059523D01*
X125454819Y-89488094D02*
X124454819Y-89488094D01*
X124454819Y-89488094D02*
X124454819Y-89249999D01*
X124454819Y-89249999D02*
X124502438Y-89107142D01*
X124502438Y-89107142D02*
X124597676Y-89011904D01*
X124597676Y-89011904D02*
X124692914Y-88964285D01*
X124692914Y-88964285D02*
X124883390Y-88916666D01*
X124883390Y-88916666D02*
X125026247Y-88916666D01*
X125026247Y-88916666D02*
X125216723Y-88964285D01*
X125216723Y-88964285D02*
X125311961Y-89011904D01*
X125311961Y-89011904D02*
X125407200Y-89107142D01*
X125407200Y-89107142D02*
X125454819Y-89249999D01*
X125454819Y-89249999D02*
X125454819Y-89488094D01*
X124550057Y-88535713D02*
X124502438Y-88488094D01*
X124502438Y-88488094D02*
X124454819Y-88392856D01*
X124454819Y-88392856D02*
X124454819Y-88154761D01*
X124454819Y-88154761D02*
X124502438Y-88059523D01*
X124502438Y-88059523D02*
X124550057Y-88011904D01*
X124550057Y-88011904D02*
X124645295Y-87964285D01*
X124645295Y-87964285D02*
X124740533Y-87964285D01*
X124740533Y-87964285D02*
X124883390Y-88011904D01*
X124883390Y-88011904D02*
X125454819Y-88583332D01*
X125454819Y-88583332D02*
X125454819Y-87964285D01*
X127354819Y-89864285D02*
X127354819Y-90435713D01*
X127354819Y-90149999D02*
X126354819Y-90149999D01*
X126354819Y-90149999D02*
X126497676Y-90245237D01*
X126497676Y-90245237D02*
X126592914Y-90340475D01*
X126592914Y-90340475D02*
X126640533Y-90435713D01*
X143859580Y-97416666D02*
X143907200Y-97464285D01*
X143907200Y-97464285D02*
X143954819Y-97607142D01*
X143954819Y-97607142D02*
X143954819Y-97702380D01*
X143954819Y-97702380D02*
X143907200Y-97845237D01*
X143907200Y-97845237D02*
X143811961Y-97940475D01*
X143811961Y-97940475D02*
X143716723Y-97988094D01*
X143716723Y-97988094D02*
X143526247Y-98035713D01*
X143526247Y-98035713D02*
X143383390Y-98035713D01*
X143383390Y-98035713D02*
X143192914Y-97988094D01*
X143192914Y-97988094D02*
X143097676Y-97940475D01*
X143097676Y-97940475D02*
X143002438Y-97845237D01*
X143002438Y-97845237D02*
X142954819Y-97702380D01*
X142954819Y-97702380D02*
X142954819Y-97607142D01*
X142954819Y-97607142D02*
X143002438Y-97464285D01*
X143002438Y-97464285D02*
X143050057Y-97416666D01*
X143050057Y-97035713D02*
X143002438Y-96988094D01*
X143002438Y-96988094D02*
X142954819Y-96892856D01*
X142954819Y-96892856D02*
X142954819Y-96654761D01*
X142954819Y-96654761D02*
X143002438Y-96559523D01*
X143002438Y-96559523D02*
X143050057Y-96511904D01*
X143050057Y-96511904D02*
X143145295Y-96464285D01*
X143145295Y-96464285D02*
X143240533Y-96464285D01*
X143240533Y-96464285D02*
X143383390Y-96511904D01*
X143383390Y-96511904D02*
X143954819Y-97083332D01*
X143954819Y-97083332D02*
X143954819Y-96464285D01*
D12*
X148047780Y-99333333D02*
X148047780Y-98857143D01*
X148047780Y-98857143D02*
X149047780Y-98857143D01*
X148047780Y-100190476D02*
X148047780Y-99619048D01*
X148047780Y-99904762D02*
X149047780Y-99904762D01*
X149047780Y-99904762D02*
X148904923Y-99809524D01*
X148904923Y-99809524D02*
X148809685Y-99714286D01*
X148809685Y-99714286D02*
X148762066Y-99619048D01*
D11*
X121204819Y-106333333D02*
X121919104Y-106333333D01*
X121919104Y-106333333D02*
X122061961Y-106380952D01*
X122061961Y-106380952D02*
X122157200Y-106476190D01*
X122157200Y-106476190D02*
X122204819Y-106619047D01*
X122204819Y-106619047D02*
X122204819Y-106714285D01*
X121300057Y-105904761D02*
X121252438Y-105857142D01*
X121252438Y-105857142D02*
X121204819Y-105761904D01*
X121204819Y-105761904D02*
X121204819Y-105523809D01*
X121204819Y-105523809D02*
X121252438Y-105428571D01*
X121252438Y-105428571D02*
X121300057Y-105380952D01*
X121300057Y-105380952D02*
X121395295Y-105333333D01*
X121395295Y-105333333D02*
X121490533Y-105333333D01*
X121490533Y-105333333D02*
X121633390Y-105380952D01*
X121633390Y-105380952D02*
X122204819Y-105952380D01*
X122204819Y-105952380D02*
X122204819Y-105333333D01*
X142949580Y-81392857D02*
X142997200Y-81440476D01*
X142997200Y-81440476D02*
X143044819Y-81583333D01*
X143044819Y-81583333D02*
X143044819Y-81678571D01*
X143044819Y-81678571D02*
X142997200Y-81821428D01*
X142997200Y-81821428D02*
X142901961Y-81916666D01*
X142901961Y-81916666D02*
X142806723Y-81964285D01*
X142806723Y-81964285D02*
X142616247Y-82011904D01*
X142616247Y-82011904D02*
X142473390Y-82011904D01*
X142473390Y-82011904D02*
X142282914Y-81964285D01*
X142282914Y-81964285D02*
X142187676Y-81916666D01*
X142187676Y-81916666D02*
X142092438Y-81821428D01*
X142092438Y-81821428D02*
X142044819Y-81678571D01*
X142044819Y-81678571D02*
X142044819Y-81583333D01*
X142044819Y-81583333D02*
X142092438Y-81440476D01*
X142092438Y-81440476D02*
X142140057Y-81392857D01*
X142140057Y-81011904D02*
X142092438Y-80964285D01*
X142092438Y-80964285D02*
X142044819Y-80869047D01*
X142044819Y-80869047D02*
X142044819Y-80630952D01*
X142044819Y-80630952D02*
X142092438Y-80535714D01*
X142092438Y-80535714D02*
X142140057Y-80488095D01*
X142140057Y-80488095D02*
X142235295Y-80440476D01*
X142235295Y-80440476D02*
X142330533Y-80440476D01*
X142330533Y-80440476D02*
X142473390Y-80488095D01*
X142473390Y-80488095D02*
X143044819Y-81059523D01*
X143044819Y-81059523D02*
X143044819Y-80440476D01*
X142044819Y-80107142D02*
X142044819Y-79488095D01*
X142044819Y-79488095D02*
X142425771Y-79821428D01*
X142425771Y-79821428D02*
X142425771Y-79678571D01*
X142425771Y-79678571D02*
X142473390Y-79583333D01*
X142473390Y-79583333D02*
X142521009Y-79535714D01*
X142521009Y-79535714D02*
X142616247Y-79488095D01*
X142616247Y-79488095D02*
X142854342Y-79488095D01*
X142854342Y-79488095D02*
X142949580Y-79535714D01*
X142949580Y-79535714D02*
X142997200Y-79583333D01*
X142997200Y-79583333D02*
X143044819Y-79678571D01*
X143044819Y-79678571D02*
X143044819Y-79964285D01*
X143044819Y-79964285D02*
X142997200Y-80059523D01*
X142997200Y-80059523D02*
X142949580Y-80107142D01*
X149833333Y-102609580D02*
X149785714Y-102657200D01*
X149785714Y-102657200D02*
X149642857Y-102704819D01*
X149642857Y-102704819D02*
X149547619Y-102704819D01*
X149547619Y-102704819D02*
X149404762Y-102657200D01*
X149404762Y-102657200D02*
X149309524Y-102561961D01*
X149309524Y-102561961D02*
X149261905Y-102466723D01*
X149261905Y-102466723D02*
X149214286Y-102276247D01*
X149214286Y-102276247D02*
X149214286Y-102133390D01*
X149214286Y-102133390D02*
X149261905Y-101942914D01*
X149261905Y-101942914D02*
X149309524Y-101847676D01*
X149309524Y-101847676D02*
X149404762Y-101752438D01*
X149404762Y-101752438D02*
X149547619Y-101704819D01*
X149547619Y-101704819D02*
X149642857Y-101704819D01*
X149642857Y-101704819D02*
X149785714Y-101752438D01*
X149785714Y-101752438D02*
X149833333Y-101800057D01*
X150166667Y-101704819D02*
X150833333Y-101704819D01*
X150833333Y-101704819D02*
X150404762Y-102704819D01*
X147861905Y-115134819D02*
X147861905Y-114134819D01*
X147861905Y-114134819D02*
X148100000Y-114134819D01*
X148100000Y-114134819D02*
X148242857Y-114182438D01*
X148242857Y-114182438D02*
X148338095Y-114277676D01*
X148338095Y-114277676D02*
X148385714Y-114372914D01*
X148385714Y-114372914D02*
X148433333Y-114563390D01*
X148433333Y-114563390D02*
X148433333Y-114706247D01*
X148433333Y-114706247D02*
X148385714Y-114896723D01*
X148385714Y-114896723D02*
X148338095Y-114991961D01*
X148338095Y-114991961D02*
X148242857Y-115087200D01*
X148242857Y-115087200D02*
X148100000Y-115134819D01*
X148100000Y-115134819D02*
X147861905Y-115134819D01*
X149385714Y-115134819D02*
X148814286Y-115134819D01*
X149100000Y-115134819D02*
X149100000Y-114134819D01*
X149100000Y-114134819D02*
X149004762Y-114277676D01*
X149004762Y-114277676D02*
X148909524Y-114372914D01*
X148909524Y-114372914D02*
X148814286Y-114420533D01*
X149833333Y-103859580D02*
X149785714Y-103907200D01*
X149785714Y-103907200D02*
X149642857Y-103954819D01*
X149642857Y-103954819D02*
X149547619Y-103954819D01*
X149547619Y-103954819D02*
X149404762Y-103907200D01*
X149404762Y-103907200D02*
X149309524Y-103811961D01*
X149309524Y-103811961D02*
X149261905Y-103716723D01*
X149261905Y-103716723D02*
X149214286Y-103526247D01*
X149214286Y-103526247D02*
X149214286Y-103383390D01*
X149214286Y-103383390D02*
X149261905Y-103192914D01*
X149261905Y-103192914D02*
X149309524Y-103097676D01*
X149309524Y-103097676D02*
X149404762Y-103002438D01*
X149404762Y-103002438D02*
X149547619Y-102954819D01*
X149547619Y-102954819D02*
X149642857Y-102954819D01*
X149642857Y-102954819D02*
X149785714Y-103002438D01*
X149785714Y-103002438D02*
X149833333Y-103050057D01*
X150309524Y-103954819D02*
X150500000Y-103954819D01*
X150500000Y-103954819D02*
X150595238Y-103907200D01*
X150595238Y-103907200D02*
X150642857Y-103859580D01*
X150642857Y-103859580D02*
X150738095Y-103716723D01*
X150738095Y-103716723D02*
X150785714Y-103526247D01*
X150785714Y-103526247D02*
X150785714Y-103145295D01*
X150785714Y-103145295D02*
X150738095Y-103050057D01*
X150738095Y-103050057D02*
X150690476Y-103002438D01*
X150690476Y-103002438D02*
X150595238Y-102954819D01*
X150595238Y-102954819D02*
X150404762Y-102954819D01*
X150404762Y-102954819D02*
X150309524Y-103002438D01*
X150309524Y-103002438D02*
X150261905Y-103050057D01*
X150261905Y-103050057D02*
X150214286Y-103145295D01*
X150214286Y-103145295D02*
X150214286Y-103383390D01*
X150214286Y-103383390D02*
X150261905Y-103478628D01*
X150261905Y-103478628D02*
X150309524Y-103526247D01*
X150309524Y-103526247D02*
X150404762Y-103573866D01*
X150404762Y-103573866D02*
X150595238Y-103573866D01*
X150595238Y-103573866D02*
X150690476Y-103526247D01*
X150690476Y-103526247D02*
X150738095Y-103478628D01*
X150738095Y-103478628D02*
X150785714Y-103383390D01*
X122528627Y-96376190D02*
X123004818Y-96376190D01*
X122004818Y-96709523D02*
X122528627Y-96376190D01*
X122528627Y-96376190D02*
X122004818Y-96042857D01*
X123004818Y-95185714D02*
X123004818Y-95757142D01*
X123004818Y-95471428D02*
X122004818Y-95471428D01*
X122004818Y-95471428D02*
X122147675Y-95566666D01*
X122147675Y-95566666D02*
X122242913Y-95661904D01*
X122242913Y-95661904D02*
X122290532Y-95757142D01*
X152954819Y-79416666D02*
X152478628Y-79749999D01*
X152954819Y-79988094D02*
X151954819Y-79988094D01*
X151954819Y-79988094D02*
X151954819Y-79607142D01*
X151954819Y-79607142D02*
X152002438Y-79511904D01*
X152002438Y-79511904D02*
X152050057Y-79464285D01*
X152050057Y-79464285D02*
X152145295Y-79416666D01*
X152145295Y-79416666D02*
X152288152Y-79416666D01*
X152288152Y-79416666D02*
X152383390Y-79464285D01*
X152383390Y-79464285D02*
X152431009Y-79511904D01*
X152431009Y-79511904D02*
X152478628Y-79607142D01*
X152478628Y-79607142D02*
X152478628Y-79988094D01*
X151954819Y-79083332D02*
X151954819Y-78464285D01*
X151954819Y-78464285D02*
X152335771Y-78797618D01*
X152335771Y-78797618D02*
X152335771Y-78654761D01*
X152335771Y-78654761D02*
X152383390Y-78559523D01*
X152383390Y-78559523D02*
X152431009Y-78511904D01*
X152431009Y-78511904D02*
X152526247Y-78464285D01*
X152526247Y-78464285D02*
X152764342Y-78464285D01*
X152764342Y-78464285D02*
X152859580Y-78511904D01*
X152859580Y-78511904D02*
X152907200Y-78559523D01*
X152907200Y-78559523D02*
X152954819Y-78654761D01*
X152954819Y-78654761D02*
X152954819Y-78940475D01*
X152954819Y-78940475D02*
X152907200Y-79035713D01*
X152907200Y-79035713D02*
X152859580Y-79083332D01*
X142857142Y-84204819D02*
X142523809Y-83728628D01*
X142285714Y-84204819D02*
X142285714Y-83204819D01*
X142285714Y-83204819D02*
X142666666Y-83204819D01*
X142666666Y-83204819D02*
X142761904Y-83252438D01*
X142761904Y-83252438D02*
X142809523Y-83300057D01*
X142809523Y-83300057D02*
X142857142Y-83395295D01*
X142857142Y-83395295D02*
X142857142Y-83538152D01*
X142857142Y-83538152D02*
X142809523Y-83633390D01*
X142809523Y-83633390D02*
X142761904Y-83681009D01*
X142761904Y-83681009D02*
X142666666Y-83728628D01*
X142666666Y-83728628D02*
X142285714Y-83728628D01*
X143238095Y-83300057D02*
X143285714Y-83252438D01*
X143285714Y-83252438D02*
X143380952Y-83204819D01*
X143380952Y-83204819D02*
X143619047Y-83204819D01*
X143619047Y-83204819D02*
X143714285Y-83252438D01*
X143714285Y-83252438D02*
X143761904Y-83300057D01*
X143761904Y-83300057D02*
X143809523Y-83395295D01*
X143809523Y-83395295D02*
X143809523Y-83490533D01*
X143809523Y-83490533D02*
X143761904Y-83633390D01*
X143761904Y-83633390D02*
X143190476Y-84204819D01*
X143190476Y-84204819D02*
X143809523Y-84204819D01*
X144761904Y-84204819D02*
X144190476Y-84204819D01*
X144476190Y-84204819D02*
X144476190Y-83204819D01*
X144476190Y-83204819D02*
X144380952Y-83347676D01*
X144380952Y-83347676D02*
X144285714Y-83442914D01*
X144285714Y-83442914D02*
X144190476Y-83490533D01*
D13*
%TO.C,R2*%
X151765000Y-85227064D02*
X151765000Y-84772936D01*
X153235000Y-85227064D02*
X153235000Y-84772936D01*
%TO.C,C24*%
X142372164Y-102890000D02*
X142587836Y-102890000D01*
X142372164Y-103610000D02*
X142587836Y-103610000D01*
%TO.C,C3*%
X144181118Y-99547647D02*
X144181118Y-99763319D01*
X144901118Y-99547647D02*
X144901118Y-99763319D01*
%TO.C,R15*%
X136870000Y-82653641D02*
X136870000Y-82346359D01*
X137630000Y-82653641D02*
X137630000Y-82346359D01*
%TO.C,R12*%
X133870000Y-82653641D02*
X133870000Y-82346359D01*
X134630000Y-82653641D02*
X134630000Y-82346359D01*
%TO.C,U1*%
X131890000Y-91527500D02*
X132840000Y-91527500D01*
X131890000Y-92477500D02*
X131890000Y-91527500D01*
X131890000Y-100797500D02*
X131890000Y-101747500D01*
X131890000Y-101747500D02*
X132840000Y-101747500D01*
X141160000Y-91527500D02*
X141870000Y-91527500D01*
X142110000Y-92477500D02*
X142110000Y-91827500D01*
X142110000Y-100797500D02*
X142110000Y-101747500D01*
X142110000Y-101747500D02*
X141160000Y-101747500D01*
X142440000Y-91767500D02*
X142110000Y-91527500D01*
X142440000Y-91287500D01*
X142440000Y-91767500D01*
G36*
X142440000Y-91767500D02*
G01*
X142110000Y-91527500D01*
X142440000Y-91287500D01*
X142440000Y-91767500D01*
G37*
%TO.C,C15*%
X146392164Y-92890000D02*
X146607836Y-92890000D01*
X146392164Y-93610000D02*
X146607836Y-93610000D01*
%TO.C,R19*%
X140870000Y-82653641D02*
X140870000Y-82346359D01*
X141630000Y-82653641D02*
X141630000Y-82346359D01*
%TO.C,R1*%
X146194759Y-101795483D02*
X145887477Y-101795483D01*
X146194759Y-102555483D02*
X145887477Y-102555483D01*
%TO.C,U3*%
X149590000Y-104590000D02*
X149590000Y-105849999D01*
X149590000Y-111410000D02*
X149590000Y-110150001D01*
X153350000Y-104589999D02*
X149590000Y-104590000D01*
X153350000Y-111410001D02*
X149590000Y-111410000D01*
X154870000Y-111640000D02*
X154390000Y-111640000D01*
X154630000Y-111310000D01*
X154870000Y-111640000D01*
G36*
X154870000Y-111640000D02*
G01*
X154390000Y-111640000D01*
X154630000Y-111310000D01*
X154870000Y-111640000D01*
G37*
%TO.C,C10*%
X156390000Y-108892164D02*
X156390000Y-109107836D01*
X157110000Y-108892164D02*
X157110000Y-109107836D01*
%TO.C,C1*%
X144148954Y-101815483D02*
X143933282Y-101815483D01*
X144148954Y-102535483D02*
X143933282Y-102535483D01*
%TO.C,U2*%
X145775000Y-82275000D02*
X146035000Y-82275000D01*
X145775000Y-85000000D02*
X145775000Y-82275000D01*
X145775000Y-85000000D02*
X145775000Y-87725000D01*
X145775000Y-87725000D02*
X146035000Y-87725000D01*
X151225000Y-82275000D02*
X150965000Y-82275000D01*
X151225000Y-85000000D02*
X151225000Y-82275000D01*
X151225000Y-85000000D02*
X151225000Y-87725000D01*
X151225000Y-87725000D02*
X150965000Y-87725000D01*
X151295000Y-81732500D02*
X150965000Y-81492500D01*
X151295000Y-81252500D01*
X151295000Y-81732500D01*
G36*
X151295000Y-81732500D02*
G01*
X150965000Y-81492500D01*
X151295000Y-81252500D01*
X151295000Y-81732500D01*
G37*
%TO.C,R7*%
X146346359Y-96120000D02*
X146653641Y-96120000D01*
X146346359Y-96880000D02*
X146653641Y-96880000D01*
%TO.C,R13*%
X134870000Y-82653641D02*
X134870000Y-82346359D01*
X135630000Y-82653641D02*
X135630000Y-82346359D01*
%TO.C,C22*%
X131107836Y-102640000D02*
X130892164Y-102640000D01*
X131107836Y-103360000D02*
X130892164Y-103360000D01*
%TO.C,C21*%
X129857836Y-93640000D02*
X129642164Y-93640000D01*
X129857836Y-94360000D02*
X129642164Y-94360000D01*
%TO.C,C25*%
X141622164Y-103890000D02*
X141837836Y-103890000D01*
X141622164Y-104610000D02*
X141837836Y-104610000D01*
%TO.C,R9*%
X148870000Y-93606358D02*
X148870000Y-93913640D01*
X149630000Y-93606358D02*
X149630000Y-93913640D01*
%TO.C,J4*%
X127970000Y-119514999D02*
X129300000Y-119514999D01*
X127970000Y-120625000D02*
X127970000Y-119514999D01*
X127970000Y-124625000D02*
X150950000Y-124625000D01*
X127970000Y-133255001D02*
X127970000Y-124625000D01*
X127970000Y-133255001D02*
X150950000Y-133255000D01*
X128090000Y-133255000D02*
X128090000Y-124625000D01*
X128208095Y-133255000D02*
X128208095Y-124625001D01*
X128326190Y-133255000D02*
X128326190Y-124625000D01*
X128444285Y-133255001D02*
X128444285Y-124625000D01*
X128562380Y-133255001D02*
X128562380Y-124625000D01*
X128680475Y-133255000D02*
X128680475Y-124625000D01*
X128798570Y-133255000D02*
X128798570Y-124625001D01*
X128916665Y-133255000D02*
X128916665Y-124625000D01*
X128940000Y-122115001D02*
X128940000Y-121735000D01*
X128940000Y-124625001D02*
X128940000Y-124215000D01*
X129034760Y-133255001D02*
X129034760Y-124625000D01*
X129152855Y-133255000D02*
X129152855Y-124625000D01*
X129270950Y-133255000D02*
X129270950Y-124625001D01*
X129389045Y-133255000D02*
X129389045Y-124625000D01*
X129507140Y-133255001D02*
X129507140Y-124625000D01*
X129625235Y-133255001D02*
X129625235Y-124625000D01*
X129660000Y-122115001D02*
X129660000Y-121735000D01*
X129660000Y-124625001D02*
X129660000Y-124215000D01*
X129743330Y-133255000D02*
X129743330Y-124625000D01*
X129861425Y-133255000D02*
X129861425Y-124625001D01*
X129979520Y-133255000D02*
X129979520Y-124625000D01*
X130097615Y-133255001D02*
X130097615Y-124625000D01*
X130215710Y-133255000D02*
X130215710Y-124625000D01*
X130333805Y-133255000D02*
X130333805Y-124625001D01*
X130451900Y-133255000D02*
X130451900Y-124625000D01*
X130570000Y-133255000D02*
X130570000Y-124625001D01*
X131480000Y-122115000D02*
X131480000Y-121675000D01*
X131480000Y-124625000D02*
X131480000Y-124215000D01*
X132200000Y-122115000D02*
X132200000Y-121675000D01*
X132200000Y-124625000D02*
X132200000Y-124215000D01*
X133110000Y-133255000D02*
X133110000Y-124625000D01*
X134020000Y-122115000D02*
X134020000Y-121675000D01*
X134020000Y-124625000D02*
X134020000Y-124215000D01*
X134740000Y-122115000D02*
X134740000Y-121675000D01*
X134740000Y-124625000D02*
X134740000Y-124215000D01*
X135650000Y-133255001D02*
X135650000Y-124625000D01*
X136560000Y-122115000D02*
X136560000Y-121675000D01*
X136560000Y-124625000D02*
X136560000Y-124215000D01*
X137280000Y-122115000D02*
X137280000Y-121675000D01*
X137280000Y-124625000D02*
X137280000Y-124215000D01*
X138190000Y-133255000D02*
X138190000Y-124625000D01*
X139100000Y-122115001D02*
X139100000Y-121675001D01*
X139100000Y-124625001D02*
X139100000Y-124215000D01*
X139820000Y-122115000D02*
X139820000Y-121675000D01*
X139820000Y-124625000D02*
X139820000Y-124215000D01*
X140730000Y-133255000D02*
X140730000Y-124625001D01*
X141640000Y-122115000D02*
X141640000Y-121675000D01*
X141640000Y-124625000D02*
X141640000Y-124215000D01*
X142360000Y-122115001D02*
X142360000Y-121675001D01*
X142360000Y-124625001D02*
X142360000Y-124215000D01*
X143270000Y-133255000D02*
X143270000Y-124625000D01*
X144180000Y-122115000D02*
X144180000Y-121675000D01*
X144180000Y-124625000D02*
X144180000Y-124215000D01*
X144900000Y-122115000D02*
X144900000Y-121675000D01*
X144900000Y-124625000D02*
X144900000Y-124215000D01*
X145810000Y-133255001D02*
X145810000Y-124625000D01*
X146720000Y-122115000D02*
X146720000Y-121675000D01*
X146720000Y-124625000D02*
X146720000Y-124215000D01*
X147440000Y-122115000D02*
X147440000Y-121675000D01*
X147440000Y-124625000D02*
X147440000Y-124215000D01*
X148350000Y-133255000D02*
X148350000Y-124625000D01*
X149260000Y-122115000D02*
X149260000Y-121675000D01*
X149260000Y-124625000D02*
X149260000Y-124215000D01*
X149980000Y-122115000D02*
X149980000Y-121675000D01*
X149980000Y-124625000D02*
X149980000Y-124215000D01*
X150950000Y-133255000D02*
X150950000Y-124625000D01*
%TO.C,C20*%
X129857836Y-95140000D02*
X129642164Y-95140000D01*
X129857836Y-95860000D02*
X129642164Y-95860000D01*
%TO.C,C13*%
X138390000Y-89357836D02*
X138390000Y-89142164D01*
X139110000Y-89357836D02*
X139110000Y-89142164D01*
%TO.C,C17*%
X135890000Y-103892164D02*
X135890000Y-104107836D01*
X136610000Y-103892164D02*
X136610000Y-104107836D01*
%TO.C,C5*%
X127390000Y-95162164D02*
X127390000Y-95377836D01*
X128110000Y-95162164D02*
X128110000Y-95377836D01*
%TO.C,R18*%
X139870000Y-82653641D02*
X139870000Y-82346359D01*
X140630000Y-82653641D02*
X140630000Y-82346359D01*
%TO.C,J3*%
X132380000Y-75900000D02*
X132380000Y-73200000D01*
X134900000Y-77620000D02*
X133850000Y-77620000D01*
X134900000Y-78950000D02*
X134900000Y-77620000D01*
X146150000Y-77620000D02*
X144600000Y-77620000D01*
X147620000Y-73200000D02*
X147620000Y-75900000D01*
%TO.C,R16*%
X137870000Y-82653641D02*
X137870000Y-82346359D01*
X138630000Y-82653641D02*
X138630000Y-82346359D01*
%TO.C,C8*%
X156390000Y-106142164D02*
X156390000Y-106357836D01*
X157110000Y-106142164D02*
X157110000Y-106357836D01*
%TO.C,R4*%
X125620000Y-81153641D02*
X125620000Y-80846359D01*
X126380000Y-81153641D02*
X126380000Y-80846359D01*
%TO.C,C19*%
X139390000Y-89357836D02*
X139390000Y-89142164D01*
X140110000Y-89357836D02*
X140110000Y-89142164D01*
%TO.C,C14*%
X146392164Y-93890000D02*
X146607836Y-93890000D01*
X146392164Y-94610000D02*
X146607836Y-94610000D01*
%TO.C,R20*%
X143163640Y-85620000D02*
X142856358Y-85620000D01*
X143163640Y-86380000D02*
X142856358Y-86380000D01*
%TO.C,R23*%
X130163640Y-104870000D02*
X129856358Y-104870000D01*
X130163640Y-105630000D02*
X129856358Y-105630000D01*
%TO.C,C4*%
X152872164Y-87640000D02*
X153087836Y-87640000D01*
X152872164Y-88360000D02*
X153087836Y-88360000D01*
%TO.C,R22*%
X130163640Y-103870000D02*
X129856358Y-103870000D01*
X130163640Y-104630000D02*
X129856358Y-104630000D01*
%TO.C,C6*%
X127390000Y-97607836D02*
X127390000Y-97392164D01*
X128110000Y-97607836D02*
X128110000Y-97392164D01*
%TO.C,R6*%
X146346359Y-95120000D02*
X146653641Y-95120000D01*
X146346359Y-95880000D02*
X146653641Y-95880000D01*
%TO.C,SW2*%
X120650000Y-79650001D02*
X120650000Y-80575000D01*
X120650000Y-83425000D02*
X120650000Y-84349999D01*
X122775000Y-79550000D02*
X122225000Y-79550000D01*
X122775000Y-84450000D02*
X122225000Y-84450000D01*
X124350000Y-79650001D02*
X124350000Y-84349999D01*
%TO.C,C11*%
X136890000Y-103892164D02*
X136890000Y-104107836D01*
X137610000Y-103892164D02*
X137610000Y-104107836D01*
%TO.C,R10*%
X153153641Y-89120000D02*
X152846359Y-89120000D01*
X153153641Y-89880000D02*
X152846359Y-89880000D01*
%TO.C,R17*%
X138870000Y-82653641D02*
X138870000Y-82346359D01*
X139630000Y-82653641D02*
X139630000Y-82346359D01*
%TO.C,SW1*%
X154650000Y-84349999D02*
X154650000Y-79650001D01*
X156225000Y-79550000D02*
X156775000Y-79550000D01*
X156225000Y-84450000D02*
X156775000Y-84450000D01*
X158350000Y-80575000D02*
X158350000Y-79650001D01*
X158350000Y-84349999D02*
X158350000Y-83425000D01*
%TO.C,R8*%
X148870000Y-97903641D02*
X148870000Y-97596359D01*
X149630000Y-97903641D02*
X149630000Y-97596359D01*
%TO.C,J1*%
X154900000Y-91330000D02*
X153200000Y-91330000D01*
X154900000Y-100670000D02*
X153200000Y-100670000D01*
%TO.C,R14*%
X135870000Y-82653641D02*
X135870000Y-82346359D01*
X136630000Y-82653641D02*
X136630000Y-82346359D01*
%TO.C,R5*%
X129903641Y-96620000D02*
X129596359Y-96620000D01*
X129903641Y-97380000D02*
X129596359Y-97380000D01*
%TO.C,C16*%
X142890000Y-92107836D02*
X142890000Y-91892164D01*
X143610000Y-92107836D02*
X143610000Y-91892164D01*
%TO.C,C12*%
X129857836Y-97640000D02*
X129642164Y-97640000D01*
X129857836Y-98360000D02*
X129642164Y-98360000D01*
%TO.C,R11*%
X145120000Y-110903641D02*
X145120000Y-110596359D01*
X145880000Y-110903641D02*
X145880000Y-110596359D01*
%TO.C,D2*%
X125750000Y-89500000D02*
X125750000Y-82500000D01*
X125750000Y-89500000D02*
X131250000Y-89500000D01*
X129400000Y-83300000D02*
X127600000Y-83300000D01*
X129400000Y-88700000D02*
X127600000Y-88700000D01*
X130800000Y-82500000D02*
X125750000Y-82500000D01*
X131250000Y-82950000D02*
X130800000Y-82500000D01*
X131250000Y-89500000D02*
X131250000Y-82950000D01*
%TO.C,C2*%
X143181118Y-99547647D02*
X143181118Y-99763319D01*
X143901118Y-99547647D02*
X143901118Y-99763319D01*
D12*
%TO.C,L1*%
X145441118Y-100475483D02*
X145441118Y-97875483D01*
X145941118Y-100975483D02*
X147141118Y-100975483D01*
X147141118Y-97375483D02*
X145941118Y-97375483D01*
X147641118Y-97875483D02*
X147641118Y-100475483D01*
X145441118Y-97875483D02*
G75*
G02*
X145941118Y-97375483I500001J-1D01*
G01*
X145941118Y-100975483D02*
G75*
G02*
X145441118Y-100475483I0J500000D01*
G01*
X147141118Y-97375483D02*
G75*
G02*
X147641118Y-97875483I-1J-500001D01*
G01*
X147641118Y-100475483D02*
G75*
G02*
X147141118Y-100975483I-500000J0D01*
G01*
D14*
X146691118Y-96675483D02*
G75*
G02*
X146391118Y-96675483I-150000J0D01*
G01*
X146391118Y-96675483D02*
G75*
G02*
X146691118Y-96675483I150000J0D01*
G01*
D13*
%TO.C,J2*%
X122645000Y-107269999D02*
X122645000Y-102130001D01*
X122645000Y-109870000D02*
X122645000Y-108540000D01*
X123975000Y-109870000D02*
X122645000Y-109870000D01*
X125305000Y-102130001D02*
X122645000Y-102130001D01*
X125305000Y-107269999D02*
X122645000Y-107269999D01*
X125305000Y-107269999D02*
X125305000Y-102130001D01*
%TO.C,C23*%
X143390000Y-80857836D02*
X143390000Y-80642164D01*
X144110000Y-80857836D02*
X144110000Y-80642164D01*
%TO.C,C7*%
X152892164Y-102040000D02*
X153107836Y-102040000D01*
X152892164Y-102760000D02*
X153107836Y-102760000D01*
%TO.C,D1*%
X147800000Y-113985000D02*
X150085000Y-113985000D01*
X150085000Y-112515000D02*
X147800000Y-112515000D01*
X150085000Y-113985000D02*
X150085000Y-112515000D01*
%TO.C,C9*%
X151892164Y-103140000D02*
X152107836Y-103140000D01*
X151892164Y-103860000D02*
X152107836Y-103860000D01*
%TO.C,Y1*%
X123350000Y-97900000D02*
X126650000Y-97900000D01*
X126650000Y-97900000D02*
X126650000Y-93900000D01*
%TO.C,R3*%
X152120000Y-81403641D02*
X152120000Y-81096359D01*
X152880000Y-81403641D02*
X152880000Y-81096359D01*
%TO.C,C18*%
X135140000Y-89357836D02*
X135140000Y-89142164D01*
X135860000Y-89357836D02*
X135860000Y-89142164D01*
%TO.C,R21*%
X143163640Y-84620000D02*
X142856358Y-84620000D01*
X143163640Y-85380000D02*
X142856358Y-85380000D01*
%TD*%
M02*
