%TF.GenerationSoftware,KiCad,Pcbnew,8.0.6*%
%TF.CreationDate,2025-04-24T20:36:05+02:00*%
%TF.ProjectId,Picroscope,50696372-6f73-4636-9f70-652e6b696361,rev?*%
%TF.SameCoordinates,Original*%
%TF.FileFunction,Copper,L2,Inr*%
%TF.FilePolarity,Positive*%
%FSLAX46Y46*%
G04 Gerber Fmt 4.6, Leading zero omitted, Abs format (unit mm)*
G04 Created by KiCad (PCBNEW 8.0.6) date 2025-04-24 20:36:05*
%MOMM*%
%LPD*%
G01*
G04 APERTURE LIST*
%TA.AperFunction,HeatsinkPad*%
%ADD10C,0.500000*%
%TD*%
%TA.AperFunction,ComponentPad*%
%ADD11R,1.700000X1.700000*%
%TD*%
%TA.AperFunction,ComponentPad*%
%ADD12O,1.700000X1.700000*%
%TD*%
%TA.AperFunction,ComponentPad*%
%ADD13C,1.800000*%
%TD*%
%TA.AperFunction,ComponentPad*%
%ADD14O,2.100000X1.000000*%
%TD*%
%TA.AperFunction,ComponentPad*%
%ADD15O,1.800000X1.000000*%
%TD*%
%TA.AperFunction,ViaPad*%
%ADD16C,0.600000*%
%TD*%
G04 APERTURE END LIST*
D10*
%TO.N,GND*%
%TO.C,U1*%
X138450000Y-95187500D03*
X137000000Y-95187500D03*
X135550000Y-95187500D03*
X138450000Y-96637500D03*
X137000000Y-96637500D03*
X135550000Y-96637500D03*
X138450000Y-98087500D03*
X137000000Y-98087500D03*
X135550000Y-98087500D03*
%TD*%
D11*
%TO.N,+3V3*%
%TO.C,J4*%
X129300000Y-120625000D03*
D12*
%TO.N,GND*%
X129300000Y-123165000D03*
%TO.N,/I2C1_SCL*%
X131840000Y-120625000D03*
%TO.N,/I2C1_SDA*%
X131840000Y-123165000D03*
%TO.N,/CAM_VSYNC*%
X134379999Y-120625000D03*
%TO.N,/CAM_HSYNC*%
X134380000Y-123165000D03*
%TO.N,/CAM_PCLK*%
X136920000Y-120625000D03*
%TO.N,/CLKOUT0*%
X136920000Y-123165000D03*
%TO.N,/CAM_D9*%
X139460000Y-120625000D03*
%TO.N,/CAM_D8*%
X139460000Y-123165000D03*
%TO.N,/CAM_D7*%
X142000000Y-120625000D03*
%TO.N,/CAM_D6*%
X142000000Y-123165000D03*
%TO.N,/CAM_D5*%
X144540000Y-120625000D03*
%TO.N,/CAM_D4*%
X144540000Y-123165000D03*
%TO.N,/CAM_D3*%
X147080001Y-120625000D03*
%TO.N,/CAM_D2*%
X147080000Y-123165000D03*
%TO.N,/CAM_Reset*%
X149620000Y-120625000D03*
%TO.N,/CAM_PWDN*%
X149620000Y-123165000D03*
%TD*%
D13*
%TO.N,GND*%
%TO.C,J3*%
X147850000Y-72100000D03*
X147250000Y-77000000D03*
X132750000Y-77000000D03*
X132150000Y-72100000D03*
%TD*%
D14*
%TO.N,/USB_SHIELD*%
%TO.C,J1*%
X151895000Y-100320000D03*
D15*
X156075000Y-100320000D03*
D14*
X151895000Y-91680000D03*
D15*
X156075000Y-91680000D03*
%TD*%
D11*
%TO.N,/MCU/SWDIO*%
%TO.C,J2*%
X123975000Y-108540000D03*
D12*
%TO.N,GND*%
X123975000Y-106000000D03*
%TO.N,/MCU/SWDCLK*%
X123975000Y-103460001D03*
%TD*%
D16*
%TO.N,GND*%
X134000000Y-130001750D03*
X146000000Y-72001750D03*
X138000000Y-130001750D03*
X154000000Y-124001750D03*
X147750000Y-93250000D03*
X156000000Y-112001750D03*
X143000000Y-104250000D03*
X152000000Y-72001750D03*
X144000000Y-72001750D03*
X126000000Y-130001750D03*
X134000000Y-128001750D03*
X152000000Y-122001750D03*
X152000000Y-118001750D03*
X137250000Y-105250000D03*
X124000000Y-112001750D03*
X129270000Y-94750000D03*
X122250000Y-80750000D03*
X122000000Y-106001750D03*
X124000000Y-122001750D03*
X148750000Y-99250000D03*
X142000000Y-130001750D03*
X135500000Y-88000000D03*
X126000000Y-126001750D03*
X136250000Y-105250000D03*
X126000000Y-86001750D03*
X156000000Y-104001750D03*
X156000000Y-76001750D03*
X136000000Y-72001750D03*
X150000000Y-116001750D03*
X147750000Y-94250000D03*
X156000000Y-128001750D03*
X130520000Y-102150000D03*
X154000000Y-78001750D03*
X122000000Y-100001750D03*
X148000000Y-128001750D03*
X156000000Y-118001750D03*
X143750000Y-82000000D03*
X122000000Y-92001750D03*
X128000000Y-128001750D03*
X122000000Y-122001750D03*
X156000000Y-120001750D03*
X150000000Y-128001750D03*
X124000000Y-118001750D03*
X130000000Y-90001750D03*
X128000000Y-92001750D03*
X126000000Y-90001750D03*
X122000000Y-98001750D03*
X122000000Y-104001750D03*
X142000000Y-128001750D03*
X124000000Y-100001750D03*
X146000000Y-130001750D03*
X144000000Y-90750000D03*
X124150000Y-98250000D03*
X150000000Y-72001750D03*
X132000000Y-84001750D03*
X124000000Y-120001750D03*
X128000000Y-74001750D03*
X148000000Y-126001750D03*
X152000000Y-112001750D03*
X128000000Y-90001750D03*
X126000000Y-78001750D03*
X122000000Y-114001750D03*
X154000000Y-122001750D03*
X122000000Y-76001750D03*
X150000000Y-126001750D03*
X143250000Y-76500000D03*
X122000000Y-74001750D03*
X134000000Y-126001750D03*
X130000000Y-128001750D03*
X148750000Y-92250000D03*
X150000000Y-130001750D03*
X122000000Y-72001750D03*
X154000000Y-96001750D03*
X154250000Y-88000000D03*
X154250000Y-102400000D03*
X124000000Y-128001750D03*
X127750000Y-98750000D03*
X156000000Y-130001750D03*
X156750000Y-83250000D03*
X125850000Y-93500000D03*
X154000000Y-128001750D03*
X142000000Y-72001750D03*
X127000000Y-94800000D03*
X124000000Y-88001750D03*
X128000000Y-126001750D03*
X132000000Y-82001750D03*
X136000000Y-126001750D03*
X122000000Y-88001750D03*
X122000000Y-96001750D03*
X122000000Y-120001750D03*
X144636805Y-100917666D03*
X126000000Y-122001750D03*
X122000000Y-116001750D03*
X136000000Y-130001750D03*
X148000000Y-130001750D03*
X126000000Y-118001750D03*
X152000000Y-120001750D03*
X152000000Y-76001750D03*
X140250000Y-76500000D03*
X130000000Y-130001750D03*
X137250000Y-76500000D03*
X152000000Y-130001750D03*
X128500000Y-94000000D03*
X138000000Y-72001750D03*
X126000000Y-128001750D03*
X142000000Y-126001750D03*
X156000000Y-72001750D03*
X122000000Y-118001750D03*
X138000000Y-128001750D03*
X154000000Y-130001750D03*
X134000000Y-80001750D03*
X156000000Y-102001750D03*
X124000000Y-90001750D03*
X154250000Y-89500000D03*
X140000000Y-126001750D03*
X128000000Y-76001750D03*
X124000000Y-124001750D03*
X122250000Y-83250000D03*
X144036804Y-100917664D03*
X152000000Y-124001750D03*
X126000000Y-92001750D03*
X156750000Y-80750000D03*
X132000000Y-126001750D03*
X146595000Y-80000000D03*
X124000000Y-92001750D03*
X126000000Y-120001750D03*
X122000000Y-108001750D03*
X126000000Y-112001750D03*
X152000000Y-128001750D03*
X126000000Y-110001750D03*
X128000000Y-72001750D03*
X136000000Y-128001750D03*
X126000000Y-124001750D03*
X140000000Y-128001750D03*
X143750000Y-103250000D03*
X124000000Y-130001750D03*
X135750000Y-76500000D03*
X153300000Y-103500000D03*
X130000000Y-126001750D03*
X128000000Y-130001750D03*
X148750000Y-100500000D03*
X129250000Y-98750000D03*
X156300000Y-110300000D03*
X144000000Y-128001750D03*
X144000000Y-126001750D03*
X156000000Y-124001750D03*
X122000000Y-112001750D03*
X154000000Y-112001750D03*
X144000000Y-130001750D03*
X156750000Y-107500000D03*
X129250000Y-88500000D03*
X138750000Y-76500000D03*
X138000000Y-126001750D03*
X150000000Y-74001750D03*
X122000000Y-90001750D03*
X152000000Y-126001750D03*
X122000000Y-130001750D03*
X139250000Y-87500000D03*
X156000000Y-126001750D03*
X124000000Y-126001750D03*
X122000000Y-124001750D03*
X122000000Y-110001750D03*
X140000000Y-72001750D03*
X130000000Y-80001750D03*
X154000000Y-126001750D03*
X146000000Y-126001750D03*
X142750000Y-102175483D03*
X122000000Y-126001750D03*
X132000000Y-128001750D03*
X132000000Y-130001750D03*
X122000000Y-102001750D03*
X132000000Y-80001750D03*
X122000000Y-128001750D03*
X154000000Y-120001750D03*
X156000000Y-88001750D03*
X122000000Y-94001750D03*
X150500000Y-113250000D03*
X130000000Y-74001750D03*
X130000000Y-72001750D03*
X156000000Y-122001750D03*
X146000000Y-128001750D03*
X156000000Y-90001750D03*
X140000000Y-130001750D03*
X134000000Y-72001750D03*
X154000000Y-118001750D03*
%TO.N,+3V3*%
X139200000Y-92750000D03*
X133000000Y-96037499D03*
X140750000Y-99237500D03*
X132400000Y-102250000D03*
X133000000Y-94037500D03*
X151750000Y-108000000D03*
X140750000Y-103200000D03*
X136700000Y-102800000D03*
X143519998Y-84000000D03*
%TO.N,+1V1*%
X145171499Y-98251040D03*
X144571500Y-98251040D03*
X137200000Y-100500000D03*
X137200000Y-92750000D03*
X134250000Y-97250000D03*
%TO.N,VBUS*%
X151520000Y-102520000D03*
X150200000Y-98400000D03*
X145250000Y-75000000D03*
X150200000Y-93600000D03*
%TO.N,/USB_CC2*%
X154000000Y-93750000D03*
%TO.N,/USB_CC1*%
X154000000Y-98000000D03*
%TO.N,/CLKOUT0*%
X129750000Y-92837500D03*
%TO.N,/MCU/SPI_CS*%
X150750000Y-84000000D03*
X143000000Y-94500000D03*
%TO.N,/MCU/RUN*%
X126000000Y-79750000D03*
X133750000Y-99250000D03*
%TO.N,/MCU/SPI_SCLK*%
X149135000Y-85750000D03*
%TO.N,/MCU/SPI_SD0*%
X147500000Y-87000000D03*
%TO.N,/MCU/SPI_SD1*%
X149135000Y-82750000D03*
X140000000Y-95000000D03*
%TO.N,/MCU/SPI_SD2*%
X140000000Y-96000000D03*
X147500000Y-84000000D03*
%TO.N,/MCU/SPI_SD3*%
X150750000Y-87000000D03*
%TD*%
%TA.AperFunction,Conductor*%
%TO.N,GND*%
G36*
X157942539Y-70020185D02*
G01*
X157988294Y-70072989D01*
X157999500Y-70124500D01*
X157999500Y-132375500D01*
X157979815Y-132442539D01*
X157927011Y-132488294D01*
X157875500Y-132499500D01*
X121124500Y-132499500D01*
X121057461Y-132479815D01*
X121011706Y-132427011D01*
X121000500Y-132375500D01*
X121000500Y-119727135D01*
X127949500Y-119727135D01*
X127949500Y-121522870D01*
X127949501Y-121522876D01*
X127955908Y-121582483D01*
X128006202Y-121717328D01*
X128006206Y-121717335D01*
X128092452Y-121832544D01*
X128092455Y-121832547D01*
X128207664Y-121918793D01*
X128207671Y-121918797D01*
X128342517Y-121969091D01*
X128342516Y-121969091D01*
X128349444Y-121969835D01*
X128402127Y-121975500D01*
X130197872Y-121975499D01*
X130257483Y-121969091D01*
X130392331Y-121918796D01*
X130507546Y-121832546D01*
X130593796Y-121717331D01*
X130642810Y-121585916D01*
X130684681Y-121529984D01*
X130750145Y-121505566D01*
X130818418Y-121520417D01*
X130846673Y-121541569D01*
X130968597Y-121663493D01*
X130968603Y-121663498D01*
X131154158Y-121793425D01*
X131197783Y-121848002D01*
X131204977Y-121917500D01*
X131173454Y-121979855D01*
X131154158Y-121996575D01*
X130968597Y-122126505D01*
X130801505Y-122293597D01*
X130665965Y-122487169D01*
X130665964Y-122487171D01*
X130566098Y-122701335D01*
X130566094Y-122701344D01*
X130504938Y-122929586D01*
X130504936Y-122929596D01*
X130484341Y-123164999D01*
X130484341Y-123165000D01*
X130504936Y-123400403D01*
X130504938Y-123400413D01*
X130566094Y-123628655D01*
X130566096Y-123628659D01*
X130566097Y-123628663D01*
X130570000Y-123637032D01*
X130665965Y-123842830D01*
X130665967Y-123842834D01*
X130774281Y-123997521D01*
X130801505Y-124036401D01*
X130968599Y-124203495D01*
X131065384Y-124271265D01*
X131162165Y-124339032D01*
X131162167Y-124339033D01*
X131162170Y-124339035D01*
X131376337Y-124438903D01*
X131604592Y-124500063D01*
X131792918Y-124516539D01*
X131839999Y-124520659D01*
X131840000Y-124520659D01*
X131840001Y-124520659D01*
X131879234Y-124517226D01*
X132075408Y-124500063D01*
X132303663Y-124438903D01*
X132517830Y-124339035D01*
X132711401Y-124203495D01*
X132878495Y-124036401D01*
X133008425Y-123850842D01*
X133063002Y-123807217D01*
X133132500Y-123800023D01*
X133194855Y-123831546D01*
X133211575Y-123850842D01*
X133341500Y-124036395D01*
X133341505Y-124036401D01*
X133508599Y-124203495D01*
X133605384Y-124271265D01*
X133702165Y-124339032D01*
X133702167Y-124339033D01*
X133702170Y-124339035D01*
X133916337Y-124438903D01*
X134144592Y-124500063D01*
X134332918Y-124516539D01*
X134379999Y-124520659D01*
X134380000Y-124520659D01*
X134380001Y-124520659D01*
X134419234Y-124517226D01*
X134615408Y-124500063D01*
X134843663Y-124438903D01*
X135057830Y-124339035D01*
X135251401Y-124203495D01*
X135418495Y-124036401D01*
X135548425Y-123850842D01*
X135603002Y-123807217D01*
X135672500Y-123800023D01*
X135734855Y-123831546D01*
X135751575Y-123850842D01*
X135881500Y-124036395D01*
X135881505Y-124036401D01*
X136048599Y-124203495D01*
X136145384Y-124271265D01*
X136242165Y-124339032D01*
X136242167Y-124339033D01*
X136242170Y-124339035D01*
X136456337Y-124438903D01*
X136684592Y-124500063D01*
X136872918Y-124516539D01*
X136919999Y-124520659D01*
X136920000Y-124520659D01*
X136920001Y-124520659D01*
X136959234Y-124517226D01*
X137155408Y-124500063D01*
X137383663Y-124438903D01*
X137597830Y-124339035D01*
X137791401Y-124203495D01*
X137958495Y-124036401D01*
X138088425Y-123850842D01*
X138143002Y-123807217D01*
X138212500Y-123800023D01*
X138274855Y-123831546D01*
X138291575Y-123850842D01*
X138421500Y-124036395D01*
X138421505Y-124036401D01*
X138588599Y-124203495D01*
X138685384Y-124271265D01*
X138782165Y-124339032D01*
X138782167Y-124339033D01*
X138782170Y-124339035D01*
X138996337Y-124438903D01*
X139224592Y-124500063D01*
X139412918Y-124516539D01*
X139459999Y-124520659D01*
X139460000Y-124520659D01*
X139460001Y-124520659D01*
X139499234Y-124517226D01*
X139695408Y-124500063D01*
X139923663Y-124438903D01*
X140137830Y-124339035D01*
X140331401Y-124203495D01*
X140498495Y-124036401D01*
X140628425Y-123850842D01*
X140683002Y-123807217D01*
X140752500Y-123800023D01*
X140814855Y-123831546D01*
X140831575Y-123850842D01*
X140961500Y-124036395D01*
X140961505Y-124036401D01*
X141128599Y-124203495D01*
X141225384Y-124271265D01*
X141322165Y-124339032D01*
X141322167Y-124339033D01*
X141322170Y-124339035D01*
X141536337Y-124438903D01*
X141764592Y-124500063D01*
X141952918Y-124516539D01*
X141999999Y-124520659D01*
X142000000Y-124520659D01*
X142000001Y-124520659D01*
X142039234Y-124517226D01*
X142235408Y-124500063D01*
X142463663Y-124438903D01*
X142677830Y-124339035D01*
X142871401Y-124203495D01*
X143038495Y-124036401D01*
X143168425Y-123850842D01*
X143223002Y-123807217D01*
X143292500Y-123800023D01*
X143354855Y-123831546D01*
X143371575Y-123850842D01*
X143501500Y-124036395D01*
X143501505Y-124036401D01*
X143668599Y-124203495D01*
X143765384Y-124271265D01*
X143862165Y-124339032D01*
X143862167Y-124339033D01*
X143862170Y-124339035D01*
X144076337Y-124438903D01*
X144304592Y-124500063D01*
X144492918Y-124516539D01*
X144539999Y-124520659D01*
X144540000Y-124520659D01*
X144540001Y-124520659D01*
X144579234Y-124517226D01*
X144775408Y-124500063D01*
X145003663Y-124438903D01*
X145217830Y-124339035D01*
X145411401Y-124203495D01*
X145578495Y-124036401D01*
X145708425Y-123850842D01*
X145763002Y-123807217D01*
X145832500Y-123800023D01*
X145894855Y-123831546D01*
X145911575Y-123850842D01*
X146041500Y-124036395D01*
X146041505Y-124036401D01*
X146208599Y-124203495D01*
X146305384Y-124271265D01*
X146402165Y-124339032D01*
X146402167Y-124339033D01*
X146402170Y-124339035D01*
X146616337Y-124438903D01*
X146844592Y-124500063D01*
X147032918Y-124516539D01*
X147079999Y-124520659D01*
X147080000Y-124520659D01*
X147080001Y-124520659D01*
X147119234Y-124517226D01*
X147315408Y-124500063D01*
X147543663Y-124438903D01*
X147757830Y-124339035D01*
X147951401Y-124203495D01*
X148118495Y-124036401D01*
X148248425Y-123850842D01*
X148303002Y-123807217D01*
X148372500Y-123800023D01*
X148434855Y-123831546D01*
X148451575Y-123850842D01*
X148581500Y-124036395D01*
X148581505Y-124036401D01*
X148748599Y-124203495D01*
X148845384Y-124271265D01*
X148942165Y-124339032D01*
X148942167Y-124339033D01*
X148942170Y-124339035D01*
X149156337Y-124438903D01*
X149384592Y-124500063D01*
X149572918Y-124516539D01*
X149619999Y-124520659D01*
X149620000Y-124520659D01*
X149620001Y-124520659D01*
X149659234Y-124517226D01*
X149855408Y-124500063D01*
X150083663Y-124438903D01*
X150297830Y-124339035D01*
X150491401Y-124203495D01*
X150658495Y-124036401D01*
X150794035Y-123842830D01*
X150893903Y-123628663D01*
X150955063Y-123400408D01*
X150975659Y-123165000D01*
X150955063Y-122929592D01*
X150893903Y-122701337D01*
X150794035Y-122487171D01*
X150788425Y-122479158D01*
X150658494Y-122293597D01*
X150491402Y-122126506D01*
X150491396Y-122126501D01*
X150305842Y-121996575D01*
X150262217Y-121941998D01*
X150255023Y-121872500D01*
X150286546Y-121810145D01*
X150305842Y-121793425D01*
X150328026Y-121777891D01*
X150491401Y-121663495D01*
X150658495Y-121496401D01*
X150794035Y-121302830D01*
X150893903Y-121088663D01*
X150955063Y-120860408D01*
X150975659Y-120625000D01*
X150955063Y-120389592D01*
X150893903Y-120161337D01*
X150794035Y-119947171D01*
X150788425Y-119939158D01*
X150658494Y-119753597D01*
X150491402Y-119586506D01*
X150491395Y-119586501D01*
X150297834Y-119450967D01*
X150297830Y-119450965D01*
X150297828Y-119450964D01*
X150083663Y-119351097D01*
X150083659Y-119351096D01*
X150083655Y-119351094D01*
X149855413Y-119289938D01*
X149855403Y-119289936D01*
X149620001Y-119269341D01*
X149619999Y-119269341D01*
X149384596Y-119289936D01*
X149384586Y-119289938D01*
X149156344Y-119351094D01*
X149156335Y-119351098D01*
X148942171Y-119450964D01*
X148942169Y-119450965D01*
X148748597Y-119586505D01*
X148581508Y-119753594D01*
X148451575Y-119939158D01*
X148396998Y-119982782D01*
X148327499Y-119989975D01*
X148265145Y-119958453D01*
X148248425Y-119939157D01*
X148118495Y-119753597D01*
X147951403Y-119586506D01*
X147951396Y-119586501D01*
X147757835Y-119450967D01*
X147757831Y-119450965D01*
X147757829Y-119450964D01*
X147543664Y-119351097D01*
X147543660Y-119351096D01*
X147543656Y-119351094D01*
X147315414Y-119289938D01*
X147315404Y-119289936D01*
X147080002Y-119269341D01*
X147080000Y-119269341D01*
X146844597Y-119289936D01*
X146844587Y-119289938D01*
X146616345Y-119351094D01*
X146616336Y-119351098D01*
X146402172Y-119450964D01*
X146402170Y-119450965D01*
X146208598Y-119586505D01*
X146041509Y-119753594D01*
X145911575Y-119939160D01*
X145856998Y-119982784D01*
X145787499Y-119989977D01*
X145725145Y-119958455D01*
X145708425Y-119939159D01*
X145578494Y-119753597D01*
X145411402Y-119586506D01*
X145411395Y-119586501D01*
X145217834Y-119450967D01*
X145217830Y-119450965D01*
X145217828Y-119450964D01*
X145003663Y-119351097D01*
X145003659Y-119351096D01*
X145003655Y-119351094D01*
X144775413Y-119289938D01*
X144775403Y-119289936D01*
X144540001Y-119269341D01*
X144539999Y-119269341D01*
X144304596Y-119289936D01*
X144304586Y-119289938D01*
X144076344Y-119351094D01*
X144076335Y-119351098D01*
X143862171Y-119450964D01*
X143862169Y-119450965D01*
X143668597Y-119586505D01*
X143501505Y-119753597D01*
X143371575Y-119939158D01*
X143316998Y-119982783D01*
X143247500Y-119989977D01*
X143185145Y-119958454D01*
X143168425Y-119939158D01*
X143038494Y-119753597D01*
X142871402Y-119586506D01*
X142871395Y-119586501D01*
X142677834Y-119450967D01*
X142677830Y-119450965D01*
X142677828Y-119450964D01*
X142463663Y-119351097D01*
X142463659Y-119351096D01*
X142463655Y-119351094D01*
X142235413Y-119289938D01*
X142235403Y-119289936D01*
X142000001Y-119269341D01*
X141999999Y-119269341D01*
X141764596Y-119289936D01*
X141764586Y-119289938D01*
X141536344Y-119351094D01*
X141536335Y-119351098D01*
X141322171Y-119450964D01*
X141322169Y-119450965D01*
X141128597Y-119586505D01*
X140961505Y-119753597D01*
X140831575Y-119939158D01*
X140776998Y-119982783D01*
X140707500Y-119989977D01*
X140645145Y-119958454D01*
X140628425Y-119939158D01*
X140498494Y-119753597D01*
X140331402Y-119586506D01*
X140331395Y-119586501D01*
X140137834Y-119450967D01*
X140137830Y-119450965D01*
X140137828Y-119450964D01*
X139923663Y-119351097D01*
X139923659Y-119351096D01*
X139923655Y-119351094D01*
X139695413Y-119289938D01*
X139695403Y-119289936D01*
X139460001Y-119269341D01*
X139459999Y-119269341D01*
X139224596Y-119289936D01*
X139224586Y-119289938D01*
X138996344Y-119351094D01*
X138996335Y-119351098D01*
X138782171Y-119450964D01*
X138782169Y-119450965D01*
X138588597Y-119586505D01*
X138421505Y-119753597D01*
X138291575Y-119939158D01*
X138236998Y-119982783D01*
X138167500Y-119989977D01*
X138105145Y-119958454D01*
X138088425Y-119939158D01*
X137958494Y-119753597D01*
X137791402Y-119586506D01*
X137791395Y-119586501D01*
X137597834Y-119450967D01*
X137597830Y-119450965D01*
X137597828Y-119450964D01*
X137383663Y-119351097D01*
X137383659Y-119351096D01*
X137383655Y-119351094D01*
X137155413Y-119289938D01*
X137155403Y-119289936D01*
X136920001Y-119269341D01*
X136919999Y-119269341D01*
X136684596Y-119289936D01*
X136684586Y-119289938D01*
X136456344Y-119351094D01*
X136456335Y-119351098D01*
X136242171Y-119450964D01*
X136242169Y-119450965D01*
X136048597Y-119586505D01*
X135881508Y-119753594D01*
X135751574Y-119939160D01*
X135696997Y-119982784D01*
X135627498Y-119989977D01*
X135565144Y-119958455D01*
X135548424Y-119939159D01*
X135418493Y-119753597D01*
X135251401Y-119586506D01*
X135251394Y-119586501D01*
X135057833Y-119450967D01*
X135057829Y-119450965D01*
X135057827Y-119450964D01*
X134843662Y-119351097D01*
X134843658Y-119351096D01*
X134843654Y-119351094D01*
X134615412Y-119289938D01*
X134615402Y-119289936D01*
X134380000Y-119269341D01*
X134379998Y-119269341D01*
X134144595Y-119289936D01*
X134144585Y-119289938D01*
X133916343Y-119351094D01*
X133916334Y-119351098D01*
X133702170Y-119450964D01*
X133702168Y-119450965D01*
X133508596Y-119586505D01*
X133341507Y-119753594D01*
X133211574Y-119939158D01*
X133156997Y-119982782D01*
X133087498Y-119989975D01*
X133025144Y-119958453D01*
X133008424Y-119939157D01*
X132878494Y-119753597D01*
X132711402Y-119586506D01*
X132711395Y-119586501D01*
X132517834Y-119450967D01*
X132517830Y-119450965D01*
X132517828Y-119450964D01*
X132303663Y-119351097D01*
X132303659Y-119351096D01*
X132303655Y-119351094D01*
X132075413Y-119289938D01*
X132075403Y-119289936D01*
X131840001Y-119269341D01*
X131839999Y-119269341D01*
X131604596Y-119289936D01*
X131604586Y-119289938D01*
X131376344Y-119351094D01*
X131376335Y-119351098D01*
X131162171Y-119450964D01*
X131162169Y-119450965D01*
X130968600Y-119586503D01*
X130846673Y-119708430D01*
X130785350Y-119741914D01*
X130715658Y-119736930D01*
X130659725Y-119695058D01*
X130642810Y-119664081D01*
X130593797Y-119532671D01*
X130593793Y-119532664D01*
X130507547Y-119417455D01*
X130507544Y-119417452D01*
X130392335Y-119331206D01*
X130392328Y-119331202D01*
X130257482Y-119280908D01*
X130257483Y-119280908D01*
X130197883Y-119274501D01*
X130197881Y-119274500D01*
X130197873Y-119274500D01*
X130197864Y-119274500D01*
X128402129Y-119274500D01*
X128402123Y-119274501D01*
X128342516Y-119280908D01*
X128207671Y-119331202D01*
X128207664Y-119331206D01*
X128092455Y-119417452D01*
X128092452Y-119417455D01*
X128006206Y-119532664D01*
X128006202Y-119532671D01*
X127955908Y-119667517D01*
X127949501Y-119727116D01*
X127949500Y-119727135D01*
X121000500Y-119727135D01*
X121000500Y-114878456D01*
X123145500Y-114878456D01*
X123145500Y-115121543D01*
X123145501Y-115121559D01*
X123177230Y-115362569D01*
X123240149Y-115597386D01*
X123333175Y-115821972D01*
X123333182Y-115821987D01*
X123454730Y-116032516D01*
X123602722Y-116225380D01*
X123602730Y-116225389D01*
X123774611Y-116397270D01*
X123774619Y-116397277D01*
X123967483Y-116545269D01*
X124178012Y-116666817D01*
X124178027Y-116666824D01*
X124294171Y-116714932D01*
X124402612Y-116759850D01*
X124637429Y-116822769D01*
X124878450Y-116854500D01*
X124878457Y-116854500D01*
X125121543Y-116854500D01*
X125121550Y-116854500D01*
X125362571Y-116822769D01*
X125597388Y-116759850D01*
X125821984Y-116666819D01*
X126032516Y-116545269D01*
X126225380Y-116397278D01*
X126225384Y-116397273D01*
X126225389Y-116397270D01*
X126397270Y-116225389D01*
X126397273Y-116225384D01*
X126397278Y-116225380D01*
X126545269Y-116032516D01*
X126666819Y-115821984D01*
X126759850Y-115597388D01*
X126822769Y-115362571D01*
X126854500Y-115121550D01*
X126854500Y-114878456D01*
X152145500Y-114878456D01*
X152145500Y-115121543D01*
X152145501Y-115121559D01*
X152177230Y-115362569D01*
X152240149Y-115597386D01*
X152333175Y-115821972D01*
X152333182Y-115821987D01*
X152454730Y-116032516D01*
X152602722Y-116225380D01*
X152602730Y-116225389D01*
X152774611Y-116397270D01*
X152774619Y-116397277D01*
X152967483Y-116545269D01*
X153178012Y-116666817D01*
X153178027Y-116666824D01*
X153294171Y-116714932D01*
X153402612Y-116759850D01*
X153637429Y-116822769D01*
X153878450Y-116854500D01*
X153878457Y-116854500D01*
X154121543Y-116854500D01*
X154121550Y-116854500D01*
X154362571Y-116822769D01*
X154597388Y-116759850D01*
X154821984Y-116666819D01*
X155032516Y-116545269D01*
X155225380Y-116397278D01*
X155225384Y-116397273D01*
X155225389Y-116397270D01*
X155397270Y-116225389D01*
X155397273Y-116225384D01*
X155397278Y-116225380D01*
X155545269Y-116032516D01*
X155666819Y-115821984D01*
X155759850Y-115597388D01*
X155822769Y-115362571D01*
X155854500Y-115121550D01*
X155854500Y-114878450D01*
X155822769Y-114637429D01*
X155759850Y-114402612D01*
X155666819Y-114178016D01*
X155666817Y-114178012D01*
X155545269Y-113967483D01*
X155397277Y-113774619D01*
X155397270Y-113774611D01*
X155225389Y-113602730D01*
X155225380Y-113602722D01*
X155032516Y-113454730D01*
X154821987Y-113333182D01*
X154821972Y-113333175D01*
X154597386Y-113240149D01*
X154362569Y-113177230D01*
X154121559Y-113145501D01*
X154121556Y-113145500D01*
X154121550Y-113145500D01*
X153878450Y-113145500D01*
X153878444Y-113145500D01*
X153878440Y-113145501D01*
X153637430Y-113177230D01*
X153402613Y-113240149D01*
X153178027Y-113333175D01*
X153178012Y-113333182D01*
X152967483Y-113454730D01*
X152774619Y-113602722D01*
X152602722Y-113774619D01*
X152454730Y-113967483D01*
X152333182Y-114178012D01*
X152333175Y-114178027D01*
X152240149Y-114402613D01*
X152177230Y-114637430D01*
X152145501Y-114878440D01*
X152145500Y-114878456D01*
X126854500Y-114878456D01*
X126854500Y-114878450D01*
X126822769Y-114637429D01*
X126759850Y-114402612D01*
X126666819Y-114178016D01*
X126666817Y-114178012D01*
X126545269Y-113967483D01*
X126397277Y-113774619D01*
X126397270Y-113774611D01*
X126225389Y-113602730D01*
X126225380Y-113602722D01*
X126032516Y-113454730D01*
X125821987Y-113333182D01*
X125821972Y-113333175D01*
X125597386Y-113240149D01*
X125362569Y-113177230D01*
X125121559Y-113145501D01*
X125121556Y-113145500D01*
X125121550Y-113145500D01*
X124878450Y-113145500D01*
X124878444Y-113145500D01*
X124878440Y-113145501D01*
X124637430Y-113177230D01*
X124402613Y-113240149D01*
X124178027Y-113333175D01*
X124178012Y-113333182D01*
X123967483Y-113454730D01*
X123774619Y-113602722D01*
X123602722Y-113774619D01*
X123454730Y-113967483D01*
X123333182Y-114178012D01*
X123333175Y-114178027D01*
X123240149Y-114402613D01*
X123177230Y-114637430D01*
X123145501Y-114878440D01*
X123145500Y-114878456D01*
X121000500Y-114878456D01*
X121000500Y-107642135D01*
X122624500Y-107642135D01*
X122624500Y-109437870D01*
X122624501Y-109437876D01*
X122630908Y-109497483D01*
X122681202Y-109632328D01*
X122681206Y-109632335D01*
X122767452Y-109747544D01*
X122767455Y-109747547D01*
X122882664Y-109833793D01*
X122882671Y-109833797D01*
X123017517Y-109884091D01*
X123017516Y-109884091D01*
X123024444Y-109884835D01*
X123077127Y-109890500D01*
X124872872Y-109890499D01*
X124932483Y-109884091D01*
X125067331Y-109833796D01*
X125182546Y-109747546D01*
X125268796Y-109632331D01*
X125319091Y-109497483D01*
X125325500Y-109437873D01*
X125325499Y-107999996D01*
X150944435Y-107999996D01*
X150944435Y-108000003D01*
X150964630Y-108179249D01*
X150964631Y-108179254D01*
X151024211Y-108349523D01*
X151120184Y-108502262D01*
X151247738Y-108629816D01*
X151400478Y-108725789D01*
X151570745Y-108785368D01*
X151570750Y-108785369D01*
X151749996Y-108805565D01*
X151750000Y-108805565D01*
X151750004Y-108805565D01*
X151929249Y-108785369D01*
X151929252Y-108785368D01*
X151929255Y-108785368D01*
X152099522Y-108725789D01*
X152252262Y-108629816D01*
X152379816Y-108502262D01*
X152475789Y-108349522D01*
X152535368Y-108179255D01*
X152555565Y-108000000D01*
X152535368Y-107820745D01*
X152475789Y-107650478D01*
X152470542Y-107642128D01*
X152379815Y-107497737D01*
X152252262Y-107370184D01*
X152099523Y-107274211D01*
X151929254Y-107214631D01*
X151929249Y-107214630D01*
X151750004Y-107194435D01*
X151749996Y-107194435D01*
X151570750Y-107214630D01*
X151570745Y-107214631D01*
X151400476Y-107274211D01*
X151247737Y-107370184D01*
X151120184Y-107497737D01*
X151024211Y-107650476D01*
X150964631Y-107820745D01*
X150964630Y-107820750D01*
X150944435Y-107999996D01*
X125325499Y-107999996D01*
X125325499Y-107642128D01*
X125319091Y-107582517D01*
X125268796Y-107447669D01*
X125268795Y-107447668D01*
X125268793Y-107447664D01*
X125182547Y-107332455D01*
X125182544Y-107332452D01*
X125067335Y-107246206D01*
X125067328Y-107246202D01*
X124932482Y-107195908D01*
X124932483Y-107195908D01*
X124872883Y-107189501D01*
X124872881Y-107189500D01*
X124872873Y-107189500D01*
X124872864Y-107189500D01*
X123077129Y-107189500D01*
X123077123Y-107189501D01*
X123017516Y-107195908D01*
X122882671Y-107246202D01*
X122882664Y-107246206D01*
X122767455Y-107332452D01*
X122767452Y-107332455D01*
X122681206Y-107447664D01*
X122681202Y-107447671D01*
X122630908Y-107582517D01*
X122624501Y-107642116D01*
X122624501Y-107642123D01*
X122624500Y-107642135D01*
X121000500Y-107642135D01*
X121000500Y-103460000D01*
X122619341Y-103460000D01*
X122619341Y-103460001D01*
X122639936Y-103695404D01*
X122639938Y-103695414D01*
X122701094Y-103923656D01*
X122701096Y-103923660D01*
X122701097Y-103923664D01*
X122800965Y-104137831D01*
X122800967Y-104137835D01*
X122909281Y-104292522D01*
X122936505Y-104331402D01*
X123103599Y-104498496D01*
X123200384Y-104566266D01*
X123297165Y-104634033D01*
X123297167Y-104634034D01*
X123297170Y-104634036D01*
X123511337Y-104733904D01*
X123739592Y-104795064D01*
X123927918Y-104811540D01*
X123974999Y-104815660D01*
X123975000Y-104815660D01*
X123975001Y-104815660D01*
X124014234Y-104812227D01*
X124210408Y-104795064D01*
X124438663Y-104733904D01*
X124652830Y-104634036D01*
X124846401Y-104498496D01*
X125013495Y-104331402D01*
X125149035Y-104137831D01*
X125248903Y-103923664D01*
X125310063Y-103695409D01*
X125330659Y-103460001D01*
X125310063Y-103224593D01*
X125248903Y-102996338D01*
X125149035Y-102782172D01*
X125090977Y-102699255D01*
X125013494Y-102588598D01*
X124846402Y-102421507D01*
X124846395Y-102421502D01*
X124652834Y-102285968D01*
X124652830Y-102285966D01*
X124575707Y-102250003D01*
X124575692Y-102249996D01*
X131594435Y-102249996D01*
X131594435Y-102250003D01*
X131614630Y-102429249D01*
X131614631Y-102429254D01*
X131674211Y-102599523D01*
X131736877Y-102699254D01*
X131770184Y-102752262D01*
X131897738Y-102879816D01*
X132050478Y-102975789D01*
X132109204Y-102996338D01*
X132220745Y-103035368D01*
X132220750Y-103035369D01*
X132399996Y-103055565D01*
X132400000Y-103055565D01*
X132400004Y-103055565D01*
X132579249Y-103035369D01*
X132579252Y-103035368D01*
X132579255Y-103035368D01*
X132749522Y-102975789D01*
X132902262Y-102879816D01*
X132982082Y-102799996D01*
X135894435Y-102799996D01*
X135894435Y-102800003D01*
X135914630Y-102979249D01*
X135914631Y-102979254D01*
X135974211Y-103149523D01*
X136070184Y-103302262D01*
X136197738Y-103429816D01*
X136350478Y-103525789D01*
X136418306Y-103549523D01*
X136520745Y-103585368D01*
X136520750Y-103585369D01*
X136699996Y-103605565D01*
X136700000Y-103605565D01*
X136700004Y-103605565D01*
X136879249Y-103585369D01*
X136879252Y-103585368D01*
X136879255Y-103585368D01*
X137049522Y-103525789D01*
X137202262Y-103429816D01*
X137329816Y-103302262D01*
X137394074Y-103199996D01*
X139944435Y-103199996D01*
X139944435Y-103200003D01*
X139964630Y-103379249D01*
X139964631Y-103379254D01*
X140024211Y-103549523D01*
X140046735Y-103585369D01*
X140120184Y-103702262D01*
X140247738Y-103829816D01*
X140338080Y-103886582D01*
X140397097Y-103923665D01*
X140400478Y-103925789D01*
X140570745Y-103985368D01*
X140570750Y-103985369D01*
X140749996Y-104005565D01*
X140750000Y-104005565D01*
X140750004Y-104005565D01*
X140929249Y-103985369D01*
X140929252Y-103985368D01*
X140929255Y-103985368D01*
X141099522Y-103925789D01*
X141252262Y-103829816D01*
X141379816Y-103702262D01*
X141475789Y-103549522D01*
X141535368Y-103379255D01*
X141535369Y-103379249D01*
X141555565Y-103200003D01*
X141555565Y-103199996D01*
X141535369Y-103020750D01*
X141535368Y-103020745D01*
X141475788Y-102850476D01*
X141380769Y-102699255D01*
X141379816Y-102697738D01*
X141252262Y-102570184D01*
X141172389Y-102519996D01*
X150714435Y-102519996D01*
X150714435Y-102520003D01*
X150734630Y-102699249D01*
X150734631Y-102699254D01*
X150794211Y-102869523D01*
X150873895Y-102996338D01*
X150890184Y-103022262D01*
X151017738Y-103149816D01*
X151170478Y-103245789D01*
X151331869Y-103302262D01*
X151340745Y-103305368D01*
X151340750Y-103305369D01*
X151519996Y-103325565D01*
X151520000Y-103325565D01*
X151520004Y-103325565D01*
X151699249Y-103305369D01*
X151699252Y-103305368D01*
X151699255Y-103305368D01*
X151869522Y-103245789D01*
X152022262Y-103149816D01*
X152149816Y-103022262D01*
X152245789Y-102869522D01*
X152305368Y-102699255D01*
X152305539Y-102697737D01*
X152325565Y-102520003D01*
X152325565Y-102519996D01*
X152305369Y-102340750D01*
X152305368Y-102340745D01*
X152273615Y-102250000D01*
X152245789Y-102170478D01*
X152245604Y-102170184D01*
X152183126Y-102070750D01*
X152149816Y-102017738D01*
X152022262Y-101890184D01*
X151869523Y-101794211D01*
X151699254Y-101734631D01*
X151699249Y-101734630D01*
X151520004Y-101714435D01*
X151519996Y-101714435D01*
X151340750Y-101734630D01*
X151340745Y-101734631D01*
X151170476Y-101794211D01*
X151017737Y-101890184D01*
X150890184Y-102017737D01*
X150794211Y-102170476D01*
X150734631Y-102340745D01*
X150734630Y-102340750D01*
X150714435Y-102519996D01*
X141172389Y-102519996D01*
X141099523Y-102474211D01*
X140929254Y-102414631D01*
X140929249Y-102414630D01*
X140750004Y-102394435D01*
X140749996Y-102394435D01*
X140570750Y-102414630D01*
X140570745Y-102414631D01*
X140400476Y-102474211D01*
X140247737Y-102570184D01*
X140120184Y-102697737D01*
X140024211Y-102850476D01*
X139964631Y-103020745D01*
X139964630Y-103020750D01*
X139944435Y-103199996D01*
X137394074Y-103199996D01*
X137425789Y-103149522D01*
X137485368Y-102979255D01*
X137505565Y-102800000D01*
X137503556Y-102782172D01*
X137485369Y-102620750D01*
X137485368Y-102620745D01*
X137450114Y-102519996D01*
X137425789Y-102450478D01*
X137403265Y-102414632D01*
X137329815Y-102297737D01*
X137202262Y-102170184D01*
X137049523Y-102074211D01*
X136879254Y-102014631D01*
X136879249Y-102014630D01*
X136700004Y-101994435D01*
X136699996Y-101994435D01*
X136520750Y-102014630D01*
X136520745Y-102014631D01*
X136350476Y-102074211D01*
X136197737Y-102170184D01*
X136070184Y-102297737D01*
X135974211Y-102450476D01*
X135914631Y-102620745D01*
X135914630Y-102620750D01*
X135894435Y-102799996D01*
X132982082Y-102799996D01*
X133029816Y-102752262D01*
X133125789Y-102599522D01*
X133185368Y-102429255D01*
X133187016Y-102414630D01*
X133205565Y-102250003D01*
X133205565Y-102249996D01*
X133185369Y-102070750D01*
X133185368Y-102070745D01*
X133165733Y-102014631D01*
X133125789Y-101900478D01*
X133029816Y-101747738D01*
X132902262Y-101620184D01*
X132749523Y-101524211D01*
X132579254Y-101464631D01*
X132579249Y-101464630D01*
X132400004Y-101444435D01*
X132399996Y-101444435D01*
X132220750Y-101464630D01*
X132220745Y-101464631D01*
X132050476Y-101524211D01*
X131897737Y-101620184D01*
X131770184Y-101747737D01*
X131674211Y-101900476D01*
X131614631Y-102070745D01*
X131614630Y-102070750D01*
X131594435Y-102249996D01*
X124575692Y-102249996D01*
X124438663Y-102186098D01*
X124438659Y-102186097D01*
X124438655Y-102186095D01*
X124210413Y-102124939D01*
X124210403Y-102124937D01*
X123975001Y-102104342D01*
X123974999Y-102104342D01*
X123739596Y-102124937D01*
X123739586Y-102124939D01*
X123511344Y-102186095D01*
X123511335Y-102186099D01*
X123297171Y-102285965D01*
X123297169Y-102285966D01*
X123103597Y-102421506D01*
X122936505Y-102588598D01*
X122800965Y-102782170D01*
X122800964Y-102782172D01*
X122701098Y-102996336D01*
X122701094Y-102996345D01*
X122639938Y-103224587D01*
X122639936Y-103224597D01*
X122619341Y-103460000D01*
X121000500Y-103460000D01*
X121000500Y-100499996D01*
X136394435Y-100499996D01*
X136394435Y-100500003D01*
X136414630Y-100679249D01*
X136414631Y-100679254D01*
X136474211Y-100849523D01*
X136542235Y-100957781D01*
X136570184Y-101002262D01*
X136697738Y-101129816D01*
X136788080Y-101186582D01*
X136819994Y-101206635D01*
X136850478Y-101225789D01*
X137011260Y-101282049D01*
X137020745Y-101285368D01*
X137020750Y-101285369D01*
X137199996Y-101305565D01*
X137200000Y-101305565D01*
X137200004Y-101305565D01*
X137379249Y-101285369D01*
X137379252Y-101285368D01*
X137379255Y-101285368D01*
X137549522Y-101225789D01*
X137702262Y-101129816D01*
X137829816Y-101002262D01*
X137925789Y-100849522D01*
X137985368Y-100679255D01*
X137992964Y-100611839D01*
X138005565Y-100500003D01*
X138005565Y-100499996D01*
X137996388Y-100418543D01*
X150344499Y-100418543D01*
X150382947Y-100611829D01*
X150382950Y-100611839D01*
X150458364Y-100793907D01*
X150458371Y-100793920D01*
X150567860Y-100957781D01*
X150567863Y-100957785D01*
X150707214Y-101097136D01*
X150707218Y-101097139D01*
X150871079Y-101206628D01*
X150871092Y-101206635D01*
X151053160Y-101282049D01*
X151053165Y-101282051D01*
X151053169Y-101282051D01*
X151053170Y-101282052D01*
X151246456Y-101320500D01*
X151246459Y-101320500D01*
X152543543Y-101320500D01*
X152720154Y-101285369D01*
X152736835Y-101282051D01*
X152918914Y-101206632D01*
X153082782Y-101097139D01*
X153222139Y-100957782D01*
X153331632Y-100793914D01*
X153407051Y-100611835D01*
X153429297Y-100500000D01*
X153445500Y-100418543D01*
X154674499Y-100418543D01*
X154712947Y-100611829D01*
X154712950Y-100611839D01*
X154788364Y-100793907D01*
X154788371Y-100793920D01*
X154897860Y-100957781D01*
X154897863Y-100957785D01*
X155037214Y-101097136D01*
X155037218Y-101097139D01*
X155201079Y-101206628D01*
X155201092Y-101206635D01*
X155383160Y-101282049D01*
X155383165Y-101282051D01*
X155383169Y-101282051D01*
X155383170Y-101282052D01*
X155576456Y-101320500D01*
X155576459Y-101320500D01*
X156573543Y-101320500D01*
X156750154Y-101285369D01*
X156766835Y-101282051D01*
X156948914Y-101206632D01*
X157112782Y-101097139D01*
X157252139Y-100957782D01*
X157361632Y-100793914D01*
X157437051Y-100611835D01*
X157459297Y-100500000D01*
X157475500Y-100418543D01*
X157475500Y-100221456D01*
X157437052Y-100028170D01*
X157437051Y-100028169D01*
X157437051Y-100028165D01*
X157424448Y-99997738D01*
X157361635Y-99846092D01*
X157361628Y-99846079D01*
X157252139Y-99682218D01*
X157252136Y-99682214D01*
X157112785Y-99542863D01*
X157112781Y-99542860D01*
X156948920Y-99433371D01*
X156948907Y-99433364D01*
X156766839Y-99357950D01*
X156766829Y-99357947D01*
X156573543Y-99319500D01*
X156573541Y-99319500D01*
X155576459Y-99319500D01*
X155576457Y-99319500D01*
X155383170Y-99357947D01*
X155383160Y-99357950D01*
X155201092Y-99433364D01*
X155201079Y-99433371D01*
X155037218Y-99542860D01*
X155037214Y-99542863D01*
X154897863Y-99682214D01*
X154897860Y-99682218D01*
X154788371Y-99846079D01*
X154788364Y-99846092D01*
X154712950Y-100028160D01*
X154712947Y-100028170D01*
X154674500Y-100221456D01*
X154674500Y-100221459D01*
X154674500Y-100418541D01*
X154674500Y-100418543D01*
X154674499Y-100418543D01*
X153445500Y-100418543D01*
X153445500Y-100221456D01*
X153407052Y-100028170D01*
X153407051Y-100028169D01*
X153407051Y-100028165D01*
X153394448Y-99997738D01*
X153331635Y-99846092D01*
X153331628Y-99846079D01*
X153222139Y-99682218D01*
X153222136Y-99682214D01*
X153082785Y-99542863D01*
X153082781Y-99542860D01*
X152918920Y-99433371D01*
X152918913Y-99433367D01*
X152913332Y-99431056D01*
X152858928Y-99387215D01*
X152836862Y-99320921D01*
X152854140Y-99253222D01*
X152856188Y-99250197D01*
X152858713Y-99245822D01*
X152858715Y-99245821D01*
X152935008Y-99113678D01*
X152974500Y-98966293D01*
X152974500Y-98813707D01*
X152935008Y-98666322D01*
X152901153Y-98607684D01*
X152858717Y-98534182D01*
X152858712Y-98534176D01*
X152750823Y-98426287D01*
X152750817Y-98426282D01*
X152618681Y-98349993D01*
X152618682Y-98349993D01*
X152606595Y-98346754D01*
X152471293Y-98310500D01*
X152318707Y-98310500D01*
X152183404Y-98346754D01*
X152171318Y-98349993D01*
X152039182Y-98426282D01*
X152039176Y-98426287D01*
X151931287Y-98534176D01*
X151931282Y-98534182D01*
X151854993Y-98666318D01*
X151854992Y-98666322D01*
X151815500Y-98813707D01*
X151815500Y-98966293D01*
X151854992Y-99113678D01*
X151866436Y-99133499D01*
X151882909Y-99201399D01*
X151860057Y-99267426D01*
X151805136Y-99310617D01*
X151759049Y-99319500D01*
X151246457Y-99319500D01*
X151053170Y-99357947D01*
X151053160Y-99357950D01*
X150871092Y-99433364D01*
X150871079Y-99433371D01*
X150707218Y-99542860D01*
X150707214Y-99542863D01*
X150567863Y-99682214D01*
X150567860Y-99682218D01*
X150458371Y-99846079D01*
X150458364Y-99846092D01*
X150382950Y-100028160D01*
X150382947Y-100028170D01*
X150344500Y-100221456D01*
X150344500Y-100221459D01*
X150344500Y-100418541D01*
X150344500Y-100418543D01*
X150344499Y-100418543D01*
X137996388Y-100418543D01*
X137985369Y-100320750D01*
X137985368Y-100320745D01*
X137925788Y-100150476D01*
X137853461Y-100035369D01*
X137829816Y-99997738D01*
X137702262Y-99870184D01*
X137663920Y-99846092D01*
X137549523Y-99774211D01*
X137379254Y-99714631D01*
X137379249Y-99714630D01*
X137200004Y-99694435D01*
X137199996Y-99694435D01*
X137020750Y-99714630D01*
X137020745Y-99714631D01*
X136850476Y-99774211D01*
X136697737Y-99870184D01*
X136570184Y-99997737D01*
X136474211Y-100150476D01*
X136414631Y-100320745D01*
X136414630Y-100320750D01*
X136394435Y-100499996D01*
X121000500Y-100499996D01*
X121000500Y-99249996D01*
X132944435Y-99249996D01*
X132944435Y-99250003D01*
X132964630Y-99429249D01*
X132964631Y-99429254D01*
X133024211Y-99599523D01*
X133076170Y-99682214D01*
X133120184Y-99752262D01*
X133247738Y-99879816D01*
X133400478Y-99975789D01*
X133463202Y-99997737D01*
X133570745Y-100035368D01*
X133570750Y-100035369D01*
X133749996Y-100055565D01*
X133750000Y-100055565D01*
X133750004Y-100055565D01*
X133929249Y-100035369D01*
X133929252Y-100035368D01*
X133929255Y-100035368D01*
X134099522Y-99975789D01*
X134252262Y-99879816D01*
X134379816Y-99752262D01*
X134475789Y-99599522D01*
X134535368Y-99429255D01*
X134535369Y-99429249D01*
X134555565Y-99250003D01*
X134555565Y-99249996D01*
X134554157Y-99237496D01*
X139944435Y-99237496D01*
X139944435Y-99237503D01*
X139964630Y-99416749D01*
X139964631Y-99416754D01*
X140024211Y-99587023D01*
X140104393Y-99714631D01*
X140120184Y-99739762D01*
X140247738Y-99867316D01*
X140400478Y-99963289D01*
X140498925Y-99997737D01*
X140570745Y-100022868D01*
X140570750Y-100022869D01*
X140749996Y-100043065D01*
X140750000Y-100043065D01*
X140750004Y-100043065D01*
X140929249Y-100022869D01*
X140929252Y-100022868D01*
X140929255Y-100022868D01*
X141099522Y-99963289D01*
X141252262Y-99867316D01*
X141379816Y-99739762D01*
X141475789Y-99587022D01*
X141535368Y-99416755D01*
X141535369Y-99416749D01*
X141555565Y-99237503D01*
X141555565Y-99237496D01*
X141535369Y-99058250D01*
X141535368Y-99058245D01*
X141506879Y-98976828D01*
X141475789Y-98887978D01*
X141471313Y-98880855D01*
X141387670Y-98747738D01*
X141379816Y-98735238D01*
X141252262Y-98607684D01*
X141207008Y-98579249D01*
X141099523Y-98511711D01*
X140929254Y-98452131D01*
X140929249Y-98452130D01*
X140750004Y-98431935D01*
X140749996Y-98431935D01*
X140570750Y-98452130D01*
X140570745Y-98452131D01*
X140400476Y-98511711D01*
X140247737Y-98607684D01*
X140120184Y-98735237D01*
X140024211Y-98887976D01*
X139964631Y-99058245D01*
X139964630Y-99058250D01*
X139944435Y-99237496D01*
X134554157Y-99237496D01*
X134535369Y-99070750D01*
X134535368Y-99070745D01*
X134502505Y-98976828D01*
X134475789Y-98900478D01*
X134467933Y-98887976D01*
X134403461Y-98785369D01*
X134379816Y-98747738D01*
X134252262Y-98620184D01*
X134099523Y-98524211D01*
X133929254Y-98464631D01*
X133929249Y-98464630D01*
X133750004Y-98444435D01*
X133749996Y-98444435D01*
X133570750Y-98464630D01*
X133570745Y-98464631D01*
X133400476Y-98524211D01*
X133247737Y-98620184D01*
X133120184Y-98747737D01*
X133024211Y-98900476D01*
X132964631Y-99070745D01*
X132964630Y-99070750D01*
X132944435Y-99249996D01*
X121000500Y-99249996D01*
X121000500Y-98251036D01*
X143765935Y-98251036D01*
X143765935Y-98251043D01*
X143786130Y-98430289D01*
X143786131Y-98430294D01*
X143845711Y-98600563D01*
X143924396Y-98725788D01*
X143941684Y-98753302D01*
X144069238Y-98880856D01*
X144221978Y-98976829D01*
X144373403Y-99029815D01*
X144392245Y-99036408D01*
X144392250Y-99036409D01*
X144571496Y-99056605D01*
X144571500Y-99056605D01*
X144571504Y-99056605D01*
X144750748Y-99036409D01*
X144750748Y-99036408D01*
X144750755Y-99036408D01*
X144830547Y-99008486D01*
X144900321Y-99004924D01*
X144912432Y-99008480D01*
X144992244Y-99036408D01*
X144992248Y-99036408D01*
X144992250Y-99036409D01*
X144992247Y-99036409D01*
X145171495Y-99056605D01*
X145171499Y-99056605D01*
X145171503Y-99056605D01*
X145350748Y-99036409D01*
X145350751Y-99036408D01*
X145350754Y-99036408D01*
X145521021Y-98976829D01*
X145673761Y-98880856D01*
X145801315Y-98753302D01*
X145897288Y-98600562D01*
X145956867Y-98430295D01*
X145960280Y-98400003D01*
X145960281Y-98399996D01*
X149394435Y-98399996D01*
X149394435Y-98400003D01*
X149414630Y-98579249D01*
X149414631Y-98579254D01*
X149474211Y-98749523D01*
X149561209Y-98887978D01*
X149570184Y-98902262D01*
X149697738Y-99029816D01*
X149850478Y-99125789D01*
X150020745Y-99185368D01*
X150020750Y-99185369D01*
X150199996Y-99205565D01*
X150200000Y-99205565D01*
X150200004Y-99205565D01*
X150379249Y-99185369D01*
X150379252Y-99185368D01*
X150379255Y-99185368D01*
X150549522Y-99125789D01*
X150702262Y-99029816D01*
X150829816Y-98902262D01*
X150925789Y-98749522D01*
X150985368Y-98579255D01*
X150985369Y-98579249D01*
X151005565Y-98400003D01*
X151005565Y-98399996D01*
X150985369Y-98220750D01*
X150985368Y-98220745D01*
X150933246Y-98071790D01*
X150925789Y-98050478D01*
X150916295Y-98035369D01*
X150894069Y-97999996D01*
X153194435Y-97999996D01*
X153194435Y-98000003D01*
X153214630Y-98179249D01*
X153214631Y-98179254D01*
X153274211Y-98349523D01*
X153338685Y-98452132D01*
X153370184Y-98502262D01*
X153497738Y-98629816D01*
X153650478Y-98725789D01*
X153718306Y-98749523D01*
X153820745Y-98785368D01*
X153820750Y-98785369D01*
X153999996Y-98805565D01*
X154000000Y-98805565D01*
X154000004Y-98805565D01*
X154179249Y-98785369D01*
X154179252Y-98785368D01*
X154179255Y-98785368D01*
X154349522Y-98725789D01*
X154502262Y-98629816D01*
X154629816Y-98502262D01*
X154725789Y-98349522D01*
X154785368Y-98179255D01*
X154785369Y-98179249D01*
X154805565Y-98000003D01*
X154805565Y-97999996D01*
X154785369Y-97820750D01*
X154785368Y-97820745D01*
X154760185Y-97748777D01*
X154725789Y-97650478D01*
X154707407Y-97621224D01*
X154686582Y-97588080D01*
X154629816Y-97497738D01*
X154502262Y-97370184D01*
X154349523Y-97274211D01*
X154179254Y-97214631D01*
X154179249Y-97214630D01*
X154000004Y-97194435D01*
X153999996Y-97194435D01*
X153820750Y-97214630D01*
X153820745Y-97214631D01*
X153650476Y-97274211D01*
X153497737Y-97370184D01*
X153370184Y-97497737D01*
X153274211Y-97650476D01*
X153214631Y-97820745D01*
X153214630Y-97820750D01*
X153194435Y-97999996D01*
X150894069Y-97999996D01*
X150829815Y-97897737D01*
X150702262Y-97770184D01*
X150549523Y-97674211D01*
X150379254Y-97614631D01*
X150379249Y-97614630D01*
X150200004Y-97594435D01*
X150199996Y-97594435D01*
X150020750Y-97614630D01*
X150020745Y-97614631D01*
X149850476Y-97674211D01*
X149697737Y-97770184D01*
X149570184Y-97897737D01*
X149474211Y-98050476D01*
X149414631Y-98220745D01*
X149414630Y-98220750D01*
X149394435Y-98399996D01*
X145960281Y-98399996D01*
X145977064Y-98251043D01*
X145977064Y-98251036D01*
X145956868Y-98071790D01*
X145956867Y-98071785D01*
X145931747Y-97999996D01*
X145897288Y-97901518D01*
X145801315Y-97748778D01*
X145673761Y-97621224D01*
X145639224Y-97599523D01*
X145521022Y-97525251D01*
X145350753Y-97465671D01*
X145350748Y-97465670D01*
X145171503Y-97445475D01*
X145171495Y-97445475D01*
X144992245Y-97465671D01*
X144992244Y-97465671D01*
X144912452Y-97493591D01*
X144842673Y-97497152D01*
X144830545Y-97493591D01*
X144750757Y-97465672D01*
X144750749Y-97465670D01*
X144571504Y-97445475D01*
X144571496Y-97445475D01*
X144392250Y-97465670D01*
X144392245Y-97465671D01*
X144221976Y-97525251D01*
X144069237Y-97621224D01*
X143941684Y-97748777D01*
X143845711Y-97901516D01*
X143786131Y-98071785D01*
X143786130Y-98071790D01*
X143765935Y-98251036D01*
X121000500Y-98251036D01*
X121000500Y-96037495D01*
X132194435Y-96037495D01*
X132194435Y-96037502D01*
X132214630Y-96216748D01*
X132214631Y-96216753D01*
X132274211Y-96387022D01*
X132322977Y-96464632D01*
X132370184Y-96539761D01*
X132497738Y-96667315D01*
X132588080Y-96724081D01*
X132649559Y-96762711D01*
X132650478Y-96763288D01*
X132713582Y-96785369D01*
X132820745Y-96822867D01*
X132820750Y-96822868D01*
X132999996Y-96843064D01*
X133000000Y-96843064D01*
X133000004Y-96843064D01*
X133179249Y-96822868D01*
X133179252Y-96822867D01*
X133179255Y-96822867D01*
X133349522Y-96763288D01*
X133349522Y-96763287D01*
X133356095Y-96760988D01*
X133356698Y-96762711D01*
X133416543Y-96752843D01*
X133480684Y-96780551D01*
X133519662Y-96838538D01*
X133521103Y-96908393D01*
X133518473Y-96916873D01*
X133464632Y-97070742D01*
X133464630Y-97070750D01*
X133444435Y-97249996D01*
X133444435Y-97250003D01*
X133464630Y-97429249D01*
X133464631Y-97429254D01*
X133524211Y-97599523D01*
X133571141Y-97674211D01*
X133620184Y-97752262D01*
X133747738Y-97879816D01*
X133900478Y-97975789D01*
X133969678Y-98000003D01*
X134070745Y-98035368D01*
X134070750Y-98035369D01*
X134249996Y-98055565D01*
X134250000Y-98055565D01*
X134250004Y-98055565D01*
X134429249Y-98035369D01*
X134429252Y-98035368D01*
X134429255Y-98035368D01*
X134599522Y-97975789D01*
X134752262Y-97879816D01*
X134879816Y-97752262D01*
X134975789Y-97599522D01*
X135035368Y-97429255D01*
X135055565Y-97250000D01*
X135049304Y-97194435D01*
X135035369Y-97070750D01*
X135035368Y-97070745D01*
X134981526Y-96916873D01*
X134975789Y-96900478D01*
X134879816Y-96747738D01*
X134752262Y-96620184D01*
X134624270Y-96539761D01*
X134599523Y-96524211D01*
X134429254Y-96464631D01*
X134429249Y-96464630D01*
X134250004Y-96444435D01*
X134249996Y-96444435D01*
X134070750Y-96464630D01*
X134070745Y-96464631D01*
X133893905Y-96526511D01*
X133893303Y-96524793D01*
X133833422Y-96534651D01*
X133769289Y-96506925D01*
X133730326Y-96448928D01*
X133728905Y-96379073D01*
X133731527Y-96370624D01*
X133785366Y-96216761D01*
X133785369Y-96216748D01*
X133805565Y-96037502D01*
X133805565Y-96037495D01*
X133785369Y-95858249D01*
X133785368Y-95858244D01*
X133772248Y-95820750D01*
X133725789Y-95687977D01*
X133702227Y-95650479D01*
X133686582Y-95625579D01*
X133629816Y-95535237D01*
X133502262Y-95407683D01*
X133409703Y-95349524D01*
X133349523Y-95311710D01*
X133179254Y-95252130D01*
X133179249Y-95252129D01*
X133000004Y-95231934D01*
X132999996Y-95231934D01*
X132820750Y-95252129D01*
X132820745Y-95252130D01*
X132650476Y-95311710D01*
X132497737Y-95407683D01*
X132370184Y-95535236D01*
X132274211Y-95687975D01*
X132214631Y-95858244D01*
X132214630Y-95858249D01*
X132194435Y-96037495D01*
X121000500Y-96037495D01*
X121000500Y-94999996D01*
X139194435Y-94999996D01*
X139194435Y-95000003D01*
X139214630Y-95179249D01*
X139214633Y-95179262D01*
X139274209Y-95349520D01*
X139327309Y-95434029D01*
X139346309Y-95501266D01*
X139327309Y-95565971D01*
X139274209Y-95650479D01*
X139214633Y-95820737D01*
X139214630Y-95820750D01*
X139194435Y-95999996D01*
X139194435Y-96000003D01*
X139214630Y-96179249D01*
X139214631Y-96179254D01*
X139274211Y-96349523D01*
X139333849Y-96444435D01*
X139370184Y-96502262D01*
X139497738Y-96629816D01*
X139650478Y-96725789D01*
X139713202Y-96747737D01*
X139820745Y-96785368D01*
X139820750Y-96785369D01*
X139999996Y-96805565D01*
X140000000Y-96805565D01*
X140000004Y-96805565D01*
X140179249Y-96785369D01*
X140179252Y-96785368D01*
X140179255Y-96785368D01*
X140349522Y-96725789D01*
X140502262Y-96629816D01*
X140629816Y-96502262D01*
X140725789Y-96349522D01*
X140785368Y-96179255D01*
X140801340Y-96037499D01*
X140805565Y-96000003D01*
X140805565Y-95999996D01*
X140785369Y-95820750D01*
X140785368Y-95820745D01*
X140725788Y-95650475D01*
X140672691Y-95565973D01*
X140653690Y-95498736D01*
X140672691Y-95434027D01*
X140725788Y-95349524D01*
X140725789Y-95349522D01*
X140785368Y-95179255D01*
X140785369Y-95179249D01*
X140805565Y-95000003D01*
X140805565Y-94999996D01*
X140785369Y-94820750D01*
X140785368Y-94820745D01*
X140765263Y-94763288D01*
X140725789Y-94650478D01*
X140631235Y-94499996D01*
X142194435Y-94499996D01*
X142194435Y-94500003D01*
X142214630Y-94679249D01*
X142214631Y-94679254D01*
X142274211Y-94849523D01*
X142368760Y-94999996D01*
X142370184Y-95002262D01*
X142497738Y-95129816D01*
X142650478Y-95225789D01*
X142820745Y-95285368D01*
X142820750Y-95285369D01*
X142999996Y-95305565D01*
X143000000Y-95305565D01*
X143000004Y-95305565D01*
X143179249Y-95285369D01*
X143179252Y-95285368D01*
X143179255Y-95285368D01*
X143349522Y-95225789D01*
X143502262Y-95129816D01*
X143629816Y-95002262D01*
X143725789Y-94849522D01*
X143785368Y-94679255D01*
X143785369Y-94679249D01*
X143805565Y-94500003D01*
X143805565Y-94499996D01*
X143785369Y-94320750D01*
X143785368Y-94320745D01*
X143761405Y-94252262D01*
X143725789Y-94150478D01*
X143629816Y-93997738D01*
X143502262Y-93870184D01*
X143483261Y-93858245D01*
X143349523Y-93774211D01*
X143179254Y-93714631D01*
X143179249Y-93714630D01*
X143000004Y-93694435D01*
X142999996Y-93694435D01*
X142820750Y-93714630D01*
X142820745Y-93714631D01*
X142650476Y-93774211D01*
X142497737Y-93870184D01*
X142370184Y-93997737D01*
X142274211Y-94150476D01*
X142214631Y-94320745D01*
X142214630Y-94320750D01*
X142194435Y-94499996D01*
X140631235Y-94499996D01*
X140629816Y-94497738D01*
X140502262Y-94370184D01*
X140431608Y-94325789D01*
X140349523Y-94274211D01*
X140179254Y-94214631D01*
X140179249Y-94214630D01*
X140000004Y-94194435D01*
X139999996Y-94194435D01*
X139820750Y-94214630D01*
X139820745Y-94214631D01*
X139650476Y-94274211D01*
X139497737Y-94370184D01*
X139370184Y-94497737D01*
X139274211Y-94650476D01*
X139214631Y-94820745D01*
X139214630Y-94820750D01*
X139194435Y-94999996D01*
X121000500Y-94999996D01*
X121000500Y-94037496D01*
X132194435Y-94037496D01*
X132194435Y-94037503D01*
X132214630Y-94216749D01*
X132214631Y-94216754D01*
X132274211Y-94387023D01*
X132345197Y-94499996D01*
X132370184Y-94539762D01*
X132497738Y-94667316D01*
X132650478Y-94763289D01*
X132814678Y-94820745D01*
X132820745Y-94822868D01*
X132820750Y-94822869D01*
X132999996Y-94843065D01*
X133000000Y-94843065D01*
X133000004Y-94843065D01*
X133179249Y-94822869D01*
X133179252Y-94822868D01*
X133179255Y-94822868D01*
X133349522Y-94763289D01*
X133502262Y-94667316D01*
X133629816Y-94539762D01*
X133725789Y-94387022D01*
X133785368Y-94216755D01*
X133785369Y-94216749D01*
X133805565Y-94037503D01*
X133805565Y-94037496D01*
X133785369Y-93858250D01*
X133785368Y-93858245D01*
X133747490Y-93749996D01*
X133725789Y-93687978D01*
X133670506Y-93599996D01*
X149394435Y-93599996D01*
X149394435Y-93600003D01*
X149414630Y-93779249D01*
X149414631Y-93779254D01*
X149474211Y-93949523D01*
X149504507Y-93997738D01*
X149570184Y-94102262D01*
X149697738Y-94229816D01*
X149733461Y-94252262D01*
X149842450Y-94320745D01*
X149850478Y-94325789D01*
X150004878Y-94379816D01*
X150020745Y-94385368D01*
X150020750Y-94385369D01*
X150199996Y-94405565D01*
X150200000Y-94405565D01*
X150200004Y-94405565D01*
X150379249Y-94385369D01*
X150379252Y-94385368D01*
X150379255Y-94385368D01*
X150549522Y-94325789D01*
X150702262Y-94229816D01*
X150829816Y-94102262D01*
X150925789Y-93949522D01*
X150985368Y-93779255D01*
X150985369Y-93779249D01*
X150988665Y-93749996D01*
X153194435Y-93749996D01*
X153194435Y-93750003D01*
X153214630Y-93929249D01*
X153214631Y-93929254D01*
X153274211Y-94099523D01*
X153333849Y-94194435D01*
X153370184Y-94252262D01*
X153497738Y-94379816D01*
X153650478Y-94475789D01*
X153719678Y-94500003D01*
X153820745Y-94535368D01*
X153820750Y-94535369D01*
X153999996Y-94555565D01*
X154000000Y-94555565D01*
X154000004Y-94555565D01*
X154179249Y-94535369D01*
X154179252Y-94535368D01*
X154179255Y-94535368D01*
X154349522Y-94475789D01*
X154502262Y-94379816D01*
X154629816Y-94252262D01*
X154725789Y-94099522D01*
X154785368Y-93929255D01*
X154792024Y-93870184D01*
X154805565Y-93750003D01*
X154805565Y-93749996D01*
X154785369Y-93570750D01*
X154785368Y-93570745D01*
X154752141Y-93475788D01*
X154725789Y-93400478D01*
X154629816Y-93247738D01*
X154502262Y-93120184D01*
X154469379Y-93099522D01*
X154349523Y-93024211D01*
X154179254Y-92964631D01*
X154179249Y-92964630D01*
X154000004Y-92944435D01*
X153999996Y-92944435D01*
X153820750Y-92964630D01*
X153820745Y-92964631D01*
X153650476Y-93024211D01*
X153497737Y-93120184D01*
X153370184Y-93247737D01*
X153274211Y-93400476D01*
X153214631Y-93570745D01*
X153214630Y-93570750D01*
X153194435Y-93749996D01*
X150988665Y-93749996D01*
X151005565Y-93600003D01*
X151005565Y-93599996D01*
X150985369Y-93420750D01*
X150985368Y-93420745D01*
X150926413Y-93252262D01*
X150925789Y-93250478D01*
X150924067Y-93247738D01*
X150885457Y-93186290D01*
X150829816Y-93097738D01*
X150702262Y-92970184D01*
X150693426Y-92964632D01*
X150549523Y-92874211D01*
X150379254Y-92814631D01*
X150379249Y-92814630D01*
X150200004Y-92794435D01*
X150199996Y-92794435D01*
X150020750Y-92814630D01*
X150020745Y-92814631D01*
X149850476Y-92874211D01*
X149697737Y-92970184D01*
X149570184Y-93097737D01*
X149474211Y-93250476D01*
X149414631Y-93420745D01*
X149414630Y-93420750D01*
X149394435Y-93599996D01*
X133670506Y-93599996D01*
X133629816Y-93535238D01*
X133502262Y-93407684D01*
X133490791Y-93400476D01*
X133349523Y-93311711D01*
X133179254Y-93252131D01*
X133179249Y-93252130D01*
X133000004Y-93231935D01*
X132999996Y-93231935D01*
X132820750Y-93252130D01*
X132820745Y-93252131D01*
X132650476Y-93311711D01*
X132497737Y-93407684D01*
X132370184Y-93535237D01*
X132274211Y-93687976D01*
X132214631Y-93858245D01*
X132214630Y-93858250D01*
X132194435Y-94037496D01*
X121000500Y-94037496D01*
X121000500Y-92837496D01*
X128944435Y-92837496D01*
X128944435Y-92837503D01*
X128964630Y-93016749D01*
X128964631Y-93016754D01*
X129024211Y-93187023D01*
X129065122Y-93252132D01*
X129120184Y-93339762D01*
X129247738Y-93467316D01*
X129261223Y-93475789D01*
X129355833Y-93535237D01*
X129400478Y-93563289D01*
X129430280Y-93573717D01*
X129570745Y-93622868D01*
X129570750Y-93622869D01*
X129749996Y-93643065D01*
X129750000Y-93643065D01*
X129750004Y-93643065D01*
X129929249Y-93622869D01*
X129929252Y-93622868D01*
X129929255Y-93622868D01*
X130099522Y-93563289D01*
X130252262Y-93467316D01*
X130379816Y-93339762D01*
X130475789Y-93187022D01*
X130535368Y-93016755D01*
X130535369Y-93016749D01*
X130555565Y-92837503D01*
X130555565Y-92837496D01*
X130545706Y-92749996D01*
X136394435Y-92749996D01*
X136394435Y-92750003D01*
X136414630Y-92929249D01*
X136414631Y-92929254D01*
X136474211Y-93099523D01*
X136557412Y-93231935D01*
X136570184Y-93252262D01*
X136697738Y-93379816D01*
X136742090Y-93407684D01*
X136836991Y-93467315D01*
X136850478Y-93475789D01*
X137020371Y-93535237D01*
X137020745Y-93535368D01*
X137020750Y-93535369D01*
X137199996Y-93555565D01*
X137200000Y-93555565D01*
X137200004Y-93555565D01*
X137379249Y-93535369D01*
X137379252Y-93535368D01*
X137379255Y-93535368D01*
X137549522Y-93475789D01*
X137702262Y-93379816D01*
X137829816Y-93252262D01*
X137925789Y-93099522D01*
X137985368Y-92929255D01*
X137985369Y-92929249D01*
X138005565Y-92750003D01*
X138005565Y-92749996D01*
X138394435Y-92749996D01*
X138394435Y-92750003D01*
X138414630Y-92929249D01*
X138414631Y-92929254D01*
X138474211Y-93099523D01*
X138557412Y-93231935D01*
X138570184Y-93252262D01*
X138697738Y-93379816D01*
X138742090Y-93407684D01*
X138836991Y-93467315D01*
X138850478Y-93475789D01*
X139020371Y-93535237D01*
X139020745Y-93535368D01*
X139020750Y-93535369D01*
X139199996Y-93555565D01*
X139200000Y-93555565D01*
X139200004Y-93555565D01*
X139379249Y-93535369D01*
X139379252Y-93535368D01*
X139379255Y-93535368D01*
X139549522Y-93475789D01*
X139702262Y-93379816D01*
X139829816Y-93252262D01*
X139925789Y-93099522D01*
X139985368Y-92929255D01*
X139985369Y-92929249D01*
X140005565Y-92750003D01*
X140005565Y-92749996D01*
X139985369Y-92570750D01*
X139985368Y-92570745D01*
X139983927Y-92566628D01*
X139925789Y-92400478D01*
X139829816Y-92247738D01*
X139702262Y-92120184D01*
X139688777Y-92111711D01*
X139549523Y-92024211D01*
X139379254Y-91964631D01*
X139379249Y-91964630D01*
X139200004Y-91944435D01*
X139199996Y-91944435D01*
X139020750Y-91964630D01*
X139020745Y-91964631D01*
X138850476Y-92024211D01*
X138697737Y-92120184D01*
X138570184Y-92247737D01*
X138474211Y-92400476D01*
X138414631Y-92570745D01*
X138414630Y-92570750D01*
X138394435Y-92749996D01*
X138005565Y-92749996D01*
X137985369Y-92570750D01*
X137985368Y-92570745D01*
X137983927Y-92566628D01*
X137925789Y-92400478D01*
X137829816Y-92247738D01*
X137702262Y-92120184D01*
X137688777Y-92111711D01*
X137549523Y-92024211D01*
X137379254Y-91964631D01*
X137379249Y-91964630D01*
X137200004Y-91944435D01*
X137199996Y-91944435D01*
X137020750Y-91964630D01*
X137020745Y-91964631D01*
X136850476Y-92024211D01*
X136697737Y-92120184D01*
X136570184Y-92247737D01*
X136474211Y-92400476D01*
X136414631Y-92570745D01*
X136414630Y-92570750D01*
X136394435Y-92749996D01*
X130545706Y-92749996D01*
X130535369Y-92658250D01*
X130535368Y-92658245D01*
X130475788Y-92487976D01*
X130379815Y-92335237D01*
X130252262Y-92207684D01*
X130099523Y-92111711D01*
X129929254Y-92052131D01*
X129929249Y-92052130D01*
X129750004Y-92031935D01*
X129749996Y-92031935D01*
X129570750Y-92052130D01*
X129570745Y-92052131D01*
X129400476Y-92111711D01*
X129247737Y-92207684D01*
X129120184Y-92335237D01*
X129024211Y-92487976D01*
X128964631Y-92658245D01*
X128964630Y-92658250D01*
X128944435Y-92837496D01*
X121000500Y-92837496D01*
X121000500Y-91778543D01*
X150344499Y-91778543D01*
X150382947Y-91971829D01*
X150382950Y-91971839D01*
X150458364Y-92153907D01*
X150458371Y-92153920D01*
X150567860Y-92317781D01*
X150567863Y-92317785D01*
X150707214Y-92457136D01*
X150707218Y-92457139D01*
X150871079Y-92566628D01*
X150871092Y-92566635D01*
X151049290Y-92640446D01*
X151053165Y-92642051D01*
X151053169Y-92642051D01*
X151053170Y-92642052D01*
X151246456Y-92680500D01*
X151246459Y-92680500D01*
X151759049Y-92680500D01*
X151826088Y-92700185D01*
X151871843Y-92752989D01*
X151881787Y-92822147D01*
X151866436Y-92866499D01*
X151854992Y-92886322D01*
X151815500Y-93033707D01*
X151815500Y-93186293D01*
X151849106Y-93311711D01*
X151854993Y-93333681D01*
X151931282Y-93465817D01*
X151931284Y-93465819D01*
X151931285Y-93465821D01*
X152039179Y-93573715D01*
X152039180Y-93573716D01*
X152039182Y-93573717D01*
X152171318Y-93650006D01*
X152171319Y-93650006D01*
X152171322Y-93650008D01*
X152318707Y-93689500D01*
X152318710Y-93689500D01*
X152471290Y-93689500D01*
X152471293Y-93689500D01*
X152618678Y-93650008D01*
X152750821Y-93573715D01*
X152858715Y-93465821D01*
X152935008Y-93333678D01*
X152974500Y-93186293D01*
X152974500Y-93033707D01*
X152935008Y-92886322D01*
X152923564Y-92866501D01*
X152854651Y-92747140D01*
X152857249Y-92745640D01*
X152837215Y-92693842D01*
X152851242Y-92625395D01*
X152900048Y-92575397D01*
X152913322Y-92568947D01*
X152918914Y-92566632D01*
X153082782Y-92457139D01*
X153222139Y-92317782D01*
X153331632Y-92153914D01*
X153407051Y-91971835D01*
X153445500Y-91778543D01*
X154674499Y-91778543D01*
X154712947Y-91971829D01*
X154712950Y-91971839D01*
X154788364Y-92153907D01*
X154788371Y-92153920D01*
X154897860Y-92317781D01*
X154897863Y-92317785D01*
X155037214Y-92457136D01*
X155037218Y-92457139D01*
X155201079Y-92566628D01*
X155201092Y-92566635D01*
X155379290Y-92640446D01*
X155383165Y-92642051D01*
X155383169Y-92642051D01*
X155383170Y-92642052D01*
X155576456Y-92680500D01*
X155576459Y-92680500D01*
X156573543Y-92680500D01*
X156745549Y-92646285D01*
X156766835Y-92642051D01*
X156948914Y-92566632D01*
X157112782Y-92457139D01*
X157252139Y-92317782D01*
X157361632Y-92153914D01*
X157437051Y-91971835D01*
X157475500Y-91778541D01*
X157475500Y-91581459D01*
X157475500Y-91581456D01*
X157437052Y-91388170D01*
X157437051Y-91388169D01*
X157437051Y-91388165D01*
X157437049Y-91388160D01*
X157361635Y-91206092D01*
X157361628Y-91206079D01*
X157252139Y-91042218D01*
X157252136Y-91042214D01*
X157112785Y-90902863D01*
X157112781Y-90902860D01*
X156948920Y-90793371D01*
X156948907Y-90793364D01*
X156766839Y-90717950D01*
X156766829Y-90717947D01*
X156573543Y-90679500D01*
X156573541Y-90679500D01*
X155576459Y-90679500D01*
X155576457Y-90679500D01*
X155383170Y-90717947D01*
X155383160Y-90717950D01*
X155201092Y-90793364D01*
X155201079Y-90793371D01*
X155037218Y-90902860D01*
X155037214Y-90902863D01*
X154897863Y-91042214D01*
X154897860Y-91042218D01*
X154788371Y-91206079D01*
X154788364Y-91206092D01*
X154712950Y-91388160D01*
X154712947Y-91388170D01*
X154674500Y-91581456D01*
X154674500Y-91581459D01*
X154674500Y-91778541D01*
X154674500Y-91778543D01*
X154674499Y-91778543D01*
X153445500Y-91778543D01*
X153445500Y-91778541D01*
X153445500Y-91581459D01*
X153445500Y-91581456D01*
X153407052Y-91388170D01*
X153407051Y-91388169D01*
X153407051Y-91388165D01*
X153407049Y-91388160D01*
X153331635Y-91206092D01*
X153331628Y-91206079D01*
X153222139Y-91042218D01*
X153222136Y-91042214D01*
X153082785Y-90902863D01*
X153082781Y-90902860D01*
X152918920Y-90793371D01*
X152918907Y-90793364D01*
X152736839Y-90717950D01*
X152736829Y-90717947D01*
X152543543Y-90679500D01*
X152543541Y-90679500D01*
X151246459Y-90679500D01*
X151246457Y-90679500D01*
X151053170Y-90717947D01*
X151053160Y-90717950D01*
X150871092Y-90793364D01*
X150871079Y-90793371D01*
X150707218Y-90902860D01*
X150707214Y-90902863D01*
X150567863Y-91042214D01*
X150567860Y-91042218D01*
X150458371Y-91206079D01*
X150458364Y-91206092D01*
X150382950Y-91388160D01*
X150382947Y-91388170D01*
X150344500Y-91581456D01*
X150344500Y-91581459D01*
X150344500Y-91778541D01*
X150344500Y-91778543D01*
X150344499Y-91778543D01*
X121000500Y-91778543D01*
X121000500Y-86999996D01*
X146694435Y-86999996D01*
X146694435Y-87000003D01*
X146714630Y-87179249D01*
X146714631Y-87179254D01*
X146774211Y-87349523D01*
X146870184Y-87502262D01*
X146997738Y-87629816D01*
X147150478Y-87725789D01*
X147320745Y-87785368D01*
X147320750Y-87785369D01*
X147499996Y-87805565D01*
X147500000Y-87805565D01*
X147500004Y-87805565D01*
X147679249Y-87785369D01*
X147679252Y-87785368D01*
X147679255Y-87785368D01*
X147849522Y-87725789D01*
X148002262Y-87629816D01*
X148129816Y-87502262D01*
X148225789Y-87349522D01*
X148285368Y-87179255D01*
X148305565Y-87000000D01*
X148305565Y-86999996D01*
X149944435Y-86999996D01*
X149944435Y-87000003D01*
X149964630Y-87179249D01*
X149964631Y-87179254D01*
X150024211Y-87349523D01*
X150120184Y-87502262D01*
X150247738Y-87629816D01*
X150400478Y-87725789D01*
X150570745Y-87785368D01*
X150570750Y-87785369D01*
X150749996Y-87805565D01*
X150750000Y-87805565D01*
X150750004Y-87805565D01*
X150929249Y-87785369D01*
X150929252Y-87785368D01*
X150929255Y-87785368D01*
X151099522Y-87725789D01*
X151252262Y-87629816D01*
X151379816Y-87502262D01*
X151475789Y-87349522D01*
X151535368Y-87179255D01*
X151555565Y-87000000D01*
X151535368Y-86820745D01*
X151475789Y-86650478D01*
X151379816Y-86497738D01*
X151252262Y-86370184D01*
X151099523Y-86274211D01*
X150929254Y-86214631D01*
X150929249Y-86214630D01*
X150750004Y-86194435D01*
X150749996Y-86194435D01*
X150570750Y-86214630D01*
X150570745Y-86214631D01*
X150400476Y-86274211D01*
X150247737Y-86370184D01*
X150120184Y-86497737D01*
X150024211Y-86650476D01*
X149964631Y-86820745D01*
X149964630Y-86820750D01*
X149944435Y-86999996D01*
X148305565Y-86999996D01*
X148285368Y-86820745D01*
X148225789Y-86650478D01*
X148129816Y-86497738D01*
X148002262Y-86370184D01*
X147849523Y-86274211D01*
X147679254Y-86214631D01*
X147679249Y-86214630D01*
X147500004Y-86194435D01*
X147499996Y-86194435D01*
X147320750Y-86214630D01*
X147320745Y-86214631D01*
X147150476Y-86274211D01*
X146997737Y-86370184D01*
X146870184Y-86497737D01*
X146774211Y-86650476D01*
X146714631Y-86820745D01*
X146714630Y-86820750D01*
X146694435Y-86999996D01*
X121000500Y-86999996D01*
X121000500Y-85749996D01*
X148329435Y-85749996D01*
X148329435Y-85750003D01*
X148349630Y-85929249D01*
X148349631Y-85929254D01*
X148409211Y-86099523D01*
X148468849Y-86194435D01*
X148505184Y-86252262D01*
X148632738Y-86379816D01*
X148785478Y-86475789D01*
X148848202Y-86497737D01*
X148955745Y-86535368D01*
X148955750Y-86535369D01*
X149134996Y-86555565D01*
X149135000Y-86555565D01*
X149135004Y-86555565D01*
X149314249Y-86535369D01*
X149314252Y-86535368D01*
X149314255Y-86535368D01*
X149484522Y-86475789D01*
X149637262Y-86379816D01*
X149764816Y-86252262D01*
X149860789Y-86099522D01*
X149920368Y-85929255D01*
X149940565Y-85750000D01*
X149920368Y-85570745D01*
X149860789Y-85400478D01*
X149764816Y-85247738D01*
X149637262Y-85120184D01*
X149484523Y-85024211D01*
X149314254Y-84964631D01*
X149314249Y-84964630D01*
X149135004Y-84944435D01*
X149134996Y-84944435D01*
X148955750Y-84964630D01*
X148955745Y-84964631D01*
X148785476Y-85024211D01*
X148632737Y-85120184D01*
X148505184Y-85247737D01*
X148409211Y-85400476D01*
X148349631Y-85570745D01*
X148349630Y-85570750D01*
X148329435Y-85749996D01*
X121000500Y-85749996D01*
X121000500Y-83999996D01*
X142714433Y-83999996D01*
X142714433Y-84000003D01*
X142734628Y-84179249D01*
X142734629Y-84179254D01*
X142794209Y-84349523D01*
X142890182Y-84502262D01*
X143017736Y-84629816D01*
X143170476Y-84725789D01*
X143340743Y-84785368D01*
X143340748Y-84785369D01*
X143519994Y-84805565D01*
X143519998Y-84805565D01*
X143520002Y-84805565D01*
X143699247Y-84785369D01*
X143699250Y-84785368D01*
X143699253Y-84785368D01*
X143869520Y-84725789D01*
X144022260Y-84629816D01*
X144149814Y-84502262D01*
X144245787Y-84349522D01*
X144305366Y-84179255D01*
X144325563Y-84000000D01*
X144325563Y-83999996D01*
X146694435Y-83999996D01*
X146694435Y-84000003D01*
X146714630Y-84179249D01*
X146714631Y-84179254D01*
X146774211Y-84349523D01*
X146870184Y-84502262D01*
X146997738Y-84629816D01*
X147150478Y-84725789D01*
X147320745Y-84785368D01*
X147320750Y-84785369D01*
X147499996Y-84805565D01*
X147500000Y-84805565D01*
X147500004Y-84805565D01*
X147679249Y-84785369D01*
X147679252Y-84785368D01*
X147679255Y-84785368D01*
X147849522Y-84725789D01*
X148002262Y-84629816D01*
X148129816Y-84502262D01*
X148225789Y-84349522D01*
X148285368Y-84179255D01*
X148305565Y-84000000D01*
X148305565Y-83999996D01*
X149944435Y-83999996D01*
X149944435Y-84000003D01*
X149964630Y-84179249D01*
X149964631Y-84179254D01*
X150024211Y-84349523D01*
X150120184Y-84502262D01*
X150247738Y-84629816D01*
X150400478Y-84725789D01*
X150570745Y-84785368D01*
X150570750Y-84785369D01*
X150749996Y-84805565D01*
X150750000Y-84805565D01*
X150750004Y-84805565D01*
X150929249Y-84785369D01*
X150929252Y-84785368D01*
X150929255Y-84785368D01*
X151099522Y-84725789D01*
X151252262Y-84629816D01*
X151379816Y-84502262D01*
X151475789Y-84349522D01*
X151535368Y-84179255D01*
X151555565Y-84000000D01*
X151535368Y-83820745D01*
X151475789Y-83650478D01*
X151379816Y-83497738D01*
X151252262Y-83370184D01*
X151099523Y-83274211D01*
X150929254Y-83214631D01*
X150929249Y-83214630D01*
X150750004Y-83194435D01*
X150749996Y-83194435D01*
X150570750Y-83214630D01*
X150570745Y-83214631D01*
X150400476Y-83274211D01*
X150247737Y-83370184D01*
X150120184Y-83497737D01*
X150024211Y-83650476D01*
X149964631Y-83820745D01*
X149964630Y-83820750D01*
X149944435Y-83999996D01*
X148305565Y-83999996D01*
X148285368Y-83820745D01*
X148225789Y-83650478D01*
X148129816Y-83497738D01*
X148002262Y-83370184D01*
X147849523Y-83274211D01*
X147679254Y-83214631D01*
X147679249Y-83214630D01*
X147500004Y-83194435D01*
X147499996Y-83194435D01*
X147320750Y-83214630D01*
X147320745Y-83214631D01*
X147150476Y-83274211D01*
X146997737Y-83370184D01*
X146870184Y-83497737D01*
X146774211Y-83650476D01*
X146714631Y-83820745D01*
X146714630Y-83820750D01*
X146694435Y-83999996D01*
X144325563Y-83999996D01*
X144305366Y-83820745D01*
X144245787Y-83650478D01*
X144149814Y-83497738D01*
X144022260Y-83370184D01*
X143869521Y-83274211D01*
X143699252Y-83214631D01*
X143699247Y-83214630D01*
X143520002Y-83194435D01*
X143519994Y-83194435D01*
X143340748Y-83214630D01*
X143340743Y-83214631D01*
X143170474Y-83274211D01*
X143017735Y-83370184D01*
X142890182Y-83497737D01*
X142794209Y-83650476D01*
X142734629Y-83820745D01*
X142734628Y-83820750D01*
X142714433Y-83999996D01*
X121000500Y-83999996D01*
X121000500Y-82749996D01*
X148329435Y-82749996D01*
X148329435Y-82750003D01*
X148349630Y-82929249D01*
X148349631Y-82929254D01*
X148409211Y-83099523D01*
X148468849Y-83194435D01*
X148505184Y-83252262D01*
X148632738Y-83379816D01*
X148785478Y-83475789D01*
X148848202Y-83497737D01*
X148955745Y-83535368D01*
X148955750Y-83535369D01*
X149134996Y-83555565D01*
X149135000Y-83555565D01*
X149135004Y-83555565D01*
X149314249Y-83535369D01*
X149314252Y-83535368D01*
X149314255Y-83535368D01*
X149484522Y-83475789D01*
X149637262Y-83379816D01*
X149764816Y-83252262D01*
X149860789Y-83099522D01*
X149920368Y-82929255D01*
X149940565Y-82750000D01*
X149920368Y-82570745D01*
X149860789Y-82400478D01*
X149764816Y-82247738D01*
X149637262Y-82120184D01*
X149484523Y-82024211D01*
X149314254Y-81964631D01*
X149314249Y-81964630D01*
X149135004Y-81944435D01*
X149134996Y-81944435D01*
X148955750Y-81964630D01*
X148955745Y-81964631D01*
X148785476Y-82024211D01*
X148632737Y-82120184D01*
X148505184Y-82247737D01*
X148409211Y-82400476D01*
X148349631Y-82570745D01*
X148349630Y-82570750D01*
X148329435Y-82749996D01*
X121000500Y-82749996D01*
X121000500Y-79749996D01*
X125194435Y-79749996D01*
X125194435Y-79750003D01*
X125214630Y-79929249D01*
X125214631Y-79929254D01*
X125274211Y-80099523D01*
X125370184Y-80252262D01*
X125497738Y-80379816D01*
X125650478Y-80475789D01*
X125820745Y-80535368D01*
X125820750Y-80535369D01*
X125999996Y-80555565D01*
X126000000Y-80555565D01*
X126000004Y-80555565D01*
X126179249Y-80535369D01*
X126179252Y-80535368D01*
X126179255Y-80535368D01*
X126349522Y-80475789D01*
X126502262Y-80379816D01*
X126629816Y-80252262D01*
X126725789Y-80099522D01*
X126785368Y-79929255D01*
X126805565Y-79750000D01*
X126785368Y-79570745D01*
X126725789Y-79400478D01*
X126629816Y-79247738D01*
X126502262Y-79120184D01*
X126349523Y-79024211D01*
X126179254Y-78964631D01*
X126179249Y-78964630D01*
X126000004Y-78944435D01*
X125999996Y-78944435D01*
X125820750Y-78964630D01*
X125820745Y-78964631D01*
X125650476Y-79024211D01*
X125497737Y-79120184D01*
X125370184Y-79247737D01*
X125274211Y-79400476D01*
X125214631Y-79570745D01*
X125214630Y-79570750D01*
X125194435Y-79749996D01*
X121000500Y-79749996D01*
X121000500Y-73878456D01*
X123145500Y-73878456D01*
X123145500Y-74121543D01*
X123145501Y-74121559D01*
X123177230Y-74362569D01*
X123240149Y-74597386D01*
X123333175Y-74821972D01*
X123333182Y-74821987D01*
X123454730Y-75032516D01*
X123602722Y-75225380D01*
X123602730Y-75225389D01*
X123774611Y-75397270D01*
X123774619Y-75397277D01*
X123967483Y-75545269D01*
X124178012Y-75666817D01*
X124178027Y-75666824D01*
X124294171Y-75714932D01*
X124402612Y-75759850D01*
X124637429Y-75822769D01*
X124878450Y-75854500D01*
X124878457Y-75854500D01*
X125121543Y-75854500D01*
X125121550Y-75854500D01*
X125362571Y-75822769D01*
X125597388Y-75759850D01*
X125821984Y-75666819D01*
X126032516Y-75545269D01*
X126225380Y-75397278D01*
X126225384Y-75397273D01*
X126225389Y-75397270D01*
X126397270Y-75225389D01*
X126397273Y-75225384D01*
X126397278Y-75225380D01*
X126545269Y-75032516D01*
X126564044Y-74999996D01*
X144444435Y-74999996D01*
X144444435Y-75000003D01*
X144464630Y-75179249D01*
X144464631Y-75179254D01*
X144524211Y-75349523D01*
X144554213Y-75397270D01*
X144620184Y-75502262D01*
X144747738Y-75629816D01*
X144900478Y-75725789D01*
X144997819Y-75759850D01*
X145070745Y-75785368D01*
X145070750Y-75785369D01*
X145249996Y-75805565D01*
X145250000Y-75805565D01*
X145250004Y-75805565D01*
X145429249Y-75785369D01*
X145429252Y-75785368D01*
X145429255Y-75785368D01*
X145599522Y-75725789D01*
X145752262Y-75629816D01*
X145879816Y-75502262D01*
X145975789Y-75349522D01*
X146035368Y-75179255D01*
X146035369Y-75179249D01*
X146055565Y-75000003D01*
X146055565Y-74999996D01*
X146035369Y-74820750D01*
X146035368Y-74820745D01*
X145975788Y-74650476D01*
X145879815Y-74497737D01*
X145752262Y-74370184D01*
X145599523Y-74274211D01*
X145429254Y-74214631D01*
X145429249Y-74214630D01*
X145250004Y-74194435D01*
X145249996Y-74194435D01*
X145070750Y-74214630D01*
X145070745Y-74214631D01*
X144900476Y-74274211D01*
X144747737Y-74370184D01*
X144620184Y-74497737D01*
X144524211Y-74650476D01*
X144464631Y-74820745D01*
X144464630Y-74820750D01*
X144444435Y-74999996D01*
X126564044Y-74999996D01*
X126666819Y-74821984D01*
X126759850Y-74597388D01*
X126822769Y-74362571D01*
X126854500Y-74121550D01*
X126854500Y-73878456D01*
X152145500Y-73878456D01*
X152145500Y-74121543D01*
X152145501Y-74121559D01*
X152177230Y-74362569D01*
X152240149Y-74597386D01*
X152333175Y-74821972D01*
X152333182Y-74821987D01*
X152454730Y-75032516D01*
X152602722Y-75225380D01*
X152602730Y-75225389D01*
X152774611Y-75397270D01*
X152774619Y-75397277D01*
X152967483Y-75545269D01*
X153178012Y-75666817D01*
X153178027Y-75666824D01*
X153294171Y-75714932D01*
X153402612Y-75759850D01*
X153637429Y-75822769D01*
X153878450Y-75854500D01*
X153878457Y-75854500D01*
X154121543Y-75854500D01*
X154121550Y-75854500D01*
X154362571Y-75822769D01*
X154597388Y-75759850D01*
X154821984Y-75666819D01*
X155032516Y-75545269D01*
X155225380Y-75397278D01*
X155225384Y-75397273D01*
X155225389Y-75397270D01*
X155397270Y-75225389D01*
X155397273Y-75225384D01*
X155397278Y-75225380D01*
X155545269Y-75032516D01*
X155666819Y-74821984D01*
X155759850Y-74597388D01*
X155822769Y-74362571D01*
X155854500Y-74121550D01*
X155854500Y-73878450D01*
X155822769Y-73637429D01*
X155759850Y-73402612D01*
X155666819Y-73178016D01*
X155666817Y-73178012D01*
X155545269Y-72967483D01*
X155397277Y-72774619D01*
X155397270Y-72774611D01*
X155225389Y-72602730D01*
X155225380Y-72602722D01*
X155032516Y-72454730D01*
X154821987Y-72333182D01*
X154821972Y-72333175D01*
X154597386Y-72240149D01*
X154362569Y-72177230D01*
X154121559Y-72145501D01*
X154121556Y-72145500D01*
X154121550Y-72145500D01*
X153878450Y-72145500D01*
X153878444Y-72145500D01*
X153878440Y-72145501D01*
X153637430Y-72177230D01*
X153402613Y-72240149D01*
X153178027Y-72333175D01*
X153178012Y-72333182D01*
X152967483Y-72454730D01*
X152774619Y-72602722D01*
X152602722Y-72774619D01*
X152454730Y-72967483D01*
X152333182Y-73178012D01*
X152333175Y-73178027D01*
X152240149Y-73402613D01*
X152177230Y-73637430D01*
X152145501Y-73878440D01*
X152145500Y-73878456D01*
X126854500Y-73878456D01*
X126854500Y-73878450D01*
X126822769Y-73637429D01*
X126759850Y-73402612D01*
X126666819Y-73178016D01*
X126666817Y-73178012D01*
X126545269Y-72967483D01*
X126397277Y-72774619D01*
X126397270Y-72774611D01*
X126225389Y-72602730D01*
X126225380Y-72602722D01*
X126032516Y-72454730D01*
X125821987Y-72333182D01*
X125821972Y-72333175D01*
X125597386Y-72240149D01*
X125362569Y-72177230D01*
X125121559Y-72145501D01*
X125121556Y-72145500D01*
X125121550Y-72145500D01*
X124878450Y-72145500D01*
X124878444Y-72145500D01*
X124878440Y-72145501D01*
X124637430Y-72177230D01*
X124402613Y-72240149D01*
X124178027Y-72333175D01*
X124178012Y-72333182D01*
X123967483Y-72454730D01*
X123774619Y-72602722D01*
X123602722Y-72774619D01*
X123454730Y-72967483D01*
X123333182Y-73178012D01*
X123333175Y-73178027D01*
X123240149Y-73402613D01*
X123177230Y-73637430D01*
X123145501Y-73878440D01*
X123145500Y-73878456D01*
X121000500Y-73878456D01*
X121000500Y-70124500D01*
X121020185Y-70057461D01*
X121072989Y-70011706D01*
X121124500Y-70000500D01*
X157875500Y-70000500D01*
X157942539Y-70020185D01*
G37*
%TD.AperFunction*%
%TD*%
M02*
