M48
; DRILL file {KiCad 8.0.6} date 2025-04-24T20:36:43+0200
; FORMAT={-:-/ absolute / inch / decimal}
; #@! TF.CreationDate,2025-04-24T20:36:43+02:00
; #@! TF.GenerationSoftware,Kicad,Pcbnew,8.0.6
; #@! TF.FileFunction,Plated,1,4,PTH
FMAT,2
INCH
; #@! TA.AperFunction,Plated,PTH,ComponentDrill
T1C0.0079
; #@! TA.AperFunction,Plated,PTH,ViaDrill
T2C0.0118
; #@! TA.AperFunction,Plated,PTH,ComponentDrill
T3C0.0236
; #@! TA.AperFunction,Plated,PTH,ComponentDrill
T4C0.0394
; #@! TA.AperFunction,Plated,PTH,ComponentDrill
T5C0.0512
%
G90
G05
T1
X5.3366Y-3.7475
X5.3366Y-3.8046
X5.3366Y-3.8617
X5.3937Y-3.7475
X5.3937Y-3.8046
X5.3937Y-3.8617
X5.4508Y-3.7475
X5.4508Y-3.8046
X5.4508Y-3.8617
T2
X4.8031Y-2.8347
X4.8031Y-2.9135
X4.8031Y-2.9922
X4.8031Y-3.4646
X4.8031Y-3.5434
X4.8031Y-3.6221
X4.8031Y-3.7009
X4.8031Y-3.7796
X4.8031Y-3.8583
X4.8031Y-3.9371
X4.8031Y-4.0158
X4.8031Y-4.0946
X4.8031Y-4.1733
X4.8031Y-4.252
X4.8031Y-4.3308
X4.8031Y-4.4095
X4.8031Y-4.4883
X4.8031Y-4.567
X4.8031Y-4.6457
X4.8031Y-4.7245
X4.8031Y-4.8032
X4.8031Y-4.882
X4.8031Y-4.9607
X4.8031Y-5.0394
X4.8031Y-5.1182
X4.813Y-3.1791
X4.813Y-3.2776
X4.8819Y-3.4646
X4.8819Y-3.5434
X4.8819Y-3.6221
X4.8819Y-3.9371
X4.8819Y-4.4095
X4.8819Y-4.6457
X4.8819Y-4.7245
X4.8819Y-4.8032
X4.8819Y-4.882
X4.8819Y-4.9607
X4.8819Y-5.0394
X4.8819Y-5.1182
X4.8878Y-3.8681
X4.9547Y-3.6811
X4.9606Y-3.0709
X4.9606Y-3.1398
X4.9606Y-3.3859
X4.9606Y-3.5434
X4.9606Y-3.6221
X4.9606Y-4.3308
X4.9606Y-4.4095
X4.9606Y-4.6457
X4.9606Y-4.7245
X4.9606Y-4.8032
X4.9606Y-4.882
X4.9606Y-4.9607
X4.9606Y-5.0394
X4.9606Y-5.1182
X5.0Y-3.7323
X5.0295Y-3.8878
X5.0394Y-2.8347
X5.0394Y-2.9135
X5.0394Y-2.9922
X5.0394Y-3.5434
X5.0394Y-3.6221
X5.0394Y-4.9607
X5.0394Y-5.0394
X5.0394Y-5.1182
X5.0591Y-3.7008
X5.0886Y-3.4843
X5.0886Y-3.8878
X5.0894Y-3.7303
X5.1083Y-3.655
X5.1181Y-2.8347
X5.1181Y-2.9135
X5.1181Y-3.1497
X5.1181Y-3.5434
X5.1181Y-4.9607
X5.1181Y-5.0394
X5.1181Y-5.1182
X5.1386Y-4.0217
X5.1969Y-3.1497
X5.1969Y-3.2284
X5.1969Y-3.3072
X5.1969Y-4.9607
X5.1969Y-5.0394
X5.1969Y-5.1182
X5.2126Y-4.0256
X5.2362Y-3.7023
X5.2362Y-3.781
X5.2657Y-3.9075
X5.2756Y-2.8347
X5.2756Y-3.1497
X5.2756Y-4.9607
X5.2756Y-5.0394
X5.2756Y-5.1182
X5.2854Y-3.8287
X5.3346Y-3.4646
X5.3445Y-3.0118
X5.3543Y-2.8347
X5.3543Y-4.9607
X5.3543Y-5.0394
X5.3543Y-5.1182
X5.3642Y-4.1437
X5.3819Y-4.0472
X5.4016Y-3.6516
X5.4016Y-3.9567
X5.4035Y-3.0118
X5.4035Y-4.1437
X5.4331Y-2.8347
X5.4331Y-4.9607
X5.4331Y-5.0394
X5.4331Y-5.1182
X5.4626Y-3.0118
X5.4803Y-3.6516
X5.4823Y-3.4449
X5.5118Y-2.8347
X5.5118Y-3.7402
X5.5118Y-3.7795
X5.5118Y-4.9607
X5.5118Y-5.0394
X5.5118Y-5.1182
X5.5217Y-3.0118
X5.5413Y-3.907
X5.5413Y-4.063
X5.5906Y-2.8347
X5.5906Y-4.9607
X5.5906Y-5.0394
X5.5906Y-5.1182
X5.6201Y-4.0227
X5.6299Y-3.7205
X5.6299Y-4.1043
X5.6398Y-3.0118
X5.6504Y-3.3071
X5.6594Y-3.2283
X5.6594Y-4.065
X5.6693Y-2.8347
X5.6693Y-3.5728
X5.6693Y-4.9607
X5.6693Y-5.0394
X5.6693Y-5.1182
X5.6707Y-3.9731
X5.6918Y-3.8682
X5.6944Y-3.9731
X5.7154Y-3.8682
X5.7185Y-2.9528
X5.748Y-2.8347
X5.748Y-4.9607
X5.748Y-5.0394
X5.748Y-5.1182
X5.7715Y-3.1496
X5.8071Y-3.3071
X5.8071Y-3.4252
X5.8169Y-3.6713
X5.8169Y-3.7106
X5.8268Y-4.9607
X5.8268Y-5.0394
X5.8268Y-5.1182
X5.8563Y-3.6319
X5.8563Y-3.9075
X5.8563Y-3.9567
X5.8715Y-3.2579
X5.8715Y-3.376
X5.9055Y-2.8347
X5.9055Y-2.9135
X5.9055Y-4.567
X5.9055Y-4.9607
X5.9055Y-5.0394
X5.9055Y-5.1182
X5.9134Y-3.685
X5.9134Y-3.874
X5.9252Y-4.4587
X5.935Y-3.3071
X5.935Y-3.4252
X5.9654Y-4.0362
X5.9744Y-4.252
X5.9843Y-2.8347
X5.9843Y-2.9922
X5.9843Y-4.4095
X5.9843Y-4.6457
X5.9843Y-4.7245
X5.9843Y-4.8032
X5.9843Y-4.882
X5.9843Y-4.9607
X5.9843Y-5.0394
X5.9843Y-5.1182
X6.0354Y-4.0748
X6.063Y-3.0709
X6.063Y-3.6909
X6.063Y-3.7796
X6.063Y-3.8583
X6.063Y-4.4095
X6.063Y-4.6457
X6.063Y-4.7245
X6.063Y-4.8032
X6.063Y-4.882
X6.063Y-4.9607
X6.063Y-5.0394
X6.063Y-5.1182
X6.0728Y-3.4646
X6.0728Y-3.5236
X6.0728Y-4.0315
X6.1417Y-2.8347
X6.1417Y-2.9922
X6.1417Y-3.4646
X6.1417Y-3.5434
X6.1417Y-4.0158
X6.1417Y-4.0946
X6.1417Y-4.4095
X6.1417Y-4.6457
X6.1417Y-4.7245
X6.1417Y-4.8032
X6.1417Y-4.882
X6.1417Y-4.9607
X6.1417Y-5.0394
X6.1417Y-5.1182
X6.1535Y-4.3425
X6.1713Y-3.1791
X6.1713Y-3.2776
X6.1713Y-4.2323
T4
X4.8809Y-4.0732
X4.8809Y-4.1732
X4.8809Y-4.2732
X5.0906Y-4.749
X5.0906Y-4.849
X5.1906Y-4.749
X5.1906Y-4.849
X5.2906Y-4.749
X5.2906Y-4.849
X5.3906Y-4.749
X5.3906Y-4.849
X5.4906Y-4.749
X5.4906Y-4.849
X5.5906Y-4.749
X5.5906Y-4.849
X5.6906Y-4.749
X5.6906Y-4.849
X5.7906Y-4.849
X5.7906Y-4.749
X5.8906Y-4.749
X5.8906Y-4.849
T5
X5.2028Y-2.8386
X5.2264Y-3.0315
X5.7972Y-3.0315
X5.8209Y-2.8386
T3
G00X5.9585Y-3.6094
M15
G01X6.0018Y-3.6094
M16
G05
G00X5.9585Y-3.9496
M15
G01X6.0018Y-3.9496
M16
G05
G00X6.1289Y-3.6094
M15
G01X6.1604Y-3.6094
M16
G05
G00X6.1289Y-3.9496
M15
G01X6.1604Y-3.9496
M16
G05
M30
